<svg width="64" height="64" viewBox="0 0 64 64" fill="none" xmlns="http://www.w3.org/2000/svg">
<circle cx="32" cy="32" r="31.5" fill="#1D1D1D" stroke="url(#paint0_linear_255_7212)"/>
<path d="M31.7256 40C31.3459 40 31.0321 39.7178 30.9824 39.3518L30.9756 39.25L30.9756 24.25C30.9756 23.8358 31.3114 23.5 31.7256 23.5C32.1053 23.5 32.4191 23.7822 32.4687 24.1482L32.4756 24.25L32.4756 39.25C32.4756 39.6642 32.1398 40 31.7256 40Z" fill="white"/>
<path d="M26.2325 30.829C25.9402 31.1225 25.4653 31.1235 25.1718 30.8313C24.905 30.5656 24.8799 30.149 25.0971 29.8549L25.1695 29.7706L31.1935 23.7206C31.46 23.453 31.8781 23.4286 32.1722 23.6476L32.2564 23.7206L38.2814 29.7706C38.5737 30.0641 38.5727 30.5389 38.2792 30.8312C38.0124 31.0969 37.5957 31.1203 37.3025 30.9018L37.2186 30.829L31.7247 25.313L26.2325 30.829Z" fill="white"/>
<defs>
<linearGradient id="paint0_linear_255_7212" x1="0.17622" y1="28" x2="63.2477" y2="28.3766" gradientUnits="userSpaceOnUse">
<stop stop-color="#2571EA"/>
<stop offset="0.291667" stop-color="#7185D0"/>
<stop offset="0.793169" stop-color="#F5A8A4"/>
</linearGradient>
</defs>
</svg>
