<svg width="625" height="37" viewBox="0 0 625 37" fill="none" xmlns="http://www.w3.org/2000/svg">
<path d="M0.584 19.104C0.584 15.776 1.304 12.816 2.744 10.224C4.184 7.6 6.184 5.568 8.744 4.128C11.336 2.656 14.264 1.92 17.528 1.92C21.528 1.92 24.952 2.976 27.8 5.088C30.648 7.2 32.552 10.08 33.512 13.728H24.488C23.816 12.32 22.856 11.248 21.608 10.512C20.392 9.776 19 9.408 17.432 9.408C14.904 9.408 12.856 10.288 11.288 12.048C9.72 13.808 8.936 16.16 8.936 19.104C8.936 22.048 9.72 24.4 11.288 26.16C12.856 27.92 14.904 28.8 17.432 28.8C19 28.8 20.392 28.432 21.608 27.696C22.856 26.96 23.816 25.888 24.488 24.48H33.512C32.552 28.128 30.648 31.008 27.8 33.12C24.952 35.2 21.528 36.24 17.528 36.24C14.264 36.24 11.336 35.52 8.744 34.08C6.184 32.608 4.184 30.576 2.744 27.984C1.304 25.392 0.584 22.432 0.584 19.104ZM46.7465 13.68C47.7065 12.208 48.9065 11.056 50.3465 10.224C51.7865 9.36 53.3865 8.928 55.1465 8.928V17.616H52.8905C50.8425 17.616 49.3065 18.064 48.2825 18.96C47.2585 19.824 46.7465 21.36 46.7465 23.568V36H38.5385V9.216H46.7465V13.68ZM84.3177 22.176C84.3177 22.944 84.2698 23.744 84.1738 24.576H65.5978C65.7258 26.24 66.2538 27.52 67.1818 28.416C68.1418 29.28 69.3098 29.712 70.6858 29.712C72.7338 29.712 74.1578 28.848 74.9578 27.12H83.6938C83.2458 28.88 82.4298 30.464 81.2458 31.872C80.0938 33.28 78.6378 34.384 76.8778 35.184C75.1178 35.984 73.1498 36.384 70.9738 36.384C68.3498 36.384 66.0138 35.824 63.9658 34.704C61.9178 33.584 60.3178 31.984 59.1658 29.904C58.0138 27.824 57.4378 25.392 57.4378 22.608C57.4378 19.824 57.9978 17.392 59.1178 15.312C60.2698 13.232 61.8698 11.632 63.9178 10.512C65.9658 9.392 68.3178 8.832 70.9738 8.832C73.5658 8.832 75.8698 9.376 77.8858 10.464C79.9018 11.552 81.4698 13.104 82.5898 15.12C83.7418 17.136 84.3177 19.488 84.3177 22.176ZM75.9178 20.016C75.9178 18.608 75.4378 17.488 74.4778 16.656C73.5178 15.824 72.3178 15.408 70.8778 15.408C69.5018 15.408 68.3338 15.808 67.3738 16.608C66.4458 17.408 65.8698 18.544 65.6458 20.016H75.9178ZM87.0159 22.56C87.0159 19.808 87.5279 17.392 88.5519 15.312C89.6079 13.232 91.0319 11.632 92.8239 10.512C94.6159 9.392 96.6159 8.832 98.8239 8.832C100.712 8.832 102.36 9.216 103.768 9.984C105.208 10.752 106.312 11.76 107.08 13.008V9.216H115.288V36H107.08V32.208C106.28 33.456 105.16 34.464 103.72 35.232C102.312 36 100.664 36.384 98.7759 36.384C96.5999 36.384 94.6159 35.824 92.8239 34.704C91.0319 33.552 89.6079 31.936 88.5519 29.856C87.5279 27.744 87.0159 25.312 87.0159 22.56ZM107.08 22.608C107.08 20.56 106.504 18.944 105.352 17.76C104.232 16.576 102.856 15.984 101.224 15.984C99.5919 15.984 98.1999 16.576 97.0479 17.76C95.9279 18.912 95.3679 20.512 95.3679 22.56C95.3679 24.608 95.9279 26.24 97.0479 27.456C98.1999 28.64 99.5919 29.232 101.224 29.232C102.856 29.232 104.232 28.64 105.352 27.456C106.504 26.272 107.08 24.656 107.08 22.608ZM136.154 29.04V36H131.978C129.002 36 126.682 35.28 125.018 33.84C123.354 32.368 122.522 29.984 122.522 26.688V16.032H119.258V9.216H122.522V2.688H130.73V9.216H136.106V16.032H130.73V26.784C130.73 27.584 130.922 28.16 131.306 28.512C131.69 28.864 132.33 29.04 133.226 29.04H136.154ZM165.974 22.176C165.974 22.944 165.926 23.744 165.83 24.576H147.254C147.382 26.24 147.91 27.52 148.838 28.416C149.798 29.28 150.966 29.712 152.342 29.712C154.39 29.712 155.814 28.848 156.614 27.12H165.35C164.902 28.88 164.086 30.464 162.902 31.872C161.75 33.28 160.294 34.384 158.534 35.184C156.774 35.984 154.806 36.384 152.63 36.384C150.006 36.384 147.67 35.824 145.622 34.704C143.574 33.584 141.974 31.984 140.822 29.904C139.67 27.824 139.094 25.392 139.094 22.608C139.094 19.824 139.654 17.392 140.774 15.312C141.926 13.232 143.526 11.632 145.574 10.512C147.622 9.392 149.974 8.832 152.63 8.832C155.222 8.832 157.526 9.376 159.542 10.464C161.558 11.552 163.126 13.104 164.246 15.12C165.398 17.136 165.974 19.488 165.974 22.176ZM157.574 20.016C157.574 18.608 157.094 17.488 156.134 16.656C155.174 15.824 153.974 15.408 152.534 15.408C151.158 15.408 149.99 15.808 149.03 16.608C148.102 17.408 147.526 18.544 147.302 20.016H157.574ZM178.844 22.56C178.844 19.808 179.356 17.392 180.38 15.312C181.436 13.232 182.86 11.632 184.652 10.512C186.444 9.392 188.444 8.832 190.652 8.832C192.54 8.832 194.188 9.216 195.596 9.984C197.036 10.752 198.14 11.76 198.908 13.008V9.216H207.116V36H198.908V32.208C198.108 33.456 196.988 34.464 195.548 35.232C194.14 36 192.492 36.384 190.604 36.384C188.428 36.384 186.444 35.824 184.652 34.704C182.86 33.552 181.436 31.936 180.38 29.856C179.356 27.744 178.844 25.312 178.844 22.56ZM198.908 22.608C198.908 20.56 198.332 18.944 197.18 17.76C196.06 16.576 194.684 15.984 193.052 15.984C191.42 15.984 190.028 16.576 188.876 17.76C187.756 18.912 187.196 20.512 187.196 22.56C187.196 24.608 187.756 26.24 188.876 27.456C190.028 28.64 191.42 29.232 193.052 29.232C194.684 29.232 196.06 28.64 197.18 27.456C198.332 26.272 198.908 24.656 198.908 22.608ZM229.374 8.928C232.51 8.928 235.006 9.952 236.862 12C238.75 14.016 239.694 16.8 239.694 20.352V36H231.534V21.456C231.534 19.664 231.07 18.272 230.142 17.28C229.214 16.288 227.966 15.792 226.398 15.792C224.83 15.792 223.582 16.288 222.654 17.28C221.726 18.272 221.262 19.664 221.262 21.456V36H213.054V9.216H221.262V12.768C222.094 11.584 223.214 10.656 224.622 9.984C226.03 9.28 227.614 8.928 229.374 8.928ZM243.766 22.56C243.766 19.808 244.278 17.392 245.302 15.312C246.358 13.232 247.782 11.632 249.574 10.512C251.366 9.392 253.366 8.832 255.574 8.832C257.334 8.832 258.934 9.2 260.374 9.936C261.846 10.672 262.998 11.664 263.83 12.912V0.48H272.038V36H263.83V32.16C263.062 33.44 261.958 34.464 260.518 35.232C259.11 36 257.462 36.384 255.574 36.384C253.366 36.384 251.366 35.824 249.574 34.704C247.782 33.552 246.358 31.936 245.302 29.856C244.278 27.744 243.766 25.312 243.766 22.56ZM263.83 22.608C263.83 20.56 263.254 18.944 262.102 17.76C260.982 16.576 259.606 15.984 257.974 15.984C256.342 15.984 254.95 16.576 253.798 17.76C252.678 18.912 252.118 20.512 252.118 22.56C252.118 24.608 252.678 26.24 253.798 27.456C254.95 28.64 256.342 29.232 257.974 29.232C259.606 29.232 260.982 28.64 262.102 27.456C263.254 26.272 263.83 24.656 263.83 22.608ZM300.34 36.336C297.876 36.336 295.668 35.936 293.716 35.136C291.764 34.336 290.196 33.152 289.012 31.584C287.86 30.016 287.252 28.128 287.188 25.92H295.924C296.052 27.168 296.484 28.128 297.22 28.8C297.956 29.44 298.916 29.76 300.1 29.76C301.316 29.76 302.276 29.488 302.98 28.944C303.684 28.368 304.036 27.584 304.036 26.592C304.036 25.76 303.748 25.072 303.172 24.528C302.628 23.984 301.94 23.536 301.108 23.184C300.308 22.832 299.156 22.432 297.652 21.984C295.476 21.312 293.7 20.64 292.324 19.968C290.948 19.296 289.764 18.304 288.772 16.992C287.78 15.68 287.284 13.968 287.284 11.856C287.284 8.72 288.42 6.272 290.692 4.512C292.964 2.72 295.924 1.824 299.572 1.824C303.284 1.824 306.276 2.72 308.548 4.512C310.82 6.272 312.036 8.736 312.196 11.904H303.316C303.252 10.816 302.852 9.968 302.116 9.36C301.38 8.72 300.436 8.4 299.284 8.4C298.292 8.4 297.492 8.672 296.884 9.216C296.276 9.728 295.972 10.48 295.972 11.472C295.972 12.56 296.484 13.408 297.508 14.016C298.532 14.624 300.132 15.28 302.308 15.984C304.484 16.72 306.244 17.424 307.588 18.096C308.964 18.768 310.148 19.744 311.14 21.024C312.132 22.304 312.628 23.952 312.628 25.968C312.628 27.888 312.132 29.632 311.14 31.2C310.18 32.768 308.772 34.016 306.916 34.944C305.06 35.872 302.868 36.336 300.34 36.336ZM342.927 22.176C342.927 22.944 342.879 23.744 342.783 24.576H324.207C324.335 26.24 324.863 27.52 325.791 28.416C326.751 29.28 327.919 29.712 329.295 29.712C331.343 29.712 332.767 28.848 333.567 27.12H342.303C341.855 28.88 341.039 30.464 339.855 31.872C338.703 33.28 337.247 34.384 335.487 35.184C333.727 35.984 331.759 36.384 329.583 36.384C326.959 36.384 324.623 35.824 322.575 34.704C320.527 33.584 318.927 31.984 317.775 29.904C316.623 27.824 316.047 25.392 316.047 22.608C316.047 19.824 316.607 17.392 317.727 15.312C318.879 13.232 320.479 11.632 322.527 10.512C324.575 9.392 326.927 8.832 329.583 8.832C332.175 8.832 334.479 9.376 336.495 10.464C338.511 11.552 340.079 13.104 341.199 15.12C342.351 17.136 342.927 19.488 342.927 22.176ZM334.527 20.016C334.527 18.608 334.047 17.488 333.087 16.656C332.127 15.824 330.927 15.408 329.487 15.408C328.111 15.408 326.943 15.808 325.983 16.608C325.055 17.408 324.479 18.544 324.255 20.016H334.527ZM355.465 0.48V36H347.257V0.48H355.465ZM369.622 0.48V36H361.414V0.48H369.622ZM414.638 2.304L402.974 24.864V36H394.766V24.864L383.102 2.304H392.414L398.942 16.416L405.422 2.304H414.638ZM430.137 36.384C427.513 36.384 425.145 35.824 423.033 34.704C420.953 33.584 419.305 31.984 418.089 29.904C416.905 27.824 416.313 25.392 416.313 22.608C416.313 19.856 416.921 17.44 418.137 15.36C419.353 13.248 421.017 11.632 423.129 10.512C425.241 9.392 427.609 8.832 430.233 8.832C432.857 8.832 435.225 9.392 437.337 10.512C439.449 11.632 441.113 13.248 442.329 15.36C443.545 17.44 444.153 19.856 444.153 22.608C444.153 25.36 443.529 27.792 442.281 29.904C441.065 31.984 439.385 33.584 437.241 34.704C435.129 35.824 432.761 36.384 430.137 36.384ZM430.137 29.28C431.705 29.28 433.033 28.704 434.121 27.552C435.241 26.4 435.801 24.752 435.801 22.608C435.801 20.464 435.257 18.816 434.169 17.664C433.113 16.512 431.801 15.936 430.233 15.936C428.633 15.936 427.305 16.512 426.249 17.664C425.193 18.784 424.665 20.432 424.665 22.608C424.665 24.752 425.177 26.4 426.201 27.552C427.257 28.704 428.569 29.28 430.137 29.28ZM474.955 9.216V36H466.747V32.352C465.915 33.536 464.779 34.496 463.339 35.232C461.931 35.936 460.363 36.288 458.635 36.288C456.587 36.288 454.779 35.84 453.211 34.944C451.643 34.016 450.427 32.688 449.563 30.96C448.699 29.232 448.267 27.2 448.267 24.864V9.216H456.427V23.76C456.427 25.552 456.891 26.944 457.819 27.936C458.747 28.928 459.995 29.424 461.563 29.424C463.163 29.424 464.427 28.928 465.355 27.936C466.283 26.944 466.747 25.552 466.747 23.76V9.216H474.955ZM489.059 13.68C490.019 12.208 491.219 11.056 492.659 10.224C494.099 9.36 495.699 8.928 497.459 8.928V17.616H495.203C493.155 17.616 491.619 18.064 490.595 18.96C489.571 19.824 489.059 21.36 489.059 23.568V36H480.851V9.216H489.059V13.68ZM541.698 36H533.49L519.762 15.216V36H511.554V2.304H519.762L533.49 23.184V2.304H541.698V36ZM569.584 2.304V8.88H555.856V15.984H566.128V22.368H555.856V36H547.648V2.304H569.584ZM598.138 2.304V8.88H589.21V36H581.002V8.88H572.074V2.304H598.138ZM613.153 36.384C610.817 36.384 608.737 35.984 606.913 35.184C605.089 34.384 603.649 33.296 602.593 31.92C601.537 30.512 600.945 28.944 600.817 27.216H608.929C609.025 28.144 609.457 28.896 610.225 29.472C610.993 30.048 611.937 30.336 613.057 30.336C614.081 30.336 614.865 30.144 615.409 29.76C615.985 29.344 616.273 28.816 616.273 28.176C616.273 27.408 615.873 26.848 615.073 26.496C614.273 26.112 612.977 25.696 611.185 25.248C609.265 24.8 607.665 24.336 606.385 23.856C605.105 23.344 604.001 22.56 603.073 21.504C602.145 20.416 601.681 18.96 601.681 17.136C601.681 15.6 602.097 14.208 602.929 12.96C603.793 11.68 605.041 10.672 606.673 9.936C608.337 9.2 610.305 8.832 612.577 8.832C615.937 8.832 618.577 9.664 620.497 11.328C622.449 12.992 623.569 15.2 623.857 17.952H616.273C616.145 17.024 615.729 16.288 615.025 15.744C614.353 15.2 613.457 14.928 612.337 14.928C611.377 14.928 610.641 15.12 610.129 15.504C609.617 15.856 609.361 16.352 609.361 16.992C609.361 17.76 609.761 18.336 610.561 18.72C611.393 19.104 612.673 19.488 614.401 19.872C616.385 20.384 618.001 20.896 619.249 21.408C620.497 21.888 621.585 22.688 622.513 23.808C623.473 24.896 623.969 26.368 624.001 28.224C624.001 29.792 623.553 31.2 622.657 32.448C621.793 33.664 620.529 34.624 618.865 35.328C617.233 36.032 615.329 36.384 613.153 36.384Z" fill="#060707"/>
</svg>
