<svg width="365" height="49" viewBox="0 0 365 49" fill="none" xmlns="http://www.w3.org/2000/svg">
<path d="M9.184 8.88V15.696H20.176V22.032H9.184V29.424H21.616V36H0.976V2.304H21.616V8.88H9.184ZM42.7848 36L37.6488 28.56L33.3288 36H24.4488L33.2808 22.32L24.2088 9.216H33.4248L38.5608 16.608L42.8808 9.216H51.7608L42.7848 22.704L52.0008 36H42.7848ZM63.3715 13.008C64.1715 11.76 65.2755 10.752 66.6835 9.984C68.0915 9.216 69.7395 8.832 71.6275 8.832C73.8355 8.832 75.8355 9.392 77.6275 10.512C79.4195 11.632 80.8275 13.232 81.8515 15.312C82.9075 17.392 83.4355 19.808 83.4355 22.56C83.4355 25.312 82.9075 27.744 81.8515 29.856C80.8275 31.936 79.4195 33.552 77.6275 34.704C75.8355 35.824 73.8355 36.384 71.6275 36.384C69.7715 36.384 68.1235 36 66.6835 35.232C65.2755 34.464 64.1715 33.472 63.3715 32.256V48.768H55.1635V9.216H63.3715V13.008ZM75.0835 22.56C75.0835 20.512 74.5075 18.912 73.3555 17.76C72.2355 16.576 70.8435 15.984 69.1795 15.984C67.5475 15.984 66.1555 16.576 65.0035 17.76C63.8835 18.944 63.3235 20.56 63.3235 22.608C63.3235 24.656 63.8835 26.272 65.0035 27.456C66.1555 28.64 67.5475 29.232 69.1795 29.232C70.8115 29.232 72.2035 28.64 73.3555 27.456C74.5075 26.24 75.0835 24.608 75.0835 22.56ZM95.9496 0.48V36H87.7416V0.48H95.9496ZM114.09 36.384C111.466 36.384 109.098 35.824 106.986 34.704C104.906 33.584 103.258 31.984 102.042 29.904C100.858 27.824 100.266 25.392 100.266 22.608C100.266 19.856 100.874 17.44 102.09 15.36C103.306 13.248 104.97 11.632 107.082 10.512C109.194 9.392 111.562 8.832 114.186 8.832C116.81 8.832 119.178 9.392 121.29 10.512C123.402 11.632 125.066 13.248 126.282 15.36C127.498 17.44 128.106 19.856 128.106 22.608C128.106 25.36 127.482 27.792 126.234 29.904C125.018 31.984 123.338 33.584 121.194 34.704C119.082 35.824 116.714 36.384 114.09 36.384ZM114.09 29.28C115.658 29.28 116.986 28.704 118.074 27.552C119.194 26.4 119.754 24.752 119.754 22.608C119.754 20.464 119.21 18.816 118.122 17.664C117.066 16.512 115.754 15.936 114.186 15.936C112.586 15.936 111.258 16.512 110.202 17.664C109.146 18.784 108.618 20.432 108.618 22.608C108.618 24.752 109.13 26.4 110.154 27.552C111.21 28.704 112.522 29.28 114.09 29.28ZM140.668 13.68C141.628 12.208 142.828 11.056 144.268 10.224C145.708 9.36 147.308 8.928 149.068 8.928V17.616H146.812C144.764 17.616 143.228 18.064 142.204 18.96C141.18 19.824 140.668 21.36 140.668 23.568V36H132.46V9.216H140.668V13.68ZM178.24 22.176C178.24 22.944 178.192 23.744 178.096 24.576H159.52C159.648 26.24 160.176 27.52 161.104 28.416C162.064 29.28 163.232 29.712 164.608 29.712C166.656 29.712 168.08 28.848 168.88 27.12H177.616C177.168 28.88 176.352 30.464 175.168 31.872C174.016 33.28 172.56 34.384 170.8 35.184C169.04 35.984 167.072 36.384 164.896 36.384C162.272 36.384 159.936 35.824 157.888 34.704C155.84 33.584 154.24 31.984 153.088 29.904C151.936 27.824 151.36 25.392 151.36 22.608C151.36 19.824 151.92 17.392 153.04 15.312C154.192 13.232 155.792 11.632 157.84 10.512C159.888 9.392 162.24 8.832 164.896 8.832C167.488 8.832 169.792 9.376 171.808 10.464C173.824 11.552 175.392 13.104 176.512 15.12C177.664 17.136 178.24 19.488 178.24 22.176ZM169.84 20.016C169.84 18.608 169.36 17.488 168.4 16.656C167.44 15.824 166.24 15.408 164.8 15.408C163.424 15.408 162.256 15.808 161.296 16.608C160.368 17.408 159.792 18.544 159.568 20.016H169.84ZM222.886 36H214.678L200.95 15.216V36H192.742V2.304H200.95L214.678 23.184V2.304H222.886V36ZM250.771 2.304V8.88H237.043V15.984H247.315V22.368H237.043V36H228.835V2.304H250.771ZM279.325 2.304V8.88H270.397V36H262.189V8.88H253.261V2.304H279.325ZM314.593 30.048H302.017L300.001 36H291.409L303.601 2.304H313.105L325.297 36H316.609L314.593 30.048ZM312.481 23.712L308.305 11.376L304.177 23.712H312.481ZM337.215 13.68C338.175 12.208 339.375 11.056 340.815 10.224C342.255 9.36 343.855 8.928 345.615 8.928V17.616H343.359C341.311 17.616 339.775 18.064 338.751 18.96C337.727 19.824 337.215 21.36 337.215 23.568V36H329.007V9.216H337.215V13.68ZM364.467 29.04V36H360.291C357.315 36 354.995 35.28 353.331 33.84C351.667 32.368 350.835 29.984 350.835 26.688V16.032H347.571V9.216H350.835V2.688H359.043V9.216H364.419V16.032H359.043V26.784C359.043 27.584 359.235 28.16 359.619 28.512C360.003 28.864 360.643 29.04 361.539 29.04H364.467Z" fill="#060707"/>
</svg>
