<svg width="238" height="60" viewBox="0 0 238 60" fill="none" xmlns="http://www.w3.org/2000/svg">
<rect x="0.5" y="0.5" width="237" height="59" rx="7.5" fill="white"/>
<path d="M76.0305 38.8906V30.7304H78.7684L79.1792 27.5494H76.0305V25.5187C76.0305 24.598 76.2852 23.9705 77.6069 23.9705L79.29 23.9698V21.1245C78.999 21.0867 77.9998 21 76.837 21C74.4087 21 72.7462 22.4822 72.7462 25.2036V27.5494H70V30.7304H72.7462V38.8906H76.0305Z" fill="#2571EA"/>
<path d="M103 24.832V26.64H98.344V29.504H101.912V31.28H98.344V36H96.104V24.832H103ZM104.012 31.536C104.012 30.64 104.188 29.8453 104.54 29.152C104.903 28.4587 105.388 27.9253 105.996 27.552C106.615 27.1787 107.303 26.992 108.06 26.992C108.722 26.992 109.298 27.1253 109.788 27.392C110.29 27.6587 110.69 27.9947 110.988 28.4V27.136H113.244V36H110.988V34.704C110.7 35.12 110.3 35.4667 109.788 35.744C109.287 36.0107 108.706 36.144 108.044 36.144C107.298 36.144 106.615 35.952 105.996 35.568C105.388 35.184 104.903 34.6453 104.54 33.952C104.188 33.248 104.012 32.4427 104.012 31.536ZM110.988 31.568C110.988 31.024 110.882 30.56 110.668 30.176C110.455 29.7813 110.167 29.4827 109.804 29.28C109.442 29.0667 109.052 28.96 108.636 28.96C108.22 28.96 107.836 29.0613 107.484 29.264C107.132 29.4667 106.844 29.7653 106.62 30.16C106.407 30.544 106.3 31.0027 106.3 31.536C106.3 32.0693 106.407 32.5387 106.62 32.944C106.844 33.3387 107.132 33.6427 107.484 33.856C107.847 34.0693 108.231 34.176 108.636 34.176C109.052 34.176 109.442 34.0747 109.804 33.872C110.167 33.6587 110.455 33.36 110.668 32.976C110.882 32.5813 110.988 32.112 110.988 31.568ZM114.856 31.568C114.856 30.6507 115.043 29.8507 115.416 29.168C115.789 28.4747 116.307 27.9413 116.968 27.568C117.629 27.184 118.387 26.992 119.24 26.992C120.339 26.992 121.245 27.2693 121.96 27.824C122.685 28.368 123.171 29.136 123.416 30.128H121C120.872 29.744 120.653 29.4453 120.344 29.232C120.045 29.008 119.672 28.896 119.224 28.896C118.584 28.896 118.077 29.1307 117.704 29.6C117.331 30.0587 117.144 30.7147 117.144 31.568C117.144 32.4107 117.331 33.0667 117.704 33.536C118.077 33.9947 118.584 34.224 119.224 34.224C120.131 34.224 120.723 33.8187 121 33.008H123.416C123.171 33.968 122.685 34.7307 121.96 35.296C121.235 35.8613 120.328 36.144 119.24 36.144C118.387 36.144 117.629 35.9573 116.968 35.584C116.307 35.2 115.789 34.6667 115.416 33.984C115.043 33.2907 114.856 32.4853 114.856 31.568ZM133.297 31.376C133.297 31.696 133.276 31.984 133.233 32.24H126.753C126.806 32.88 127.03 33.3813 127.425 33.744C127.82 34.1067 128.305 34.288 128.881 34.288C129.713 34.288 130.305 33.9307 130.657 33.216H133.073C132.817 34.0693 132.326 34.7733 131.601 35.328C130.876 35.872 129.985 36.144 128.929 36.144C128.076 36.144 127.308 35.9573 126.625 35.584C125.953 35.2 125.425 34.6613 125.041 33.968C124.668 33.2747 124.481 32.4747 124.481 31.568C124.481 30.6507 124.668 29.8453 125.041 29.152C125.414 28.4587 125.937 27.9253 126.609 27.552C127.281 27.1787 128.054 26.992 128.929 26.992C129.772 26.992 130.524 27.1733 131.185 27.536C131.857 27.8987 132.374 28.416 132.737 29.088C133.11 29.7493 133.297 30.512 133.297 31.376ZM130.977 30.736C130.966 30.16 130.758 29.7013 130.353 29.36C129.948 29.008 129.452 28.832 128.865 28.832C128.31 28.832 127.841 29.0027 127.457 29.344C127.084 29.6747 126.854 30.1387 126.769 30.736H130.977ZM137.172 28.432C137.46 28.0053 137.855 27.6587 138.356 27.392C138.868 27.1253 139.449 26.992 140.1 26.992C140.857 26.992 141.54 27.1787 142.148 27.552C142.767 27.9253 143.252 28.4587 143.604 29.152C143.967 29.8347 144.148 30.6293 144.148 31.536C144.148 32.4427 143.967 33.248 143.604 33.952C143.252 34.6453 142.767 35.184 142.148 35.568C141.54 35.952 140.857 36.144 140.1 36.144C139.439 36.144 138.857 36.016 138.356 35.76C137.865 35.4933 137.471 35.152 137.172 34.736V36H134.932V24.16H137.172V28.432ZM141.86 31.536C141.86 31.0027 141.748 30.544 141.524 30.16C141.311 29.7653 141.023 29.4667 140.66 29.264C140.308 29.0613 139.924 28.96 139.508 28.96C139.103 28.96 138.719 29.0667 138.356 29.28C138.004 29.4827 137.716 29.7813 137.492 30.176C137.279 30.5707 137.172 31.0347 137.172 31.568C137.172 32.1013 137.279 32.5653 137.492 32.96C137.716 33.3547 138.004 33.6587 138.356 33.872C138.719 34.0747 139.103 34.176 139.508 34.176C139.924 34.176 140.308 34.0693 140.66 33.856C141.023 33.6427 141.311 33.3387 141.524 32.944C141.748 32.5493 141.86 32.08 141.86 31.536ZM149.712 36.144C148.859 36.144 148.091 35.9573 147.408 35.584C146.725 35.2 146.187 34.6613 145.792 33.968C145.408 33.2747 145.216 32.4747 145.216 31.568C145.216 30.6613 145.413 29.8613 145.808 29.168C146.213 28.4747 146.763 27.9413 147.456 27.568C148.149 27.184 148.923 26.992 149.776 26.992C150.629 26.992 151.403 27.184 152.096 27.568C152.789 27.9413 153.333 28.4747 153.728 29.168C154.133 29.8613 154.336 30.6613 154.336 31.568C154.336 32.4747 154.128 33.2747 153.712 33.968C153.307 34.6613 152.752 35.2 152.048 35.584C151.355 35.9573 150.576 36.144 149.712 36.144ZM149.712 34.192C150.117 34.192 150.496 34.096 150.848 33.904C151.211 33.7013 151.499 33.4027 151.712 33.008C151.925 32.6133 152.032 32.1333 152.032 31.568C152.032 30.7253 151.808 30.08 151.36 29.632C150.923 29.1733 150.384 28.944 149.744 28.944C149.104 28.944 148.565 29.1733 148.128 29.632C147.701 30.08 147.488 30.7253 147.488 31.568C147.488 32.4107 147.696 33.0613 148.112 33.52C148.539 33.968 149.072 34.192 149.712 34.192ZM159.915 36.144C159.062 36.144 158.294 35.9573 157.611 35.584C156.928 35.2 156.39 34.6613 155.995 33.968C155.611 33.2747 155.419 32.4747 155.419 31.568C155.419 30.6613 155.616 29.8613 156.011 29.168C156.416 28.4747 156.966 27.9413 157.659 27.568C158.352 27.184 159.126 26.992 159.979 26.992C160.832 26.992 161.606 27.184 162.299 27.568C162.992 27.9413 163.536 28.4747 163.931 29.168C164.336 29.8613 164.539 30.6613 164.539 31.568C164.539 32.4747 164.331 33.2747 163.915 33.968C163.51 34.6613 162.955 35.2 162.251 35.584C161.558 35.9573 160.779 36.144 159.915 36.144ZM159.915 34.192C160.32 34.192 160.699 34.096 161.051 33.904C161.414 33.7013 161.702 33.4027 161.915 33.008C162.128 32.6133 162.235 32.1333 162.235 31.568C162.235 30.7253 162.011 30.08 161.563 29.632C161.126 29.1733 160.587 28.944 159.947 28.944C159.307 28.944 158.768 29.1733 158.331 29.632C157.904 30.08 157.691 30.7253 157.691 31.568C157.691 32.4107 157.899 33.0613 158.315 33.52C158.742 33.968 159.275 34.192 159.915 34.192ZM171.43 36L168.422 32.224V36H166.182V24.16H168.422V30.896L171.398 27.136H174.31L170.406 31.584L174.342 36H171.43Z" fill="#060707"/>
<rect x="0.5" y="0.5" width="237" height="59" rx="7.5" stroke="#2571EA"/>
</svg>
