<svg width="238" height="60" viewBox="0 0 238 60" fill="none" xmlns="http://www.w3.org/2000/svg">
<rect x="0.5" y="0.5" width="237" height="59" rx="7.5" fill="white"/>
<path d="M78 29.5C78 24.8131 81.8131 21 86.5 21C88.3929 21 90.1845 21.609 91.6813 22.7612L89.706 25.3271C88.7806 24.6147 87.6719 24.2381 86.5 24.2381C83.5986 24.2381 81.2381 26.5986 81.2381 29.5C81.2381 32.4014 83.5986 34.7619 86.5 34.7619C88.8369 34.7619 90.8227 33.2309 91.5071 31.119H86.5V27.881H95V29.5C95 34.1869 91.1869 38 86.5 38C81.8131 38 78 34.1869 78 29.5Z" fill="#2571EA"/>
<path d="M114.88 28.192C114.624 27.7227 114.272 27.3653 113.824 27.12C113.376 26.8747 112.853 26.752 112.256 26.752C111.595 26.752 111.008 26.9013 110.496 27.2C109.984 27.4987 109.584 27.9253 109.296 28.48C109.008 29.0347 108.864 29.6747 108.864 30.4C108.864 31.1467 109.008 31.7973 109.296 32.352C109.595 32.9067 110.005 33.3333 110.528 33.632C111.051 33.9307 111.659 34.08 112.352 34.08C113.205 34.08 113.904 33.856 114.448 33.408C114.992 32.9493 115.349 32.3147 115.52 31.504H111.68V29.792H117.728V31.744C117.579 32.5227 117.259 33.2427 116.768 33.904C116.277 34.5653 115.643 35.0987 114.864 35.504C114.096 35.8987 113.232 36.096 112.272 36.096C111.195 36.096 110.219 35.856 109.344 35.376C108.48 34.8853 107.797 34.208 107.296 33.344C106.805 32.48 106.56 31.4987 106.56 30.4C106.56 29.3013 106.805 28.32 107.296 27.456C107.797 26.5813 108.48 25.904 109.344 25.424C110.219 24.9333 111.189 24.688 112.256 24.688C113.515 24.688 114.608 24.9973 115.536 25.616C116.464 26.224 117.104 27.0827 117.456 28.192H114.88ZM123.321 36.144C122.468 36.144 121.7 35.9573 121.017 35.584C120.335 35.2 119.796 34.6613 119.401 33.968C119.017 33.2747 118.825 32.4747 118.825 31.568C118.825 30.6613 119.023 29.8613 119.417 29.168C119.823 28.4747 120.372 27.9413 121.065 27.568C121.759 27.184 122.532 26.992 123.385 26.992C124.239 26.992 125.012 27.184 125.705 27.568C126.399 27.9413 126.943 28.4747 127.337 29.168C127.743 29.8613 127.945 30.6613 127.945 31.568C127.945 32.4747 127.737 33.2747 127.321 33.968C126.916 34.6613 126.361 35.2 125.657 35.584C124.964 35.9573 124.185 36.144 123.321 36.144ZM123.321 34.192C123.727 34.192 124.105 34.096 124.457 33.904C124.82 33.7013 125.108 33.4027 125.321 33.008C125.535 32.6133 125.641 32.1333 125.641 31.568C125.641 30.7253 125.417 30.08 124.969 29.632C124.532 29.1733 123.993 28.944 123.353 28.944C122.713 28.944 122.175 29.1733 121.737 29.632C121.311 30.08 121.097 30.7253 121.097 31.568C121.097 32.4107 121.305 33.0613 121.721 33.52C122.148 33.968 122.681 34.192 123.321 34.192ZM133.524 36.144C132.671 36.144 131.903 35.9573 131.22 35.584C130.538 35.2 129.999 34.6613 129.604 33.968C129.22 33.2747 129.028 32.4747 129.028 31.568C129.028 30.6613 129.226 29.8613 129.62 29.168C130.026 28.4747 130.575 27.9413 131.268 27.568C131.962 27.184 132.735 26.992 133.588 26.992C134.442 26.992 135.215 27.184 135.908 27.568C136.602 27.9413 137.146 28.4747 137.54 29.168C137.946 29.8613 138.148 30.6613 138.148 31.568C138.148 32.4747 137.94 33.2747 137.524 33.968C137.119 34.6613 136.564 35.2 135.86 35.584C135.167 35.9573 134.388 36.144 133.524 36.144ZM133.524 34.192C133.93 34.192 134.308 34.096 134.66 33.904C135.023 33.7013 135.311 33.4027 135.524 33.008C135.738 32.6133 135.844 32.1333 135.844 31.568C135.844 30.7253 135.62 30.08 135.172 29.632C134.735 29.1733 134.196 28.944 133.556 28.944C132.916 28.944 132.378 29.1733 131.94 29.632C131.514 30.08 131.3 30.7253 131.3 31.568C131.3 32.4107 131.508 33.0613 131.924 33.52C132.351 33.968 132.884 34.192 133.524 34.192ZM143.264 26.992C143.925 26.992 144.506 27.1253 145.008 27.392C145.509 27.648 145.904 27.984 146.192 28.4V27.136H148.448V36.064C148.448 36.8853 148.282 37.616 147.952 38.256C147.621 38.9067 147.125 39.4187 146.464 39.792C145.802 40.176 145.002 40.368 144.064 40.368C142.805 40.368 141.77 40.0747 140.96 39.488C140.16 38.9013 139.706 38.1013 139.6 37.088H141.824C141.941 37.4933 142.192 37.8133 142.576 38.048C142.97 38.2933 143.445 38.416 144 38.416C144.65 38.416 145.178 38.2187 145.584 37.824C145.989 37.44 146.192 36.8533 146.192 36.064V34.688C145.904 35.104 145.504 35.4507 144.992 35.728C144.49 36.0053 143.914 36.144 143.264 36.144C142.517 36.144 141.834 35.952 141.216 35.568C140.597 35.184 140.106 34.6453 139.743 33.952C139.391 33.248 139.215 32.4427 139.215 31.536C139.215 30.64 139.391 29.8453 139.743 29.152C140.106 28.4587 140.592 27.9253 141.2 27.552C141.818 27.1787 142.506 26.992 143.264 26.992ZM146.192 31.568C146.192 31.024 146.085 30.56 145.872 30.176C145.658 29.7813 145.37 29.4827 145.008 29.28C144.645 29.0667 144.256 28.96 143.84 28.96C143.424 28.96 143.04 29.0613 142.688 29.264C142.336 29.4667 142.048 29.7653 141.824 30.16C141.61 30.544 141.504 31.0027 141.504 31.536C141.504 32.0693 141.61 32.5387 141.824 32.944C142.048 33.3387 142.336 33.6427 142.688 33.856C143.05 34.0693 143.434 34.176 143.84 34.176C144.256 34.176 144.645 34.0747 145.008 33.872C145.37 33.6587 145.658 33.36 145.872 32.976C146.085 32.5813 146.192 32.112 146.192 31.568ZM152.875 24.16V36H150.635V24.16H152.875ZM163.328 31.376C163.328 31.696 163.307 31.984 163.264 32.24H156.784C156.838 32.88 157.062 33.3813 157.456 33.744C157.851 34.1067 158.336 34.288 158.912 34.288C159.744 34.288 160.336 33.9307 160.688 33.216H163.104C162.848 34.0693 162.358 34.7733 161.632 35.328C160.907 35.872 160.016 36.144 158.96 36.144C158.107 36.144 157.339 35.9573 156.656 35.584C155.984 35.2 155.456 34.6613 155.072 33.968C154.699 33.2747 154.512 32.4747 154.512 31.568C154.512 30.6507 154.699 29.8453 155.072 29.152C155.446 28.4587 155.968 27.9253 156.64 27.552C157.312 27.1787 158.086 26.992 158.96 26.992C159.803 26.992 160.555 27.1733 161.216 27.536C161.888 27.8987 162.406 28.416 162.768 29.088C163.142 29.7493 163.328 30.512 163.328 31.376ZM161.008 30.736C160.998 30.16 160.79 29.7013 160.384 29.36C159.979 29.008 159.483 28.832 158.896 28.832C158.342 28.832 157.872 29.0027 157.488 29.344C157.115 29.6747 156.886 30.1387 156.8 30.736H161.008Z" fill="#060707"/>
<rect x="0.5" y="0.5" width="237" height="59" rx="7.5" stroke="#2571EA"/>
</svg>
