<svg width="96" height="96" viewBox="0 0 96 96" fill="none" xmlns="http://www.w3.org/2000/svg">
<circle opacity="0.1" cx="48" cy="48" r="48" fill="#2571EA"/>
<path d="M60.3825 32H35.6193C33.6232 32 32 33.6228 32 35.6215V58.3826C32 60.3789 33.6232 62 35.6193 62H60.3824C62.3785 62 64 60.3789 64 58.3826V35.6215C64.0001 33.6228 62.3786 32 60.3825 32ZM52.6929 37.3858C54.6232 37.3858 56.1887 38.9515 56.1887 40.8819C56.1887 42.8123 54.6231 44.378 52.6929 44.378C50.762 44.378 49.1971 42.8123 49.1971 40.8819C49.1971 38.9515 50.762 37.3858 52.6929 37.3858ZM59.2475 58.6541H47.9997H37.2531C36.2876 58.6541 35.8576 57.9555 36.2929 57.0936L42.2922 45.2096C42.7269 44.3478 43.5554 44.2709 44.1421 45.0376L50.1747 52.922C50.7614 53.6889 51.7869 53.7541 52.4656 53.0671L53.9414 51.5725C54.6196 50.8855 55.6188 50.9705 56.1723 51.7613L59.9938 57.2206C60.5462 58.0125 60.213 58.6541 59.2475 58.6541Z" fill="#2571EA"/>
</svg>
