<svg width="96" height="96" viewBox="0 0 96 96" fill="none" xmlns="http://www.w3.org/2000/svg">
<circle opacity="0.1" cx="48" cy="48" r="48" fill="#2571EA"/>
<path d="M42 34C41.4696 34 40.9609 34.2107 40.5858 34.5858C40.2107 34.9609 40 35.4696 40 36C40 36.5304 40.2107 37.0391 40.5858 37.4142C40.9609 37.7893 41.4696 38 42 38H54C54.5304 38 55.0392 37.7893 55.4142 37.4142C55.7892 37.0391 56 36.5304 56 36C56 35.4696 55.7892 34.9609 55.4142 34.5858C55.0392 34.2107 54.5304 34 54 34H42ZM36 42C36 41.4696 36.2107 40.9609 36.5858 40.5858C36.9609 40.2107 37.4696 40 38 40H58C58.5304 40 59.0392 40.2107 59.4142 40.5858C59.7892 40.9609 60 41.4696 60 42C60 42.5304 59.7892 43.0391 59.4142 43.4142C59.0392 43.7893 58.5304 44 58 44H38C37.4696 44 36.9609 43.7893 36.5858 43.4142C36.2107 43.0391 36 42.5304 36 42ZM32 50C32 48.9392 32.4214 47.9217 33.1716 47.1716C33.9217 46.4214 34.9391 46 36 46H60C61.0608 46 62.0782 46.4214 62.8284 47.1716C63.5786 47.9217 64 48.9392 64 50V58C64 59.0608 63.5786 60.0782 62.8284 60.8284C62.0782 61.5786 61.0608 62 60 62H36C34.9391 62 33.9217 61.5786 33.1716 60.8284C32.4214 60.0782 32 59.0608 32 58V50Z" fill="#2571EA"/>
</svg>
