<svg width="96" height="96" viewBox="0 0 96 96" fill="none" xmlns="http://www.w3.org/2000/svg">
<circle opacity="0.1" cx="48" cy="48" r="48" fill="#2571EA"/>
<path fill-rule="evenodd" clip-rule="evenodd" d="M66 59.3214V56.2857H59.9286C56.5808 56.2857 53.8571 53.5621 53.8571 50.2143C53.8571 46.8665 56.5808 44.1429 59.9286 44.1429H66V41.1071C66 39.4326 64.6376 38.0714 62.9643 38.0714H36.8571C36.1881 38.0714 35.6429 37.5274 35.6429 36.8571C35.6429 36.1869 36.1881 35.6429 36.8571 35.6429H59.3214C60.3281 35.6429 61.1429 34.8269 61.1429 33.8214C61.1429 32.816 60.3281 32 59.3214 32H36.8571C34.1784 32 32 34.1784 32 36.8571V57.5C32 60.1787 34.1784 62.3571 36.8571 62.3571H62.9643C64.6376 62.3571 66 60.9959 66 59.3214ZM59.9285 53.8572H65.9999V46.5715H59.9285C57.9164 46.5715 56.2856 48.2023 56.2856 50.2144C56.2856 52.2265 57.9164 53.8572 59.9285 53.8572Z" fill="#2571EA"/>
</svg>
