<svg width="327" height="35" viewBox="0 0 327 35" fill="none" xmlns="http://www.w3.org/2000/svg">
<path d="M14.232 3.664V19.344C14.232 21.52 13.6027 23.216 12.344 24.432C11.0853 25.6267 9.4 26.224 7.288 26.224C5.15467 26.224 3.42667 25.6053 2.104 24.368C0.802667 23.1307 0.152 21.4027 0.152 19.184H4.632C4.65333 20.144 4.87733 20.8907 5.304 21.424C5.752 21.9573 6.392 22.224 7.224 22.224C8.03467 22.224 8.65333 21.968 9.08 21.456C9.50667 20.944 9.72 20.24 9.72 19.344V3.664H14.232ZM27.33 26.288C25.6233 26.288 24.0873 25.9147 22.722 25.168C21.3567 24.4 20.2793 23.3227 19.49 21.936C18.722 20.5493 18.338 18.9493 18.338 17.136C18.338 15.3227 18.7327 13.7227 19.522 12.336C20.3327 10.9493 21.4313 9.88267 22.818 9.136C24.2047 8.368 25.7513 7.984 27.458 7.984C29.1647 7.984 30.7113 8.368 32.098 9.136C33.4847 9.88267 34.5727 10.9493 35.362 12.336C36.1727 13.7227 36.578 15.3227 36.578 17.136C36.578 18.9493 36.162 20.5493 35.33 21.936C34.5193 23.3227 33.41 24.4 32.002 25.168C30.6153 25.9147 29.058 26.288 27.33 26.288ZM27.33 22.384C28.1407 22.384 28.898 22.192 29.602 21.808C30.3273 21.4027 30.9033 20.8053 31.33 20.016C31.7567 19.2267 31.97 18.2667 31.97 17.136C31.97 15.4507 31.522 14.16 30.626 13.264C29.7513 12.3467 28.674 11.888 27.394 11.888C26.114 11.888 25.0367 12.3467 24.162 13.264C23.3087 14.16 22.882 15.4507 22.882 17.136C22.882 18.8213 23.298 20.1227 24.13 21.04C24.9833 21.936 26.05 22.384 27.33 22.384ZM42.1363 6.16C41.3469 6.16 40.6856 5.91467 40.1523 5.424C39.6403 4.912 39.3843 4.28267 39.3843 3.536C39.3843 2.78933 39.6403 2.17067 40.1523 1.68C40.6856 1.168 41.3469 0.911999 42.1363 0.911999C42.9256 0.911999 43.5763 1.168 44.0883 1.68C44.6216 2.17067 44.8883 2.78933 44.8883 3.536C44.8883 4.28267 44.6216 4.912 44.0883 5.424C43.5763 5.91467 42.9256 6.16 42.1363 6.16ZM44.3443 8.272V26H39.8643V8.272H44.3443ZM58.5945 8.016C60.7065 8.016 62.4132 8.688 63.7145 10.032C65.0158 11.3547 65.6665 13.2107 65.6665 15.6V26H61.1865V16.208C61.1865 14.8 60.8345 13.7227 60.1305 12.976C59.4265 12.208 58.4665 11.824 57.2505 11.824C56.0132 11.824 55.0318 12.208 54.3065 12.976C53.6025 13.7227 53.2505 14.8 53.2505 16.208V26H48.7705V8.272H53.2505V10.48C53.8478 9.712 54.6052 9.11467 55.5225 8.688C56.4612 8.24 57.4852 8.016 58.5945 8.016ZM85.4238 26.288C83.7171 26.288 82.1811 25.9147 80.8158 25.168C79.4504 24.4 78.3731 23.3227 77.5838 21.936C76.8158 20.5493 76.4318 18.9493 76.4318 17.136C76.4318 15.3227 76.8264 13.7227 77.6158 12.336C78.4264 10.9493 79.5251 9.88267 80.9118 9.136C82.2984 8.368 83.8451 7.984 85.5518 7.984C87.2584 7.984 88.8051 8.368 90.1918 9.136C91.5784 9.88267 92.6664 10.9493 93.4558 12.336C94.2664 13.7227 94.6718 15.3227 94.6718 17.136C94.6718 18.9493 94.2558 20.5493 93.4237 21.936C92.6131 23.3227 91.5038 24.4 90.0958 25.168C88.7091 25.9147 87.1518 26.288 85.4238 26.288ZM85.4238 22.384C86.2344 22.384 86.9918 22.192 87.6958 21.808C88.4211 21.4027 88.9971 20.8053 89.4238 20.016C89.8504 19.2267 90.0638 18.2667 90.0638 17.136C90.0638 15.4507 89.6158 14.16 88.7198 13.264C87.8451 12.3467 86.7678 11.888 85.4878 11.888C84.2078 11.888 83.1304 12.3467 82.2558 13.264C81.4024 14.16 80.9758 15.4507 80.9758 17.136C80.9758 18.8213 81.3918 20.1227 82.2238 21.04C83.0771 21.936 84.1438 22.384 85.4238 22.384ZM114.694 8.272V26H110.182V23.76C109.606 24.528 108.849 25.136 107.91 25.584C106.993 26.0107 105.99 26.224 104.902 26.224C103.515 26.224 102.289 25.936 101.222 25.36C100.155 24.7627 99.3127 23.8987 98.694 22.768C98.0967 21.616 97.798 20.2507 97.798 18.672V8.272H102.278V18.032C102.278 19.44 102.63 20.528 103.334 21.296C104.038 22.0427 104.998 22.416 106.214 22.416C107.451 22.416 108.422 22.0427 109.126 21.296C109.83 20.528 110.182 19.44 110.182 18.032V8.272H114.694ZM123.594 11.024C124.17 10.0853 124.917 9.34933 125.834 8.816C126.773 8.28267 127.84 8.016 129.034 8.016V12.72H127.85C126.442 12.72 125.376 13.0507 124.65 13.712C123.946 14.3733 123.594 15.5253 123.594 17.168V26H119.114V8.272H123.594V11.024ZM138.525 17.136C138.525 15.3013 138.898 13.7013 139.645 12.336C140.391 10.9493 141.426 9.88267 142.749 9.136C144.071 8.368 145.586 7.984 147.293 7.984C149.49 7.984 151.303 8.53867 152.733 9.648C154.183 10.736 155.154 12.272 155.645 14.256H150.813C150.557 13.488 150.119 12.8907 149.501 12.464C148.903 12.016 148.157 11.792 147.261 11.792C145.981 11.792 144.967 12.2613 144.221 13.2C143.474 14.1173 143.101 15.4293 143.101 17.136C143.101 18.8213 143.474 20.1333 144.221 21.072C144.967 21.9893 145.981 22.448 147.261 22.448C149.074 22.448 150.258 21.6373 150.813 20.016H155.645C155.154 21.936 154.183 23.4613 152.733 24.592C151.282 25.7227 149.469 26.288 147.293 26.288C145.586 26.288 144.071 25.9147 142.749 25.168C141.426 24.4 140.391 23.3333 139.645 21.968C138.898 20.5813 138.525 18.9707 138.525 17.136ZM166.799 26.288C165.092 26.288 163.556 25.9147 162.191 25.168C160.825 24.4 159.748 23.3227 158.959 21.936C158.191 20.5493 157.807 18.9493 157.807 17.136C157.807 15.3227 158.201 13.7227 158.991 12.336C159.801 10.9493 160.9 9.88267 162.287 9.136C163.673 8.368 165.22 7.984 166.927 7.984C168.633 7.984 170.18 8.368 171.567 9.136C172.953 9.88267 174.041 10.9493 174.831 12.336C175.641 13.7227 176.047 15.3227 176.047 17.136C176.047 18.9493 175.631 20.5493 174.799 21.936C173.988 23.3227 172.879 24.4 171.471 25.168C170.084 25.9147 168.527 26.288 166.799 26.288ZM166.799 22.384C167.609 22.384 168.367 22.192 169.071 21.808C169.796 21.4027 170.372 20.8053 170.799 20.016C171.225 19.2267 171.439 18.2667 171.439 17.136C171.439 15.4507 170.991 14.16 170.095 13.264C169.22 12.3467 168.143 11.888 166.863 11.888C165.583 11.888 164.505 12.3467 163.631 13.264C162.777 14.16 162.351 15.4507 162.351 17.136C162.351 18.8213 162.767 20.1227 163.599 21.04C164.452 21.936 165.519 22.384 166.799 22.384ZM201.349 8.016C203.525 8.016 205.274 8.688 206.597 10.032C207.941 11.3547 208.613 13.2107 208.613 15.6V26H204.133V16.208C204.133 14.8213 203.781 13.7653 203.077 13.04C202.373 12.2933 201.413 11.92 200.197 11.92C198.981 11.92 198.01 12.2933 197.285 13.04C196.581 13.7653 196.229 14.8213 196.229 16.208V26H191.749V16.208C191.749 14.8213 191.397 13.7653 190.693 13.04C189.989 12.2933 189.029 11.92 187.813 11.92C186.576 11.92 185.594 12.2933 184.869 13.04C184.165 13.7653 183.813 14.8213 183.813 16.208V26H179.333V8.272H183.813V10.416C184.389 9.66933 185.125 9.08267 186.021 8.656C186.938 8.22933 187.941 8.016 189.029 8.016C190.416 8.016 191.653 8.31467 192.741 8.912C193.829 9.488 194.672 10.32 195.269 11.408C195.845 10.384 196.677 9.56267 197.765 8.944C198.874 8.32533 200.069 8.016 201.349 8.016ZM234.88 8.016C237.056 8.016 238.806 8.688 240.128 10.032C241.472 11.3547 242.144 13.2107 242.144 15.6V26H237.664V16.208C237.664 14.8213 237.312 13.7653 236.608 13.04C235.904 12.2933 234.944 11.92 233.728 11.92C232.512 11.92 231.542 12.2933 230.816 13.04C230.112 13.7653 229.76 14.8213 229.76 16.208V26H225.28V16.208C225.28 14.8213 224.928 13.7653 224.224 13.04C223.52 12.2933 222.56 11.92 221.344 11.92C220.107 11.92 219.126 12.2933 218.4 13.04C217.696 13.7653 217.344 14.8213 217.344 16.208V26H212.864V8.272H217.344V10.416C217.92 9.66933 218.656 9.08267 219.552 8.656C220.47 8.22933 221.472 8.016 222.56 8.016C223.947 8.016 225.184 8.31467 226.272 8.912C227.36 9.488 228.203 10.32 228.8 11.408C229.376 10.384 230.208 9.56267 231.296 8.944C232.406 8.32533 233.6 8.016 234.88 8.016ZM263.132 8.272V26H258.62V23.76C258.044 24.528 257.286 25.136 256.348 25.584C255.43 26.0107 254.428 26.224 253.34 26.224C251.953 26.224 250.726 25.936 249.66 25.36C248.593 24.7627 247.75 23.8987 247.132 22.768C246.534 21.616 246.236 20.2507 246.236 18.672V8.272H250.716V18.032C250.716 19.44 251.068 20.528 251.772 21.296C252.476 22.0427 253.436 22.416 254.652 22.416C255.889 22.416 256.86 22.0427 257.564 21.296C258.268 20.528 258.62 19.44 258.62 18.032V8.272H263.132ZM277.376 8.016C279.488 8.016 281.194 8.688 282.496 10.032C283.797 11.3547 284.448 13.2107 284.448 15.6V26H279.968V16.208C279.968 14.8 279.616 13.7227 278.912 12.976C278.208 12.208 277.248 11.824 276.032 11.824C274.794 11.824 273.813 12.208 273.088 12.976C272.384 13.7227 272.032 14.8 272.032 16.208V26H267.552V8.272H272.032V10.48C272.629 9.712 273.386 9.11467 274.304 8.688C275.242 8.24 276.266 8.016 277.376 8.016ZM290.98 6.16C290.191 6.16 289.529 5.91467 288.996 5.424C288.484 4.912 288.228 4.28267 288.228 3.536C288.228 2.78933 288.484 2.17067 288.996 1.68C289.529 1.168 290.191 0.911999 290.98 0.911999C291.769 0.911999 292.42 1.168 292.932 1.68C293.465 2.17067 293.732 2.78933 293.732 3.536C293.732 4.28267 293.465 4.912 292.932 5.424C292.42 5.91467 291.769 6.16 290.98 6.16ZM293.188 8.272V26H288.708V8.272H293.188ZM302.83 11.952V20.528C302.83 21.1253 302.969 21.5627 303.246 21.84C303.545 22.096 304.036 22.224 304.718 22.224H306.798V26H303.982C300.206 26 298.318 24.1653 298.318 20.496V11.952H296.206V8.272H298.318V3.888H302.83V8.272H306.798V11.952H302.83ZM326.981 8.272L316.005 34.384H311.237L315.077 25.552L307.973 8.272H312.997L317.573 20.656L322.213 8.272H326.981Z" fill="#F4A7A5"/>
</svg>
