<svg width="602" height="19" viewBox="0 0 602 19" fill="none" xmlns="http://www.w3.org/2000/svg">
<path opacity="0.4" d="M7.046 7.574C7.718 7.694 8.288 8.048 8.756 8.636C9.224 9.224 9.458 9.89 9.458 10.634C9.458 11.27 9.29 11.846 8.954 12.362C8.63 12.866 8.156 13.268 7.532 13.568C6.908 13.856 6.182 14 5.354 14H0.35V1.49H5.12C5.972 1.49 6.704 1.634 7.316 1.922C7.928 2.21 8.39 2.6 8.702 3.092C9.014 3.572 9.17 4.112 9.17 4.712C9.17 5.432 8.978 6.032 8.594 6.512C8.21 6.992 7.694 7.346 7.046 7.574ZM2.402 6.746H4.94C5.612 6.746 6.134 6.596 6.506 6.296C6.89 5.984 7.082 5.54 7.082 4.964C7.082 4.4 6.89 3.962 6.506 3.65C6.134 3.326 5.612 3.164 4.94 3.164H2.402V6.746ZM5.174 12.326C5.87 12.326 6.416 12.158 6.812 11.822C7.208 11.486 7.406 11.018 7.406 10.418C7.406 9.806 7.196 9.32 6.776 8.96C6.356 8.6 5.798 8.42 5.102 8.42H2.402V12.326H5.174ZM20.6699 4.082V14H18.6179V12.83C18.2939 13.238 17.8679 13.562 17.3399 13.802C16.8239 14.03 16.2719 14.144 15.6839 14.144C14.9039 14.144 14.2019 13.982 13.5779 13.658C12.9659 13.334 12.4799 12.854 12.1199 12.218C11.7719 11.582 11.5979 10.814 11.5979 9.914V4.082H13.6319V9.608C13.6319 10.496 13.8539 11.18 14.2979 11.66C14.7419 12.128 15.3479 12.362 16.1159 12.362C16.8839 12.362 17.4899 12.128 17.9339 11.66C18.3899 11.18 18.6179 10.496 18.6179 9.608V4.082H20.6699ZM32.3053 4.082L26.2213 18.662H24.0973L26.1133 13.838L22.2073 4.082H24.4933L27.2833 11.642L30.1813 4.082H32.3053ZM37.8457 8.996C37.8457 8 38.0497 7.118 38.4577 6.35C38.8777 5.582 39.4417 4.988 40.1497 4.568C40.8697 4.136 41.6617 3.92 42.5257 3.92C43.3057 3.92 43.9837 4.076 44.5597 4.388C45.1477 4.688 45.6157 5.066 45.9637 5.522V4.082H48.0337V14H45.9637V12.524C45.6157 12.992 45.1417 13.382 44.5417 13.694C43.9417 14.006 43.2577 14.162 42.4897 14.162C41.6377 14.162 40.8577 13.946 40.1497 13.514C39.4417 13.07 38.8777 12.458 38.4577 11.678C38.0497 10.886 37.8457 9.992 37.8457 8.996ZM45.9637 9.032C45.9637 8.348 45.8197 7.754 45.5317 7.25C45.2557 6.746 44.8897 6.362 44.4337 6.098C43.9777 5.834 43.4857 5.702 42.9577 5.702C42.4297 5.702 41.9377 5.834 41.4817 6.098C41.0257 6.35 40.6537 6.728 40.3657 7.232C40.0897 7.724 39.9517 8.312 39.9517 8.996C39.9517 9.68 40.0897 10.28 40.3657 10.796C40.6537 11.312 41.0257 11.708 41.4817 11.984C41.9497 12.248 42.4417 12.38 42.9577 12.38C43.4857 12.38 43.9777 12.248 44.4337 11.984C44.8897 11.72 45.2557 11.336 45.5317 10.832C45.8197 10.316 45.9637 9.716 45.9637 9.032ZM55.7329 3.92C56.5129 3.92 57.2089 4.082 57.8209 4.406C58.4449 4.73 58.9309 5.21 59.2789 5.846C59.6269 6.482 59.8009 7.25 59.8009 8.15V14H57.7669V8.456C57.7669 7.568 57.5449 6.89 57.1009 6.422C56.6569 5.942 56.0509 5.702 55.2829 5.702C54.5149 5.702 53.9029 5.942 53.4469 6.422C53.0029 6.89 52.7809 7.568 52.7809 8.456V14H50.7289V4.082H52.7809V5.216C53.1169 4.808 53.5429 4.49 54.0589 4.262C54.5869 4.034 55.1449 3.92 55.7329 3.92ZM61.7344 8.996C61.7344 8 61.9384 7.118 62.3464 6.35C62.7664 5.582 63.3304 4.988 64.0384 4.568C64.7584 4.136 65.5564 3.92 66.4324 3.92C67.0804 3.92 67.7164 4.064 68.3404 4.352C68.9764 4.628 69.4804 5 69.8524 5.468V0.68H71.9224V14H69.8524V12.506C69.5164 12.986 69.0484 13.382 68.4484 13.694C67.8604 14.006 67.1824 14.162 66.4144 14.162C65.5504 14.162 64.7584 13.946 64.0384 13.514C63.3304 13.07 62.7664 12.458 62.3464 11.678C61.9384 10.886 61.7344 9.992 61.7344 8.996ZM69.8524 9.032C69.8524 8.348 69.7084 7.754 69.4204 7.25C69.1444 6.746 68.7784 6.362 68.3224 6.098C67.8664 5.834 67.3744 5.702 66.8464 5.702C66.3184 5.702 65.8264 5.834 65.3704 6.098C64.9144 6.35 64.5424 6.728 64.2544 7.232C63.9784 7.724 63.8404 8.312 63.8404 8.996C63.8404 9.68 63.9784 10.28 64.2544 10.796C64.5424 11.312 64.9144 11.708 65.3704 11.984C65.8384 12.248 66.3304 12.38 66.8464 12.38C67.3744 12.38 67.8664 12.248 68.3224 11.984C68.7784 11.72 69.1444 11.336 69.4204 10.832C69.7084 10.316 69.8524 9.716 69.8524 9.032ZM82.8934 14.162C82.1134 14.162 81.4114 14.024 80.7874 13.748C80.1754 13.46 79.6894 13.076 79.3294 12.596C78.9694 12.104 78.7774 11.558 78.7534 10.958H80.8774C80.9134 11.378 81.1114 11.732 81.4714 12.02C81.8434 12.296 82.3054 12.434 82.8574 12.434C83.4334 12.434 83.8774 12.326 84.1894 12.11C84.5134 11.882 84.6754 11.594 84.6754 11.246C84.6754 10.874 84.4954 10.598 84.1354 10.418C83.7874 10.238 83.2294 10.04 82.4614 9.824C81.7174 9.62 81.1114 9.422 80.6434 9.23C80.1754 9.038 79.7674 8.744 79.4194 8.348C79.0834 7.952 78.9154 7.43 78.9154 6.782C78.9154 6.254 79.0714 5.774 79.3834 5.342C79.6954 4.898 80.1394 4.55 80.7154 4.298C81.3034 4.046 81.9754 3.92 82.7314 3.92C83.8594 3.92 84.7654 4.208 85.4494 4.784C86.1454 5.348 86.5174 6.122 86.5654 7.106H84.5134C84.4774 6.662 84.2974 6.308 83.9734 6.044C83.6494 5.78 83.2114 5.648 82.6594 5.648C82.1194 5.648 81.7054 5.75 81.4174 5.954C81.1294 6.158 80.9854 6.428 80.9854 6.764C80.9854 7.028 81.0814 7.25 81.2734 7.43C81.4654 7.61 81.6994 7.754 81.9754 7.862C82.2514 7.958 82.6594 8.084 83.1994 8.24C83.9194 8.432 84.5074 8.63 84.9634 8.834C85.4314 9.026 85.8334 9.314 86.1694 9.698C86.5054 10.082 86.6794 10.592 86.6914 11.228C86.6914 11.792 86.5354 12.296 86.2234 12.74C85.9114 13.184 85.4674 13.532 84.8914 13.784C84.3274 14.036 83.6614 14.162 82.8934 14.162ZM97.9986 8.798C97.9986 9.17 97.9746 9.506 97.9266 9.806H90.3486C90.4086 10.598 90.7026 11.234 91.2306 11.714C91.7586 12.194 92.4066 12.434 93.1746 12.434C94.2786 12.434 95.0586 11.972 95.5146 11.048H97.7286C97.4286 11.96 96.8826 12.71 96.0906 13.298C95.3106 13.874 94.3386 14.162 93.1746 14.162C92.2266 14.162 91.3746 13.952 90.6186 13.532C89.8746 13.1 89.2866 12.5 88.8546 11.732C88.4346 10.952 88.2246 10.052 88.2246 9.032C88.2246 8.012 88.4286 7.118 88.8366 6.35C89.2566 5.57 89.8386 4.97 90.5826 4.55C91.3386 4.13 92.2026 3.92 93.1746 3.92C94.1106 3.92 94.9446 4.124 95.6766 4.532C96.4086 4.94 96.9786 5.516 97.3866 6.26C97.7946 6.992 97.9986 7.838 97.9986 8.798ZM95.8566 8.15C95.8446 7.394 95.5746 6.788 95.0466 6.332C94.5186 5.876 93.8646 5.648 93.0846 5.648C92.3766 5.648 91.7706 5.876 91.2666 6.332C90.7626 6.776 90.4626 7.382 90.3666 8.15H95.8566ZM102.07 0.68V14H100.018V0.68H102.07ZM106.816 0.68V14H104.764V0.68H106.816ZM124.464 14H122.412L116.238 4.658V14H114.186V1.472H116.238L122.412 10.796V1.472H124.464V14ZM134.521 1.49V3.164H129.211V6.854H133.351V8.528H129.211V14H127.159V1.49H134.521ZM144.504 1.49V3.164H141.174V14H139.122V3.164H135.774V1.49H144.504ZM150.182 14.162C149.402 14.162 148.7 14.024 148.076 13.748C147.464 13.46 146.978 13.076 146.618 12.596C146.258 12.104 146.066 11.558 146.042 10.958H148.166C148.202 11.378 148.4 11.732 148.76 12.02C149.132 12.296 149.594 12.434 150.146 12.434C150.722 12.434 151.166 12.326 151.478 12.11C151.802 11.882 151.964 11.594 151.964 11.246C151.964 10.874 151.784 10.598 151.424 10.418C151.076 10.238 150.518 10.04 149.75 9.824C149.006 9.62 148.4 9.422 147.932 9.23C147.464 9.038 147.056 8.744 146.708 8.348C146.372 7.952 146.204 7.43 146.204 6.782C146.204 6.254 146.36 5.774 146.672 5.342C146.984 4.898 147.428 4.55 148.004 4.298C148.592 4.046 149.264 3.92 150.02 3.92C151.148 3.92 152.054 4.208 152.738 4.784C153.434 5.348 153.806 6.122 153.854 7.106H151.802C151.766 6.662 151.586 6.308 151.262 6.044C150.938 5.78 150.5 5.648 149.948 5.648C149.408 5.648 148.994 5.75 148.706 5.954C148.418 6.158 148.274 6.428 148.274 6.764C148.274 7.028 148.37 7.25 148.562 7.43C148.754 7.61 148.988 7.754 149.264 7.862C149.54 7.958 149.948 8.084 150.488 8.24C151.208 8.432 151.796 8.63 152.252 8.834C152.72 9.026 153.122 9.314 153.458 9.698C153.794 10.082 153.968 10.592 153.98 11.228C153.98 11.792 153.824 12.296 153.512 12.74C153.2 13.184 152.756 13.532 152.18 13.784C151.616 14.036 150.95 14.162 150.182 14.162ZM165.031 5.756H163.195V14H161.125V5.756H159.955V4.082H161.125V3.38C161.125 2.24 161.425 1.412 162.025 0.895999C162.637 0.368 163.591 0.104 164.887 0.104V1.814C164.263 1.814 163.825 1.934 163.573 2.174C163.321 2.402 163.195 2.804 163.195 3.38V4.082H165.031V5.756ZM168.902 5.522C169.202 5.018 169.598 4.628 170.09 4.352C170.594 4.064 171.188 3.92 171.872 3.92V6.044H171.35C170.546 6.044 169.934 6.248 169.514 6.656C169.106 7.064 168.902 7.772 168.902 8.78V14H166.85V4.082H168.902V5.522ZM178.06 14.162C177.124 14.162 176.278 13.952 175.522 13.532C174.766 13.1 174.172 12.5 173.74 11.732C173.308 10.952 173.092 10.052 173.092 9.032C173.092 8.024 173.314 7.13 173.758 6.35C174.202 5.57 174.808 4.97 175.576 4.55C176.344 4.13 177.202 3.92 178.15 3.92C179.098 3.92 179.956 4.13 180.724 4.55C181.492 4.97 182.098 5.57 182.542 6.35C182.986 7.13 183.208 8.024 183.208 9.032C183.208 10.04 182.98 10.934 182.524 11.714C182.068 12.494 181.444 13.1 180.652 13.532C179.872 13.952 179.008 14.162 178.06 14.162ZM178.06 12.38C178.588 12.38 179.08 12.254 179.536 12.002C180.004 11.75 180.382 11.372 180.67 10.868C180.958 10.364 181.102 9.752 181.102 9.032C181.102 8.312 180.964 7.706 180.688 7.214C180.412 6.71 180.046 6.332 179.59 6.08C179.134 5.828 178.642 5.702 178.114 5.702C177.586 5.702 177.094 5.828 176.638 6.08C176.194 6.332 175.84 6.71 175.576 7.214C175.312 7.706 175.18 8.312 175.18 9.032C175.18 10.1 175.45 10.928 175.99 11.516C176.542 12.092 177.232 12.38 178.06 12.38ZM197.243 3.92C198.023 3.92 198.719 4.082 199.331 4.406C199.955 4.73 200.441 5.21 200.789 5.846C201.149 6.482 201.329 7.25 201.329 8.15V14H199.295V8.456C199.295 7.568 199.073 6.89 198.629 6.422C198.185 5.942 197.579 5.702 196.811 5.702C196.043 5.702 195.431 5.942 194.975 6.422C194.531 6.89 194.309 7.568 194.309 8.456V14H192.275V8.456C192.275 7.568 192.053 6.89 191.609 6.422C191.165 5.942 190.559 5.702 189.791 5.702C189.023 5.702 188.411 5.942 187.955 6.422C187.511 6.89 187.289 7.568 187.289 8.456V14H185.237V4.082H187.289V5.216C187.625 4.808 188.051 4.49 188.567 4.262C189.083 4.034 189.635 3.92 190.223 3.92C191.015 3.92 191.723 4.088 192.347 4.424C192.971 4.76 193.451 5.246 193.787 5.882C194.087 5.282 194.555 4.808 195.191 4.46C195.827 4.1 196.511 3.92 197.243 3.92ZM211.01 5.756V11.246C211.01 11.618 211.094 11.888 211.262 12.056C211.442 12.212 211.742 12.29 212.162 12.29H213.422V14H211.802C210.878 14 210.17 13.784 209.678 13.352C209.186 12.92 208.94 12.218 208.94 11.246V5.756H207.77V4.082H208.94V1.616H211.01V4.082H213.422V5.756H211.01ZM220.443 3.92C221.199 3.92 221.871 4.082 222.459 4.406C223.059 4.73 223.527 5.21 223.863 5.846C224.211 6.482 224.385 7.25 224.385 8.15V14H222.351V8.456C222.351 7.568 222.129 6.89 221.685 6.422C221.241 5.942 220.635 5.702 219.867 5.702C219.099 5.702 218.487 5.942 218.031 6.422C217.587 6.89 217.365 7.568 217.365 8.456V14H215.313V0.68H217.365V5.234C217.713 4.814 218.151 4.49 218.679 4.262C219.219 4.034 219.807 3.92 220.443 3.92ZM236.092 8.798C236.092 9.17 236.068 9.506 236.02 9.806H228.442C228.502 10.598 228.796 11.234 229.324 11.714C229.852 12.194 230.5 12.434 231.268 12.434C232.372 12.434 233.152 11.972 233.608 11.048H235.822C235.522 11.96 234.976 12.71 234.184 13.298C233.404 13.874 232.432 14.162 231.268 14.162C230.32 14.162 229.468 13.952 228.712 13.532C227.968 13.1 227.38 12.5 226.948 11.732C226.528 10.952 226.318 10.052 226.318 9.032C226.318 8.012 226.522 7.118 226.93 6.35C227.35 5.57 227.932 4.97 228.676 4.55C229.432 4.13 230.296 3.92 231.268 3.92C232.204 3.92 233.038 4.124 233.77 4.532C234.502 4.94 235.072 5.516 235.48 6.26C235.888 6.992 236.092 7.838 236.092 8.798ZM233.95 8.15C233.938 7.394 233.668 6.788 233.14 6.332C232.612 5.876 231.958 5.648 231.178 5.648C230.47 5.648 229.864 5.876 229.36 6.332C228.856 6.776 228.556 7.382 228.46 8.15H233.95ZM256.108 4.082L253.03 14H250.87L248.872 6.674L246.874 14H244.714L241.618 4.082H243.706L245.776 12.056L247.882 4.082H250.024L252.04 12.02L254.092 4.082H256.108ZM261.943 14.162C261.007 14.162 260.161 13.952 259.405 13.532C258.649 13.1 258.055 12.5 257.623 11.732C257.191 10.952 256.975 10.052 256.975 9.032C256.975 8.024 257.197 7.13 257.641 6.35C258.085 5.57 258.691 4.97 259.459 4.55C260.227 4.13 261.085 3.92 262.033 3.92C262.981 3.92 263.839 4.13 264.607 4.55C265.375 4.97 265.981 5.57 266.425 6.35C266.869 7.13 267.091 8.024 267.091 9.032C267.091 10.04 266.863 10.934 266.407 11.714C265.951 12.494 265.327 13.1 264.535 13.532C263.755 13.952 262.891 14.162 261.943 14.162ZM261.943 12.38C262.471 12.38 262.963 12.254 263.419 12.002C263.887 11.75 264.265 11.372 264.553 10.868C264.841 10.364 264.985 9.752 264.985 9.032C264.985 8.312 264.847 7.706 264.571 7.214C264.295 6.71 263.929 6.332 263.473 6.08C263.017 5.828 262.525 5.702 261.997 5.702C261.469 5.702 260.977 5.828 260.521 6.08C260.077 6.332 259.723 6.71 259.459 7.214C259.195 7.706 259.063 8.312 259.063 9.032C259.063 10.1 259.333 10.928 259.873 11.516C260.425 12.092 261.115 12.38 261.943 12.38ZM271.172 5.522C271.472 5.018 271.868 4.628 272.36 4.352C272.864 4.064 273.458 3.92 274.142 3.92V6.044H273.62C272.816 6.044 272.204 6.248 271.784 6.656C271.376 7.064 271.172 7.772 271.172 8.78V14H269.12V4.082H271.172V5.522ZM278.08 0.68V14H276.028V0.68H278.08ZM280.09 8.996C280.09 8 280.294 7.118 280.702 6.35C281.122 5.582 281.686 4.988 282.394 4.568C283.114 4.136 283.912 3.92 284.788 3.92C285.436 3.92 286.072 4.064 286.696 4.352C287.332 4.628 287.836 5 288.208 5.468V0.68H290.278V14H288.208V12.506C287.872 12.986 287.404 13.382 286.804 13.694C286.216 14.006 285.538 14.162 284.77 14.162C283.906 14.162 283.114 13.946 282.394 13.514C281.686 13.07 281.122 12.458 280.702 11.678C280.294 10.886 280.09 9.992 280.09 8.996ZM288.208 9.032C288.208 8.348 288.064 7.754 287.776 7.25C287.5 6.746 287.134 6.362 286.678 6.098C286.222 5.834 285.73 5.702 285.202 5.702C284.674 5.702 284.182 5.834 283.726 6.098C283.27 6.35 282.898 6.728 282.61 7.232C282.334 7.724 282.196 8.312 282.196 8.996C282.196 9.68 282.334 10.28 282.61 10.796C282.898 11.312 283.27 11.708 283.726 11.984C284.194 12.248 284.686 12.38 285.202 12.38C285.73 12.38 286.222 12.248 286.678 11.984C287.134 11.72 287.5 11.336 287.776 10.832C288.064 10.316 288.208 9.716 288.208 9.032ZM293.297 1.49H295.529L293.639 5.774H292.199L293.297 1.49ZM300.932 14.162C300.152 14.162 299.45 14.024 298.826 13.748C298.214 13.46 297.728 13.076 297.368 12.596C297.008 12.104 296.816 11.558 296.792 10.958H298.916C298.952 11.378 299.15 11.732 299.51 12.02C299.882 12.296 300.344 12.434 300.896 12.434C301.472 12.434 301.916 12.326 302.228 12.11C302.552 11.882 302.714 11.594 302.714 11.246C302.714 10.874 302.534 10.598 302.174 10.418C301.826 10.238 301.268 10.04 300.5 9.824C299.756 9.62 299.15 9.422 298.682 9.23C298.214 9.038 297.806 8.744 297.458 8.348C297.122 7.952 296.954 7.43 296.954 6.782C296.954 6.254 297.11 5.774 297.422 5.342C297.734 4.898 298.178 4.55 298.754 4.298C299.342 4.046 300.014 3.92 300.77 3.92C301.898 3.92 302.804 4.208 303.488 4.784C304.184 5.348 304.556 6.122 304.604 7.106H302.552C302.516 6.662 302.336 6.308 302.012 6.044C301.688 5.78 301.25 5.648 300.698 5.648C300.158 5.648 299.744 5.75 299.456 5.954C299.168 6.158 299.024 6.428 299.024 6.764C299.024 7.028 299.12 7.25 299.312 7.43C299.504 7.61 299.738 7.754 300.014 7.862C300.29 7.958 300.698 8.084 301.238 8.24C301.958 8.432 302.546 8.63 303.002 8.834C303.47 9.026 303.872 9.314 304.208 9.698C304.544 10.082 304.718 10.592 304.73 11.228C304.73 11.792 304.574 12.296 304.262 12.74C303.95 13.184 303.506 13.532 302.93 13.784C302.366 14.036 301.7 14.162 300.932 14.162ZM314.017 5.756V11.246C314.017 11.618 314.101 11.888 314.269 12.056C314.449 12.212 314.749 12.29 315.169 12.29H316.429V14H314.809C313.885 14 313.177 13.784 312.685 13.352C312.193 12.92 311.947 12.218 311.947 11.246V5.756H310.777V4.082H311.947V1.616H314.017V4.082H316.429V5.756H314.017ZM322.623 14.162C321.687 14.162 320.841 13.952 320.085 13.532C319.329 13.1 318.735 12.5 318.303 11.732C317.871 10.952 317.655 10.052 317.655 9.032C317.655 8.024 317.877 7.13 318.321 6.35C318.765 5.57 319.371 4.97 320.139 4.55C320.907 4.13 321.765 3.92 322.713 3.92C323.661 3.92 324.519 4.13 325.287 4.55C326.055 4.97 326.661 5.57 327.105 6.35C327.549 7.13 327.771 8.024 327.771 9.032C327.771 10.04 327.543 10.934 327.087 11.714C326.631 12.494 326.007 13.1 325.215 13.532C324.435 13.952 323.571 14.162 322.623 14.162ZM322.623 12.38C323.151 12.38 323.643 12.254 324.099 12.002C324.567 11.75 324.945 11.372 325.233 10.868C325.521 10.364 325.665 9.752 325.665 9.032C325.665 8.312 325.527 7.706 325.251 7.214C324.975 6.71 324.609 6.332 324.153 6.08C323.697 5.828 323.205 5.702 322.677 5.702C322.149 5.702 321.657 5.828 321.201 6.08C320.757 6.332 320.403 6.71 320.139 7.214C319.875 7.706 319.743 8.312 319.743 9.032C319.743 10.1 320.013 10.928 320.553 11.516C321.105 12.092 321.795 12.38 322.623 12.38ZM331.851 5.54C332.199 5.084 332.673 4.7 333.273 4.388C333.873 4.076 334.551 3.92 335.307 3.92C336.171 3.92 336.957 4.136 337.665 4.568C338.385 4.988 338.949 5.582 339.357 6.35C339.765 7.118 339.969 8 339.969 8.996C339.969 9.992 339.765 10.886 339.357 11.678C338.949 12.458 338.385 13.07 337.665 13.514C336.957 13.946 336.171 14.162 335.307 14.162C334.551 14.162 333.879 14.012 333.291 13.712C332.703 13.4 332.223 13.016 331.851 12.56V18.716H329.799V4.082H331.851V5.54ZM337.881 8.996C337.881 8.312 337.737 7.724 337.449 7.232C337.173 6.728 336.801 6.35 336.333 6.098C335.877 5.834 335.385 5.702 334.857 5.702C334.341 5.702 333.849 5.834 333.381 6.098C332.925 6.362 332.553 6.746 332.265 7.25C331.989 7.754 331.851 8.348 331.851 9.032C331.851 9.716 331.989 10.316 332.265 10.832C332.553 11.336 332.925 11.72 333.381 11.984C333.849 12.248 334.341 12.38 334.857 12.38C335.385 12.38 335.877 12.248 336.333 11.984C336.801 11.708 337.173 11.312 337.449 10.796C337.737 10.28 337.881 9.68 337.881 8.996ZM345.99 8.996C345.99 8 346.194 7.118 346.602 6.35C347.022 5.582 347.586 4.988 348.294 4.568C349.014 4.136 349.806 3.92 350.67 3.92C351.45 3.92 352.128 4.076 352.704 4.388C353.292 4.688 353.76 5.066 354.108 5.522V4.082H356.178V14H354.108V12.524C353.76 12.992 353.286 13.382 352.686 13.694C352.086 14.006 351.402 14.162 350.634 14.162C349.782 14.162 349.002 13.946 348.294 13.514C347.586 13.07 347.022 12.458 346.602 11.678C346.194 10.886 345.99 9.992 345.99 8.996ZM354.108 9.032C354.108 8.348 353.964 7.754 353.676 7.25C353.4 6.746 353.034 6.362 352.578 6.098C352.122 5.834 351.63 5.702 351.102 5.702C350.574 5.702 350.082 5.834 349.626 6.098C349.17 6.35 348.798 6.728 348.51 7.232C348.234 7.724 348.096 8.312 348.096 8.996C348.096 9.68 348.234 10.28 348.51 10.796C348.798 11.312 349.17 11.708 349.626 11.984C350.094 12.248 350.586 12.38 351.102 12.38C351.63 12.38 352.122 12.248 352.578 11.984C353.034 11.72 353.4 11.336 353.676 10.832C353.964 10.316 354.108 9.716 354.108 9.032ZM360.925 5.522C361.225 5.018 361.621 4.628 362.113 4.352C362.617 4.064 363.211 3.92 363.895 3.92V6.044H363.373C362.569 6.044 361.957 6.248 361.537 6.656C361.129 7.064 360.925 7.772 360.925 8.78V14H358.873V4.082H360.925V5.522ZM368.176 5.756V11.246C368.176 11.618 368.26 11.888 368.428 12.056C368.608 12.212 368.908 12.29 369.328 12.29H370.588V14H368.968C368.044 14 367.336 13.784 366.844 13.352C366.352 12.92 366.106 12.218 366.106 11.246V5.756H364.936V4.082H366.106V1.616H368.176V4.082H370.588V5.756H368.176ZM373.523 2.768C373.151 2.768 372.839 2.642 372.587 2.39C372.335 2.138 372.209 1.826 372.209 1.454C372.209 1.082 372.335 0.769999 372.587 0.518C372.839 0.265999 373.151 0.139999 373.523 0.139999C373.883 0.139999 374.189 0.265999 374.441 0.518C374.693 0.769999 374.819 1.082 374.819 1.454C374.819 1.826 374.693 2.138 374.441 2.39C374.189 2.642 373.883 2.768 373.523 2.768ZM374.531 4.082V14H372.479V4.082H374.531ZM380.825 14.162C380.045 14.162 379.343 14.024 378.719 13.748C378.107 13.46 377.621 13.076 377.261 12.596C376.901 12.104 376.709 11.558 376.685 10.958H378.809C378.845 11.378 379.043 11.732 379.403 12.02C379.775 12.296 380.237 12.434 380.789 12.434C381.365 12.434 381.809 12.326 382.121 12.11C382.445 11.882 382.607 11.594 382.607 11.246C382.607 10.874 382.427 10.598 382.067 10.418C381.719 10.238 381.161 10.04 380.393 9.824C379.649 9.62 379.043 9.422 378.575 9.23C378.107 9.038 377.699 8.744 377.351 8.348C377.015 7.952 376.847 7.43 376.847 6.782C376.847 6.254 377.003 5.774 377.315 5.342C377.627 4.898 378.071 4.55 378.647 4.298C379.235 4.046 379.907 3.92 380.663 3.92C381.791 3.92 382.697 4.208 383.381 4.784C384.077 5.348 384.449 6.122 384.497 7.106H382.445C382.409 6.662 382.229 6.308 381.905 6.044C381.581 5.78 381.143 5.648 380.591 5.648C380.051 5.648 379.637 5.75 379.349 5.954C379.061 6.158 378.917 6.428 378.917 6.764C378.917 7.028 379.013 7.25 379.205 7.43C379.397 7.61 379.631 7.754 379.907 7.862C380.183 7.958 380.591 8.084 381.131 8.24C381.851 8.432 382.439 8.63 382.895 8.834C383.363 9.026 383.765 9.314 384.101 9.698C384.437 10.082 384.611 10.592 384.623 11.228C384.623 11.792 384.467 12.296 384.155 12.74C383.843 13.184 383.399 13.532 382.823 13.784C382.259 14.036 381.593 14.162 380.825 14.162ZM389.234 5.756V11.246C389.234 11.618 389.318 11.888 389.486 12.056C389.666 12.212 389.966 12.29 390.386 12.29H391.646V14H390.026C389.102 14 388.394 13.784 387.902 13.352C387.41 12.92 387.164 12.218 387.164 11.246V5.756H385.994V4.082H387.164V1.616H389.234V4.082H391.646V5.756H389.234ZM397.138 14.162C396.358 14.162 395.656 14.024 395.032 13.748C394.42 13.46 393.934 13.076 393.574 12.596C393.214 12.104 393.022 11.558 392.998 10.958H395.122C395.158 11.378 395.356 11.732 395.716 12.02C396.088 12.296 396.55 12.434 397.102 12.434C397.678 12.434 398.122 12.326 398.434 12.11C398.758 11.882 398.92 11.594 398.92 11.246C398.92 10.874 398.74 10.598 398.38 10.418C398.032 10.238 397.474 10.04 396.706 9.824C395.962 9.62 395.356 9.422 394.888 9.23C394.42 9.038 394.012 8.744 393.664 8.348C393.328 7.952 393.16 7.43 393.16 6.782C393.16 6.254 393.316 5.774 393.628 5.342C393.94 4.898 394.384 4.55 394.96 4.298C395.548 4.046 396.22 3.92 396.976 3.92C398.104 3.92 399.01 4.208 399.694 4.784C400.39 5.348 400.762 6.122 400.81 7.106H398.758C398.722 6.662 398.542 6.308 398.218 6.044C397.894 5.78 397.456 5.648 396.904 5.648C396.364 5.648 395.95 5.75 395.662 5.954C395.374 6.158 395.23 6.428 395.23 6.764C395.23 7.028 395.326 7.25 395.518 7.43C395.71 7.61 395.944 7.754 396.22 7.862C396.496 7.958 396.904 8.084 397.444 8.24C398.164 8.432 398.752 8.63 399.208 8.834C399.676 9.026 400.078 9.314 400.414 9.698C400.75 10.082 400.924 10.592 400.936 11.228C400.936 11.792 400.78 12.296 400.468 12.74C400.156 13.184 399.712 13.532 399.136 13.784C398.572 14.036 397.906 14.162 397.138 14.162ZM409.471 7.538C409.927 7.61 410.341 7.796 410.713 8.096C411.097 8.396 411.397 8.768 411.613 9.212C411.841 9.656 411.955 10.13 411.955 10.634C411.955 11.27 411.793 11.846 411.469 12.362C411.145 12.866 410.671 13.268 410.047 13.568C409.435 13.856 408.709 14 407.869 14H403.189V1.454H407.689C408.541 1.454 409.267 1.598 409.867 1.886C410.467 2.162 410.917 2.54 411.217 3.02C411.517 3.5 411.667 4.04 411.667 4.64C411.667 5.384 411.463 6.002 411.055 6.494C410.659 6.974 410.131 7.322 409.471 7.538ZM404.827 6.872H407.581C408.349 6.872 408.943 6.692 409.363 6.332C409.783 5.972 409.993 5.474 409.993 4.838C409.993 4.202 409.783 3.704 409.363 3.344C408.943 2.984 408.337 2.804 407.545 2.804H404.827V6.872ZM407.725 12.65C408.541 12.65 409.177 12.458 409.633 12.074C410.089 11.69 410.317 11.156 410.317 10.472C410.317 9.776 410.077 9.23 409.597 8.834C409.117 8.426 408.475 8.222 407.671 8.222H404.827V12.65H407.725ZM422.976 4.136V14H421.338V12.542C421.026 13.046 420.588 13.442 420.024 13.73C419.472 14.006 418.86 14.144 418.188 14.144C417.42 14.144 416.73 13.988 416.118 13.676C415.506 13.352 415.02 12.872 414.66 12.236C414.312 11.6 414.138 10.826 414.138 9.914V4.136H415.758V9.698C415.758 10.67 416.004 11.42 416.496 11.948C416.988 12.464 417.66 12.722 418.512 12.722C419.388 12.722 420.078 12.452 420.582 11.912C421.086 11.372 421.338 10.586 421.338 9.554V4.136H422.976ZM434.237 4.136L428.297 18.644H426.605L428.549 13.892L424.571 4.136H426.389L429.485 12.128L432.545 4.136H434.237ZM440.071 9.032C440.071 8.024 440.275 7.142 440.683 6.386C441.091 5.618 441.649 5.024 442.357 4.604C443.077 4.184 443.875 3.974 444.751 3.974C445.615 3.974 446.365 4.16 447.001 4.532C447.637 4.904 448.111 5.372 448.423 5.936V4.136H450.079V14H448.423V12.164C448.099 12.74 447.613 13.22 446.965 13.604C446.329 13.976 445.585 14.162 444.733 14.162C443.857 14.162 443.065 13.946 442.357 13.514C441.649 13.082 441.091 12.476 440.683 11.696C440.275 10.916 440.071 10.028 440.071 9.032ZM448.423 9.05C448.423 8.306 448.273 7.658 447.973 7.106C447.673 6.554 447.265 6.134 446.749 5.846C446.245 5.546 445.687 5.396 445.075 5.396C444.463 5.396 443.905 5.54 443.401 5.828C442.897 6.116 442.495 6.536 442.195 7.088C441.895 7.64 441.745 8.288 441.745 9.032C441.745 9.788 441.895 10.448 442.195 11.012C442.495 11.564 442.897 11.99 443.401 12.29C443.905 12.578 444.463 12.722 445.075 12.722C445.687 12.722 446.245 12.578 446.749 12.29C447.265 11.99 447.673 11.564 447.973 11.012C448.273 10.448 448.423 9.794 448.423 9.05ZM457.653 3.956C458.853 3.956 459.825 4.322 460.569 5.054C461.313 5.774 461.685 6.818 461.685 8.186V14H460.065V8.42C460.065 7.436 459.819 6.686 459.327 6.17C458.835 5.642 458.163 5.378 457.311 5.378C456.447 5.378 455.757 5.648 455.241 6.188C454.737 6.728 454.485 7.514 454.485 8.546V14H452.847V4.136H454.485V5.54C454.809 5.036 455.247 4.646 455.799 4.37C456.363 4.094 456.981 3.956 457.653 3.956ZM463.749 9.032C463.749 8.024 463.953 7.142 464.361 6.386C464.769 5.618 465.327 5.024 466.035 4.604C466.755 4.184 467.559 3.974 468.447 3.974C469.215 3.974 469.929 4.154 470.589 4.514C471.249 4.862 471.753 5.324 472.101 5.9V0.68H473.757V14H472.101V12.146C471.777 12.734 471.297 13.22 470.661 13.604C470.025 13.976 469.281 14.162 468.429 14.162C467.553 14.162 466.755 13.946 466.035 13.514C465.327 13.082 464.769 12.476 464.361 11.696C463.953 10.916 463.749 10.028 463.749 9.032ZM472.101 9.05C472.101 8.306 471.951 7.658 471.651 7.106C471.351 6.554 470.943 6.134 470.427 5.846C469.923 5.546 469.365 5.396 468.753 5.396C468.141 5.396 467.583 5.54 467.079 5.828C466.575 6.116 466.173 6.536 465.873 7.088C465.573 7.64 465.423 8.288 465.423 9.032C465.423 9.788 465.573 10.448 465.873 11.012C466.173 11.564 466.575 11.99 467.079 12.29C467.583 12.578 468.141 12.722 468.753 12.722C469.365 12.722 469.923 12.578 470.427 12.29C470.943 11.99 471.351 11.564 471.651 11.012C471.951 10.448 472.101 9.794 472.101 9.05ZM484.816 14.162C484.06 14.162 483.382 14.036 482.782 13.784C482.182 13.52 481.708 13.16 481.36 12.704C481.012 12.236 480.82 11.702 480.784 11.102H482.476C482.524 11.594 482.752 11.996 483.16 12.308C483.58 12.62 484.126 12.776 484.798 12.776C485.422 12.776 485.914 12.638 486.274 12.362C486.634 12.086 486.814 11.738 486.814 11.318C486.814 10.886 486.622 10.568 486.238 10.364C485.854 10.148 485.26 9.938 484.456 9.734C483.724 9.542 483.124 9.35 482.656 9.158C482.2 8.954 481.804 8.66 481.468 8.276C481.144 7.88 480.982 7.364 480.982 6.728C480.982 6.224 481.132 5.762 481.432 5.342C481.732 4.922 482.158 4.592 482.71 4.352C483.262 4.1 483.892 3.974 484.6 3.974C485.692 3.974 486.574 4.25 487.246 4.802C487.918 5.354 488.278 6.11 488.326 7.07H486.688C486.652 6.554 486.442 6.14 486.058 5.828C485.686 5.516 485.182 5.36 484.546 5.36C483.958 5.36 483.49 5.486 483.142 5.738C482.794 5.99 482.62 6.32 482.62 6.728C482.62 7.052 482.722 7.322 482.926 7.538C483.142 7.742 483.406 7.91 483.718 8.042C484.042 8.162 484.486 8.3 485.05 8.456C485.758 8.648 486.334 8.84 486.778 9.032C487.222 9.212 487.6 9.488 487.912 9.86C488.236 10.232 488.404 10.718 488.416 11.318C488.416 11.858 488.266 12.344 487.966 12.776C487.666 13.208 487.24 13.55 486.688 13.802C486.148 14.042 485.524 14.162 484.816 14.162ZM499.728 8.69C499.728 9.002 499.71 9.332 499.674 9.68H491.79C491.85 10.652 492.18 11.414 492.78 11.966C493.392 12.506 494.13 12.776 494.994 12.776C495.702 12.776 496.29 12.614 496.758 12.29C497.238 11.954 497.574 11.51 497.766 10.958H499.53C499.266 11.906 498.738 12.68 497.946 13.28C497.154 13.868 496.17 14.162 494.994 14.162C494.058 14.162 493.218 13.952 492.474 13.532C491.742 13.112 491.166 12.518 490.746 11.75C490.326 10.97 490.116 10.07 490.116 9.05C490.116 8.03 490.32 7.136 490.728 6.368C491.136 5.6 491.706 5.012 492.438 4.604C493.182 4.184 494.034 3.974 494.994 3.974C495.93 3.974 496.758 4.178 497.478 4.586C498.198 4.994 498.75 5.558 499.134 6.278C499.53 6.986 499.728 7.79 499.728 8.69ZM498.036 8.348C498.036 7.724 497.898 7.19 497.622 6.746C497.346 6.29 496.968 5.948 496.488 5.72C496.02 5.48 495.498 5.36 494.922 5.36C494.094 5.36 493.386 5.624 492.798 6.152C492.222 6.68 491.892 7.412 491.808 8.348H498.036ZM503.528 0.68V14H501.89V0.68H503.528ZM507.958 0.68V14H506.32V0.68H507.958ZM525.412 14H523.774L517.186 4.01V14H515.548V1.436H517.186L523.774 11.408V1.436H525.412V14ZM535.296 1.454V2.786H529.842V7.016H534.27V8.348H529.842V14H528.204V1.454H535.296ZM544.997 1.454V2.786H541.577V14H539.939V2.786H536.501V1.454H544.997ZM550.505 14.162C549.749 14.162 549.071 14.036 548.471 13.784C547.871 13.52 547.397 13.16 547.049 12.704C546.701 12.236 546.509 11.702 546.473 11.102H548.165C548.213 11.594 548.441 11.996 548.849 12.308C549.269 12.62 549.815 12.776 550.487 12.776C551.111 12.776 551.603 12.638 551.963 12.362C552.323 12.086 552.503 11.738 552.503 11.318C552.503 10.886 552.311 10.568 551.927 10.364C551.543 10.148 550.949 9.938 550.145 9.734C549.413 9.542 548.813 9.35 548.345 9.158C547.889 8.954 547.493 8.66 547.157 8.276C546.833 7.88 546.671 7.364 546.671 6.728C546.671 6.224 546.821 5.762 547.121 5.342C547.421 4.922 547.847 4.592 548.399 4.352C548.951 4.1 549.581 3.974 550.289 3.974C551.381 3.974 552.263 4.25 552.935 4.802C553.607 5.354 553.967 6.11 554.015 7.07H552.377C552.341 6.554 552.131 6.14 551.747 5.828C551.375 5.516 550.871 5.36 550.235 5.36C549.647 5.36 549.179 5.486 548.831 5.738C548.483 5.99 548.309 6.32 548.309 6.728C548.309 7.052 548.411 7.322 548.615 7.538C548.831 7.742 549.095 7.91 549.407 8.042C549.731 8.162 550.175 8.3 550.739 8.456C551.447 8.648 552.023 8.84 552.467 9.032C552.911 9.212 553.289 9.488 553.601 9.86C553.925 10.232 554.093 10.718 554.105 11.318C554.105 11.858 553.955 12.344 553.655 12.776C553.355 13.208 552.929 13.55 552.377 13.802C551.837 14.042 551.213 14.162 550.505 14.162ZM565.23 5.486H563.16V14H561.522V5.486H560.244V4.136H561.522V3.434C561.522 2.33 561.804 1.526 562.368 1.022C562.944 0.505999 563.862 0.247999 565.122 0.247999V1.616C564.402 1.616 563.892 1.76 563.592 2.048C563.304 2.324 563.16 2.786 563.16 3.434V4.136H565.23V5.486ZM568.778 5.738C569.066 5.174 569.474 4.736 570.002 4.424C570.542 4.112 571.196 3.956 571.964 3.956V5.648H571.532C569.696 5.648 568.778 6.644 568.778 8.636V14H567.14V4.136H568.778V5.738ZM578.157 14.162C577.233 14.162 576.393 13.952 575.637 13.532C574.893 13.112 574.305 12.518 573.873 11.75C573.453 10.97 573.243 10.07 573.243 9.05C573.243 8.042 573.459 7.154 573.891 6.386C574.335 5.606 574.935 5.012 575.691 4.604C576.447 4.184 577.293 3.974 578.229 3.974C579.165 3.974 580.011 4.184 580.767 4.604C581.523 5.012 582.117 5.6 582.549 6.368C582.993 7.136 583.215 8.03 583.215 9.05C583.215 10.07 582.987 10.97 582.531 11.75C582.087 12.518 581.481 13.112 580.713 13.532C579.945 13.952 579.093 14.162 578.157 14.162ZM578.157 12.722C578.745 12.722 579.297 12.584 579.813 12.308C580.329 12.032 580.743 11.618 581.055 11.066C581.379 10.514 581.541 9.842 581.541 9.05C581.541 8.258 581.385 7.586 581.073 7.034C580.761 6.482 580.353 6.074 579.849 5.81C579.345 5.534 578.799 5.396 578.211 5.396C577.611 5.396 577.059 5.534 576.555 5.81C576.063 6.074 575.667 6.482 575.367 7.034C575.067 7.586 574.917 8.258 574.917 9.05C574.917 9.854 575.061 10.532 575.349 11.084C575.649 11.636 576.045 12.05 576.537 12.326C577.029 12.59 577.569 12.722 578.157 12.722ZM597.23 3.956C597.998 3.956 598.682 4.118 599.282 4.442C599.882 4.754 600.356 5.228 600.704 5.864C601.052 6.5 601.226 7.274 601.226 8.186V14H599.606V8.42C599.606 7.436 599.36 6.686 598.868 6.17C598.388 5.642 597.734 5.378 596.906 5.378C596.054 5.378 595.376 5.654 594.872 6.206C594.368 6.746 594.116 7.532 594.116 8.564V14H592.496V8.42C592.496 7.436 592.25 6.686 591.758 6.17C591.278 5.642 590.624 5.378 589.796 5.378C588.944 5.378 588.266 5.654 587.762 6.206C587.258 6.746 587.006 7.532 587.006 8.564V14H585.368V4.136H587.006V5.558C587.33 5.042 587.762 4.646 588.302 4.37C588.854 4.094 589.46 3.956 590.12 3.956C590.948 3.956 591.68 4.142 592.316 4.514C592.952 4.886 593.426 5.432 593.738 6.152C594.014 5.456 594.47 4.916 595.106 4.532C595.742 4.148 596.45 3.956 597.23 3.956Z" fill="#060707"/>
</svg>
