<svg width="512" height="29" viewBox="0 0 512 29" fill="none" xmlns="http://www.w3.org/2000/svg">
<rect y="15" width="512" height="1" fill="#CDCDCD"/>
<rect width="138" height="29" transform="translate(187)" fill="white"/>
<path opacity="0.4" d="M199.352 17.964H202.768V19H198.078V9.242H199.352V17.964ZM207.467 19.126C206.748 19.126 206.095 18.9627 205.507 18.636C204.928 18.3093 204.471 17.8473 204.135 17.25C203.808 16.6433 203.645 15.9433 203.645 15.15C203.645 14.366 203.813 13.6753 204.149 13.078C204.494 12.4713 204.961 12.0093 205.549 11.692C206.137 11.3653 206.795 11.202 207.523 11.202C208.251 11.202 208.909 11.3653 209.497 11.692C210.085 12.0093 210.547 12.4667 210.883 13.064C211.228 13.6613 211.401 14.3567 211.401 15.15C211.401 15.9433 211.224 16.6433 210.869 17.25C210.524 17.8473 210.052 18.3093 209.455 18.636C208.858 18.9627 208.195 19.126 207.467 19.126ZM207.467 18.006C207.924 18.006 208.354 17.8987 208.755 17.684C209.156 17.4693 209.478 17.1473 209.721 16.718C209.973 16.2887 210.099 15.766 210.099 15.15C210.099 14.534 209.978 14.0113 209.735 13.582C209.492 13.1527 209.175 12.8353 208.783 12.63C208.391 12.4153 207.966 12.308 207.509 12.308C207.042 12.308 206.613 12.4153 206.221 12.63C205.838 12.8353 205.53 13.1527 205.297 13.582C205.064 14.0113 204.947 14.534 204.947 15.15C204.947 15.7753 205.059 16.3027 205.283 16.732C205.516 17.1613 205.824 17.4833 206.207 17.698C206.59 17.9033 207.01 18.006 207.467 18.006ZM216.24 11.202C216.903 11.202 217.481 11.3467 217.976 11.636C218.48 11.9253 218.853 12.2893 219.096 12.728V11.328H220.384V19.168C220.384 19.868 220.235 20.4887 219.936 21.03C219.637 21.5807 219.208 22.01 218.648 22.318C218.097 22.626 217.453 22.78 216.716 22.78C215.708 22.78 214.868 22.542 214.196 22.066C213.524 21.59 213.127 20.9413 213.006 20.12H214.266C214.406 20.5867 214.695 20.96 215.134 21.24C215.573 21.5293 216.1 21.674 216.716 21.674C217.416 21.674 217.985 21.4547 218.424 21.016C218.872 20.5773 219.096 19.9613 219.096 19.168V17.558C218.844 18.006 218.471 18.3793 217.976 18.678C217.481 18.9767 216.903 19.126 216.24 19.126C215.559 19.126 214.938 18.958 214.378 18.622C213.827 18.286 213.393 17.8147 213.076 17.208C212.759 16.6013 212.6 15.9107 212.6 15.136C212.6 14.352 212.759 13.666 213.076 13.078C213.393 12.4807 213.827 12.0187 214.378 11.692C214.938 11.3653 215.559 11.202 216.24 11.202ZM219.096 15.15C219.096 14.5713 218.979 14.0673 218.746 13.638C218.513 13.2087 218.195 12.882 217.794 12.658C217.402 12.4247 216.968 12.308 216.492 12.308C216.016 12.308 215.582 12.42 215.19 12.644C214.798 12.868 214.485 13.1947 214.252 13.624C214.019 14.0533 213.902 14.5573 213.902 15.136C213.902 15.724 214.019 16.2373 214.252 16.676C214.485 17.1053 214.798 17.4367 215.19 17.67C215.582 17.894 216.016 18.006 216.492 18.006C216.968 18.006 217.402 17.894 217.794 17.67C218.195 17.4367 218.513 17.1053 218.746 16.676C218.979 16.2373 219.096 15.7287 219.096 15.15ZM223.195 10.082C222.952 10.082 222.747 9.998 222.579 9.83C222.411 9.662 222.327 9.45667 222.327 9.214C222.327 8.97133 222.411 8.766 222.579 8.598C222.747 8.43 222.952 8.346 223.195 8.346C223.428 8.346 223.624 8.43 223.783 8.598C223.951 8.766 224.035 8.97133 224.035 9.214C224.035 9.45667 223.951 9.662 223.783 9.83C223.624 9.998 223.428 10.082 223.195 10.082ZM223.811 11.328V19H222.537V11.328H223.811ZM229.72 11.188C230.654 11.188 231.41 11.4727 231.988 12.042C232.567 12.602 232.856 13.414 232.856 14.478V19H231.596V14.66C231.596 13.8947 231.405 13.3113 231.022 12.91C230.64 12.4993 230.117 12.294 229.454 12.294C228.782 12.294 228.246 12.504 227.844 12.924C227.452 13.344 227.256 13.9553 227.256 14.758V19H225.982V11.328H227.256V12.42C227.508 12.028 227.849 11.7247 228.278 11.51C228.717 11.2953 229.198 11.188 229.72 11.188ZM250.934 9.242L248.106 19H246.678L244.41 11.146L242.058 19L240.644 19.014L237.914 9.242H239.272L241.4 17.516L243.752 9.242H245.18L247.42 17.488L249.562 9.242H250.934ZM252.986 10.082C252.743 10.082 252.538 9.998 252.37 9.83C252.202 9.662 252.118 9.45667 252.118 9.214C252.118 8.97133 252.202 8.766 252.37 8.598C252.538 8.43 252.743 8.346 252.986 8.346C253.219 8.346 253.415 8.43 253.574 8.598C253.742 8.766 253.826 8.97133 253.826 9.214C253.826 9.45667 253.742 9.662 253.574 9.83C253.415 9.998 253.219 10.082 252.986 10.082ZM253.602 11.328V19H252.328V11.328H253.602ZM257.327 12.378V16.9C257.327 17.2733 257.407 17.5393 257.565 17.698C257.724 17.8473 257.999 17.922 258.391 17.922H259.329V19H258.181C257.472 19 256.94 18.8367 256.585 18.51C256.231 18.1833 256.053 17.6467 256.053 16.9V12.378H255.059V11.328H256.053V9.396H257.327V11.328H259.329V12.378H257.327ZM264.681 11.188C265.26 11.188 265.782 11.314 266.249 11.566C266.716 11.8087 267.08 12.1773 267.341 12.672C267.612 13.1667 267.747 13.7687 267.747 14.478V19H266.487V14.66C266.487 13.8947 266.296 13.3113 265.913 12.91C265.53 12.4993 265.008 12.294 264.345 12.294C263.673 12.294 263.136 12.504 262.735 12.924C262.343 13.344 262.147 13.9553 262.147 14.758V19H260.873V8.64H262.147V12.42C262.399 12.028 262.744 11.7247 263.183 11.51C263.631 11.2953 264.13 11.188 264.681 11.188ZM276.654 19.098C276.01 19.098 275.432 18.986 274.918 18.762C274.414 18.5287 274.018 18.2113 273.728 17.81C273.439 17.3993 273.29 16.928 273.28 16.396H274.638C274.685 16.8533 274.872 17.2407 275.198 17.558C275.534 17.866 276.02 18.02 276.654 18.02C277.261 18.02 277.737 17.8707 278.082 17.572C278.437 17.264 278.614 16.872 278.614 16.396C278.614 16.0227 278.512 15.7193 278.306 15.486C278.101 15.2527 277.844 15.0753 277.536 14.954C277.228 14.8327 276.813 14.702 276.29 14.562C275.646 14.394 275.128 14.226 274.736 14.058C274.354 13.89 274.022 13.6287 273.742 13.274C273.472 12.91 273.336 12.4247 273.336 11.818C273.336 11.286 273.472 10.8147 273.742 10.404C274.013 9.99333 274.391 9.676 274.876 9.452C275.371 9.228 275.936 9.116 276.57 9.116C277.485 9.116 278.232 9.34467 278.81 9.802C279.398 10.2593 279.73 10.866 279.804 11.622H278.404C278.358 11.2487 278.162 10.922 277.816 10.642C277.471 10.3527 277.014 10.208 276.444 10.208C275.912 10.208 275.478 10.348 275.142 10.628C274.806 10.8987 274.638 11.2813 274.638 11.776C274.638 12.1307 274.736 12.42 274.932 12.644C275.138 12.868 275.385 13.0407 275.674 13.162C275.973 13.274 276.388 13.4047 276.92 13.554C277.564 13.7313 278.082 13.9087 278.474 14.086C278.866 14.254 279.202 14.52 279.482 14.884C279.762 15.2387 279.902 15.724 279.902 16.34C279.902 16.816 279.776 17.264 279.524 17.684C279.272 18.104 278.899 18.4447 278.404 18.706C277.91 18.9673 277.326 19.098 276.654 19.098ZM285.123 19.126C284.405 19.126 283.751 18.9627 283.163 18.636C282.585 18.3093 282.127 17.8473 281.791 17.25C281.465 16.6433 281.301 15.9433 281.301 15.15C281.301 14.366 281.469 13.6753 281.805 13.078C282.151 12.4713 282.617 12.0093 283.205 11.692C283.793 11.3653 284.451 11.202 285.179 11.202C285.907 11.202 286.565 11.3653 287.153 11.692C287.741 12.0093 288.203 12.4667 288.539 13.064C288.885 13.6613 289.057 14.3567 289.057 15.15C289.057 15.9433 288.88 16.6433 288.525 17.25C288.18 17.8473 287.709 18.3093 287.111 18.636C286.514 18.9627 285.851 19.126 285.123 19.126ZM285.123 18.006C285.581 18.006 286.01 17.8987 286.411 17.684C286.813 17.4693 287.135 17.1473 287.377 16.718C287.629 16.2887 287.755 15.766 287.755 15.15C287.755 14.534 287.634 14.0113 287.391 13.582C287.149 13.1527 286.831 12.8353 286.439 12.63C286.047 12.4153 285.623 12.308 285.165 12.308C284.699 12.308 284.269 12.4153 283.877 12.63C283.495 12.8353 283.187 13.1527 282.953 13.582C282.72 14.0113 282.603 14.534 282.603 15.15C282.603 15.7753 282.715 16.3027 282.939 16.732C283.173 17.1613 283.481 17.4833 283.863 17.698C284.246 17.9033 284.666 18.006 285.123 18.006ZM290.256 15.15C290.256 14.3567 290.415 13.666 290.732 13.078C291.05 12.4807 291.488 12.0187 292.048 11.692C292.618 11.3653 293.266 11.202 293.994 11.202C294.937 11.202 295.712 11.4307 296.318 11.888C296.934 12.3453 297.34 12.98 297.536 13.792H296.164C296.034 13.3253 295.777 12.9567 295.394 12.686C295.021 12.4153 294.554 12.28 293.994 12.28C293.266 12.28 292.678 12.532 292.23 13.036C291.782 13.5307 291.558 14.2353 291.558 15.15C291.558 16.074 291.782 16.788 292.23 17.292C292.678 17.796 293.266 18.048 293.994 18.048C294.554 18.048 295.021 17.9173 295.394 17.656C295.768 17.3947 296.024 17.0213 296.164 16.536H297.536C297.331 17.32 296.92 17.95 296.304 18.426C295.688 18.8927 294.918 19.126 293.994 19.126C293.266 19.126 292.618 18.9627 292.048 18.636C291.488 18.3093 291.05 17.8473 290.732 17.25C290.415 16.6527 290.256 15.9527 290.256 15.15ZM299.894 10.082C299.652 10.082 299.446 9.998 299.278 9.83C299.11 9.662 299.026 9.45667 299.026 9.214C299.026 8.97133 299.11 8.766 299.278 8.598C299.446 8.43 299.652 8.346 299.894 8.346C300.128 8.346 300.324 8.43 300.482 8.598C300.65 8.766 300.734 8.97133 300.734 9.214C300.734 9.45667 300.65 9.662 300.482 9.83C300.324 9.998 300.128 10.082 299.894 10.082ZM300.51 11.328V19H299.236V11.328H300.51ZM302.206 15.136C302.206 14.352 302.364 13.666 302.682 13.078C302.999 12.4807 303.433 12.0187 303.984 11.692C304.544 11.3653 305.164 11.202 305.846 11.202C306.518 11.202 307.101 11.3467 307.596 11.636C308.09 11.9253 308.459 12.2893 308.702 12.728V11.328H309.99V19H308.702V17.572C308.45 18.02 308.072 18.3933 307.568 18.692C307.073 18.9813 306.494 19.126 305.832 19.126C305.15 19.126 304.534 18.958 303.984 18.622C303.433 18.286 302.999 17.8147 302.682 17.208C302.364 16.6013 302.206 15.9107 302.206 15.136ZM308.702 15.15C308.702 14.5713 308.585 14.0673 308.352 13.638C308.118 13.2087 307.801 12.882 307.4 12.658C307.008 12.4247 306.574 12.308 306.098 12.308C305.622 12.308 305.188 12.42 304.796 12.644C304.404 12.868 304.091 13.1947 303.858 13.624C303.624 14.0533 303.508 14.5573 303.508 15.136C303.508 15.724 303.624 16.2373 303.858 16.676C304.091 17.1053 304.404 17.4367 304.796 17.67C305.188 17.894 305.622 18.006 306.098 18.006C306.574 18.006 307.008 17.894 307.4 17.67C307.801 17.4367 308.118 17.1053 308.352 16.676C308.585 16.2373 308.702 15.7287 308.702 15.15ZM313.416 8.64V19H312.142V8.64H313.416Z" fill="#060707"/>
</svg>
