<svg width="512" height="29" viewBox="0 0 512 29" fill="none" xmlns="http://www.w3.org/2000/svg">
<rect y="15" width="512" height="1" fill="#CED4DA"/>
<rect width="150" height="29" transform="translate(187)" fill="white"/>
<path opacity="0.4" d="M201.172 19.098C200.528 19.098 199.949 18.986 199.436 18.762C198.932 18.5287 198.535 18.2113 198.246 17.81C197.957 17.3993 197.807 16.928 197.798 16.396H199.156C199.203 16.8533 199.389 17.2407 199.716 17.558C200.052 17.866 200.537 18.02 201.172 18.02C201.779 18.02 202.255 17.8707 202.6 17.572C202.955 17.264 203.132 16.872 203.132 16.396C203.132 16.0227 203.029 15.7193 202.824 15.486C202.619 15.2527 202.362 15.0753 202.054 14.954C201.746 14.8327 201.331 14.702 200.808 14.562C200.164 14.394 199.646 14.226 199.254 14.058C198.871 13.89 198.54 13.6287 198.26 13.274C197.989 12.91 197.854 12.4247 197.854 11.818C197.854 11.286 197.989 10.8147 198.26 10.404C198.531 9.99333 198.909 9.676 199.394 9.452C199.889 9.228 200.453 9.116 201.088 9.116C202.003 9.116 202.749 9.34467 203.328 9.802C203.916 10.2593 204.247 10.866 204.322 11.622H202.922C202.875 11.2487 202.679 10.922 202.334 10.642C201.989 10.3527 201.531 10.208 200.962 10.208C200.43 10.208 199.996 10.348 199.66 10.628C199.324 10.8987 199.156 11.2813 199.156 11.776C199.156 12.1307 199.254 12.42 199.45 12.644C199.655 12.868 199.903 13.0407 200.192 13.162C200.491 13.274 200.906 13.4047 201.438 13.554C202.082 13.7313 202.6 13.9087 202.992 14.086C203.384 14.254 203.72 14.52 204 14.884C204.28 15.2387 204.42 15.724 204.42 16.34C204.42 16.816 204.294 17.264 204.042 17.684C203.79 18.104 203.417 18.4447 202.922 18.706C202.427 18.9673 201.844 19.098 201.172 19.098ZM206.953 10.082C206.71 10.082 206.505 9.998 206.337 9.83C206.169 9.662 206.085 9.45667 206.085 9.214C206.085 8.97133 206.169 8.766 206.337 8.598C206.505 8.43 206.71 8.346 206.953 8.346C207.186 8.346 207.382 8.43 207.541 8.598C207.709 8.766 207.793 8.97133 207.793 9.214C207.793 9.45667 207.709 9.662 207.541 9.83C207.382 9.998 207.186 10.082 206.953 10.082ZM207.569 11.328V19H206.295V11.328H207.569ZM212.904 11.202C213.567 11.202 214.145 11.3467 214.64 11.636C215.144 11.9253 215.517 12.2893 215.76 12.728V11.328H217.048V19.168C217.048 19.868 216.899 20.4887 216.6 21.03C216.301 21.5807 215.872 22.01 215.312 22.318C214.761 22.626 214.117 22.78 213.38 22.78C212.372 22.78 211.532 22.542 210.86 22.066C210.188 21.59 209.791 20.9413 209.67 20.12H210.93C211.07 20.5867 211.359 20.96 211.798 21.24C212.237 21.5293 212.764 21.674 213.38 21.674C214.08 21.674 214.649 21.4547 215.088 21.016C215.536 20.5773 215.76 19.9613 215.76 19.168V17.558C215.508 18.006 215.135 18.3793 214.64 18.678C214.145 18.9767 213.567 19.126 212.904 19.126C212.223 19.126 211.602 18.958 211.042 18.622C210.491 18.286 210.057 17.8147 209.74 17.208C209.423 16.6013 209.264 15.9107 209.264 15.136C209.264 14.352 209.423 13.666 209.74 13.078C210.057 12.4807 210.491 12.0187 211.042 11.692C211.602 11.3653 212.223 11.202 212.904 11.202ZM215.76 15.15C215.76 14.5713 215.643 14.0673 215.41 13.638C215.177 13.2087 214.859 12.882 214.458 12.658C214.066 12.4247 213.632 12.308 213.156 12.308C212.68 12.308 212.246 12.42 211.854 12.644C211.462 12.868 211.149 13.1947 210.916 13.624C210.683 14.0533 210.566 14.5573 210.566 15.136C210.566 15.724 210.683 16.2373 210.916 16.676C211.149 17.1053 211.462 17.4367 211.854 17.67C212.246 17.894 212.68 18.006 213.156 18.006C213.632 18.006 214.066 17.894 214.458 17.67C214.859 17.4367 215.177 17.1053 215.41 16.676C215.643 16.2373 215.76 15.7287 215.76 15.15ZM222.939 11.188C223.872 11.188 224.628 11.4727 225.207 12.042C225.786 12.602 226.075 13.414 226.075 14.478V19H224.815V14.66C224.815 13.8947 224.624 13.3113 224.241 12.91C223.858 12.4993 223.336 12.294 222.673 12.294C222.001 12.294 221.464 12.504 221.063 12.924C220.671 13.344 220.475 13.9553 220.475 14.758V19H219.201V11.328H220.475V12.42C220.727 12.028 221.068 11.7247 221.497 11.51C221.936 11.2953 222.416 11.188 222.939 11.188ZM234.96 11.328V19H233.686V17.866C233.443 18.258 233.103 18.566 232.664 18.79C232.235 19.0047 231.759 19.112 231.236 19.112C230.639 19.112 230.102 18.9907 229.626 18.748C229.15 18.496 228.772 18.1227 228.492 17.628C228.221 17.1333 228.086 16.5313 228.086 15.822V11.328H229.346V15.654C229.346 16.41 229.537 16.9933 229.92 17.404C230.303 17.8053 230.825 18.006 231.488 18.006C232.169 18.006 232.706 17.796 233.098 17.376C233.49 16.956 233.686 16.3447 233.686 15.542V11.328H234.96ZM238.385 12.742C238.637 12.3033 239.011 11.9393 239.505 11.65C240.009 11.3513 240.593 11.202 241.255 11.202C241.937 11.202 242.553 11.3653 243.103 11.692C243.663 12.0187 244.102 12.4807 244.419 13.078C244.737 13.666 244.895 14.352 244.895 15.136C244.895 15.9107 244.737 16.6013 244.419 17.208C244.102 17.8147 243.663 18.286 243.103 18.622C242.553 18.958 241.937 19.126 241.255 19.126C240.602 19.126 240.023 18.9813 239.519 18.692C239.025 18.3933 238.647 18.0247 238.385 17.586V22.64H237.111V11.328H238.385V12.742ZM243.593 15.136C243.593 14.5573 243.477 14.0533 243.243 13.624C243.01 13.1947 242.693 12.868 242.291 12.644C241.899 12.42 241.465 12.308 240.989 12.308C240.523 12.308 240.089 12.4247 239.687 12.658C239.295 12.882 238.978 13.2133 238.735 13.652C238.502 14.0813 238.385 14.5807 238.385 15.15C238.385 15.7287 238.502 16.2373 238.735 16.676C238.978 17.1053 239.295 17.4367 239.687 17.67C240.089 17.894 240.523 18.006 240.989 18.006C241.465 18.006 241.899 17.894 242.291 17.67C242.693 17.4367 243.01 17.1053 243.243 16.676C243.477 16.2373 243.593 15.724 243.593 15.136ZM262.569 9.242L259.741 19H258.313L256.045 11.146L253.693 19L252.279 19.014L249.549 9.242H250.907L253.035 17.516L255.387 9.242H256.815L259.055 17.488L261.197 9.242H262.569ZM264.621 10.082C264.378 10.082 264.173 9.998 264.005 9.83C263.837 9.662 263.753 9.45667 263.753 9.214C263.753 8.97133 263.837 8.766 264.005 8.598C264.173 8.43 264.378 8.346 264.621 8.346C264.854 8.346 265.05 8.43 265.209 8.598C265.377 8.766 265.461 8.97133 265.461 9.214C265.461 9.45667 265.377 9.662 265.209 9.83C265.05 9.998 264.854 10.082 264.621 10.082ZM265.237 11.328V19H263.963V11.328H265.237ZM268.962 12.378V16.9C268.962 17.2733 269.041 17.5393 269.2 17.698C269.359 17.8473 269.634 17.922 270.026 17.922H270.964V19H269.816C269.107 19 268.575 18.8367 268.22 18.51C267.865 18.1833 267.688 17.6467 267.688 16.9V12.378H266.694V11.328H267.688V9.396H268.962V11.328H270.964V12.378H268.962ZM276.316 11.188C276.894 11.188 277.417 11.314 277.884 11.566C278.35 11.8087 278.714 12.1773 278.976 12.672C279.246 13.1667 279.382 13.7687 279.382 14.478V19H278.122V14.66C278.122 13.8947 277.93 13.3113 277.548 12.91C277.165 12.4993 276.642 12.294 275.98 12.294C275.308 12.294 274.771 12.504 274.37 12.924C273.978 13.344 273.782 13.9553 273.782 14.758V19H272.508V8.64H273.782V12.42C274.034 12.028 274.379 11.7247 274.818 11.51C275.266 11.2953 275.765 11.188 276.316 11.188ZM288.289 19.098C287.645 19.098 287.067 18.986 286.553 18.762C286.049 18.5287 285.653 18.2113 285.363 17.81C285.074 17.3993 284.925 16.928 284.915 16.396H286.273C286.32 16.8533 286.507 17.2407 286.833 17.558C287.169 17.866 287.655 18.02 288.289 18.02C288.896 18.02 289.372 17.8707 289.717 17.572C290.072 17.264 290.249 16.872 290.249 16.396C290.249 16.0227 290.147 15.7193 289.941 15.486C289.736 15.2527 289.479 15.0753 289.171 14.954C288.863 14.8327 288.448 14.702 287.925 14.562C287.281 14.394 286.763 14.226 286.371 14.058C285.989 13.89 285.657 13.6287 285.377 13.274C285.107 12.91 284.971 12.4247 284.971 11.818C284.971 11.286 285.107 10.8147 285.377 10.404C285.648 9.99333 286.026 9.676 286.511 9.452C287.006 9.228 287.571 9.116 288.205 9.116C289.12 9.116 289.867 9.34467 290.445 9.802C291.033 10.2593 291.365 10.866 291.439 11.622H290.039C289.993 11.2487 289.797 10.922 289.451 10.642C289.106 10.3527 288.649 10.208 288.079 10.208C287.547 10.208 287.113 10.348 286.777 10.628C286.441 10.8987 286.273 11.2813 286.273 11.776C286.273 12.1307 286.371 12.42 286.567 12.644C286.773 12.868 287.02 13.0407 287.309 13.162C287.608 13.274 288.023 13.4047 288.555 13.554C289.199 13.7313 289.717 13.9087 290.109 14.086C290.501 14.254 290.837 14.52 291.117 14.884C291.397 15.2387 291.537 15.724 291.537 16.34C291.537 16.816 291.411 17.264 291.159 17.684C290.907 18.104 290.534 18.4447 290.039 18.706C289.545 18.9673 288.961 19.098 288.289 19.098ZM296.758 19.126C296.039 19.126 295.386 18.9627 294.798 18.636C294.219 18.3093 293.762 17.8473 293.426 17.25C293.099 16.6433 292.936 15.9433 292.936 15.15C292.936 14.366 293.104 13.6753 293.44 13.078C293.785 12.4713 294.252 12.0093 294.84 11.692C295.428 11.3653 296.086 11.202 296.814 11.202C297.542 11.202 298.2 11.3653 298.788 11.692C299.376 12.0093 299.838 12.4667 300.174 13.064C300.519 13.6613 300.692 14.3567 300.692 15.15C300.692 15.9433 300.515 16.6433 300.16 17.25C299.815 17.8473 299.343 18.3093 298.746 18.636C298.149 18.9627 297.486 19.126 296.758 19.126ZM296.758 18.006C297.215 18.006 297.645 17.8987 298.046 17.684C298.447 17.4693 298.769 17.1473 299.012 16.718C299.264 16.2887 299.39 15.766 299.39 15.15C299.39 14.534 299.269 14.0113 299.026 13.582C298.783 13.1527 298.466 12.8353 298.074 12.63C297.682 12.4153 297.257 12.308 296.8 12.308C296.333 12.308 295.904 12.4153 295.512 12.63C295.129 12.8353 294.821 13.1527 294.588 13.582C294.355 14.0113 294.238 14.534 294.238 15.15C294.238 15.7753 294.35 16.3027 294.574 16.732C294.807 17.1613 295.115 17.4833 295.498 17.698C295.881 17.9033 296.301 18.006 296.758 18.006ZM301.891 15.15C301.891 14.3567 302.05 13.666 302.367 13.078C302.684 12.4807 303.123 12.0187 303.683 11.692C304.252 11.3653 304.901 11.202 305.629 11.202C306.572 11.202 307.346 11.4307 307.953 11.888C308.569 12.3453 308.975 12.98 309.171 13.792H307.799C307.668 13.3253 307.412 12.9567 307.029 12.686C306.656 12.4153 306.189 12.28 305.629 12.28C304.901 12.28 304.313 12.532 303.865 13.036C303.417 13.5307 303.193 14.2353 303.193 15.15C303.193 16.074 303.417 16.788 303.865 17.292C304.313 17.796 304.901 18.048 305.629 18.048C306.189 18.048 306.656 17.9173 307.029 17.656C307.402 17.3947 307.659 17.0213 307.799 16.536H309.171C308.966 17.32 308.555 17.95 307.939 18.426C307.323 18.8927 306.553 19.126 305.629 19.126C304.901 19.126 304.252 18.9627 303.683 18.636C303.123 18.3093 302.684 17.8473 302.367 17.25C302.05 16.6527 301.891 15.9527 301.891 15.15ZM311.529 10.082C311.286 10.082 311.081 9.998 310.913 9.83C310.745 9.662 310.661 9.45667 310.661 9.214C310.661 8.97133 310.745 8.766 310.913 8.598C311.081 8.43 311.286 8.346 311.529 8.346C311.762 8.346 311.958 8.43 312.117 8.598C312.285 8.766 312.369 8.97133 312.369 9.214C312.369 9.45667 312.285 9.662 312.117 9.83C311.958 9.998 311.762 10.082 311.529 10.082ZM312.145 11.328V19H310.871V11.328H312.145ZM313.84 15.136C313.84 14.352 313.999 13.666 314.316 13.078C314.634 12.4807 315.068 12.0187 315.618 11.692C316.178 11.3653 316.799 11.202 317.48 11.202C318.152 11.202 318.736 11.3467 319.23 11.636C319.725 11.9253 320.094 12.2893 320.336 12.728V11.328H321.624V19H320.336V17.572C320.084 18.02 319.706 18.3933 319.202 18.692C318.708 18.9813 318.129 19.126 317.466 19.126C316.785 19.126 316.169 18.958 315.618 18.622C315.068 18.286 314.634 17.8147 314.316 17.208C313.999 16.6013 313.84 15.9107 313.84 15.136ZM320.336 15.15C320.336 14.5713 320.22 14.0673 319.986 13.638C319.753 13.2087 319.436 12.882 319.034 12.658C318.642 12.4247 318.208 12.308 317.732 12.308C317.256 12.308 316.822 12.42 316.43 12.644C316.038 12.868 315.726 13.1947 315.492 13.624C315.259 14.0533 315.142 14.5573 315.142 15.136C315.142 15.724 315.259 16.2373 315.492 16.676C315.726 17.1053 316.038 17.4367 316.43 17.67C316.822 17.894 317.256 18.006 317.732 18.006C318.208 18.006 318.642 17.894 319.034 17.67C319.436 17.4367 319.753 17.1053 319.986 16.676C320.22 16.2373 320.336 15.7287 320.336 15.15ZM325.051 8.64V19H323.777V8.64H325.051Z" fill="#060707"/>
</svg>
