<svg width="394" height="20" viewBox="0 0 394 20" fill="none" xmlns="http://www.w3.org/2000/svg">
<path opacity="0.4" d="M10.628 15H8.576L2.402 5.658V15H0.35V2.472H2.402L8.576 11.796V2.472H10.628V15ZM17.6247 15.162C16.6887 15.162 15.8427 14.952 15.0867 14.532C14.3307 14.1 13.7367 13.5 13.3047 12.732C12.8727 11.952 12.6567 11.052 12.6567 10.032C12.6567 9.024 12.8787 8.13 13.3227 7.35C13.7667 6.57 14.3727 5.97 15.1407 5.55C15.9087 5.13 16.7667 4.92 17.7147 4.92C18.6627 4.92 19.5207 5.13 20.2887 5.55C21.0567 5.97 21.6627 6.57 22.1067 7.35C22.5507 8.13 22.7727 9.024 22.7727 10.032C22.7727 11.04 22.5447 11.934 22.0887 12.714C21.6327 13.494 21.0087 14.1 20.2167 14.532C19.4367 14.952 18.5727 15.162 17.6247 15.162ZM17.6247 13.38C18.1527 13.38 18.6447 13.254 19.1007 13.002C19.5687 12.75 19.9467 12.372 20.2347 11.868C20.5227 11.364 20.6667 10.752 20.6667 10.032C20.6667 9.312 20.5287 8.706 20.2527 8.214C19.9767 7.71 19.6107 7.332 19.1547 7.08C18.6987 6.828 18.2067 6.702 17.6787 6.702C17.1507 6.702 16.6587 6.828 16.2027 7.08C15.7587 7.332 15.4047 7.71 15.1407 8.214C14.8767 8.706 14.7447 9.312 14.7447 10.032C14.7447 11.1 15.0147 11.928 15.5547 12.516C16.1067 13.092 16.7967 13.38 17.6247 13.38ZM42.797 5.082L39.719 15H37.559L35.561 7.674L33.563 15H31.403L28.307 5.082H30.395L32.465 13.056L34.571 5.082H36.713L38.729 13.02L40.781 5.082H42.797ZM48.6325 15.162C47.6965 15.162 46.8505 14.952 46.0945 14.532C45.3385 14.1 44.7445 13.5 44.3125 12.732C43.8805 11.952 43.6645 11.052 43.6645 10.032C43.6645 9.024 43.8865 8.13 44.3305 7.35C44.7745 6.57 45.3805 5.97 46.1485 5.55C46.9165 5.13 47.7745 4.92 48.7225 4.92C49.6705 4.92 50.5285 5.13 51.2965 5.55C52.0645 5.97 52.6705 6.57 53.1145 7.35C53.5585 8.13 53.7805 9.024 53.7805 10.032C53.7805 11.04 53.5525 11.934 53.0965 12.714C52.6405 13.494 52.0165 14.1 51.2245 14.532C50.4445 14.952 49.5805 15.162 48.6325 15.162ZM48.6325 13.38C49.1605 13.38 49.6525 13.254 50.1085 13.002C50.5765 12.75 50.9545 12.372 51.2425 11.868C51.5305 11.364 51.6745 10.752 51.6745 10.032C51.6745 9.312 51.5365 8.706 51.2605 8.214C50.9845 7.71 50.6185 7.332 50.1625 7.08C49.7065 6.828 49.2145 6.702 48.6865 6.702C48.1585 6.702 47.6665 6.828 47.2105 7.08C46.7665 7.332 46.4125 7.71 46.1485 8.214C45.8845 8.706 45.7525 9.312 45.7525 10.032C45.7525 11.1 46.0225 11.928 46.5625 12.516C47.1145 13.092 47.8045 13.38 48.6325 13.38ZM57.861 6.522C58.161 6.018 58.557 5.628 59.049 5.352C59.553 5.064 60.147 4.92 60.831 4.92V7.044H60.309C59.505 7.044 58.893 7.248 58.473 7.656C58.065 8.064 57.861 8.772 57.861 9.78V15H55.809V5.082H57.861V6.522ZM64.7692 6.522C65.0692 6.018 65.4652 5.628 65.9572 5.352C66.4612 5.064 67.0552 4.92 67.7392 4.92V7.044H67.2172C66.4132 7.044 65.8012 7.248 65.3812 7.656C64.9732 8.064 64.7692 8.772 64.7692 9.78V15H62.7172V5.082H64.7692V6.522ZM70.6694 3.768C70.2974 3.768 69.9854 3.642 69.7334 3.39C69.4814 3.138 69.3554 2.826 69.3554 2.454C69.3554 2.082 69.4814 1.77 69.7334 1.518C69.9854 1.266 70.2974 1.14 70.6694 1.14C71.0294 1.14 71.3354 1.266 71.5874 1.518C71.8394 1.77 71.9654 2.082 71.9654 2.454C71.9654 2.826 71.8394 3.138 71.5874 3.39C71.3354 3.642 71.0294 3.768 70.6694 3.768ZM71.6774 5.082V15H69.6254V5.082H71.6774ZM83.4615 9.798C83.4615 10.17 83.4375 10.506 83.3895 10.806H75.8115C75.8715 11.598 76.1655 12.234 76.6935 12.714C77.2215 13.194 77.8695 13.434 78.6375 13.434C79.7415 13.434 80.5215 12.972 80.9775 12.048H83.1915C82.8915 12.96 82.3455 13.71 81.5535 14.298C80.7735 14.874 79.8015 15.162 78.6375 15.162C77.6895 15.162 76.8375 14.952 76.0815 14.532C75.3375 14.1 74.7495 13.5 74.3175 12.732C73.8975 11.952 73.6875 11.052 73.6875 10.032C73.6875 9.012 73.8915 8.118 74.2995 7.35C74.7195 6.57 75.3015 5.97 76.0455 5.55C76.8015 5.13 77.6655 4.92 78.6375 4.92C79.5735 4.92 80.4075 5.124 81.1395 5.532C81.8715 5.94 82.4415 6.516 82.8495 7.26C83.2575 7.992 83.4615 8.838 83.4615 9.798ZM81.3195 9.15C81.3075 8.394 81.0375 7.788 80.5095 7.332C79.9815 6.876 79.3275 6.648 78.5475 6.648C77.8395 6.648 77.2335 6.876 76.7295 7.332C76.2255 7.776 75.9255 8.382 75.8295 9.15H81.3195ZM89.0809 15.162C88.3009 15.162 87.5989 15.024 86.9749 14.748C86.3629 14.46 85.8769 14.076 85.5169 13.596C85.1569 13.104 84.9649 12.558 84.9409 11.958H87.0649C87.1009 12.378 87.2989 12.732 87.6589 13.02C88.0309 13.296 88.4929 13.434 89.0449 13.434C89.6209 13.434 90.0649 13.326 90.3769 13.11C90.7009 12.882 90.8629 12.594 90.8629 12.246C90.8629 11.874 90.6829 11.598 90.3229 11.418C89.9749 11.238 89.4169 11.04 88.6489 10.824C87.9049 10.62 87.2989 10.422 86.8309 10.23C86.3629 10.038 85.9549 9.744 85.6069 9.348C85.2709 8.952 85.1029 8.43 85.1029 7.782C85.1029 7.254 85.2589 6.774 85.5709 6.342C85.8829 5.898 86.3269 5.55 86.9029 5.298C87.4909 5.046 88.1629 4.92 88.9189 4.92C90.0469 4.92 90.9529 5.208 91.6369 5.784C92.3329 6.348 92.7049 7.122 92.7529 8.106H90.7009C90.6649 7.662 90.4849 7.308 90.1609 7.044C89.8369 6.78 89.3989 6.648 88.8469 6.648C88.3069 6.648 87.8929 6.75 87.6049 6.954C87.3169 7.158 87.1729 7.428 87.1729 7.764C87.1729 8.028 87.2689 8.25 87.4609 8.43C87.6529 8.61 87.8869 8.754 88.1629 8.862C88.4389 8.958 88.8469 9.084 89.3869 9.24C90.1069 9.432 90.6949 9.63 91.1509 9.834C91.6189 10.026 92.0209 10.314 92.3569 10.698C92.6929 11.082 92.8669 11.592 92.8789 12.228C92.8789 12.792 92.7229 13.296 92.4109 13.74C92.0989 14.184 91.6549 14.532 91.0789 14.784C90.5149 15.036 89.8489 15.162 89.0809 15.162ZM97.3461 12.534L95.1681 17.502H93.8361L95.1141 12.534H97.3461ZM117.135 5.082L114.057 15H111.897L109.899 7.674L107.901 15H105.741L102.645 5.082H104.733L106.803 13.056L108.909 5.082H111.051L113.067 13.02L115.119 5.082H117.135ZM127.758 9.798C127.758 10.17 127.734 10.506 127.686 10.806H120.108C120.168 11.598 120.462 12.234 120.99 12.714C121.518 13.194 122.166 13.434 122.934 13.434C124.038 13.434 124.818 12.972 125.274 12.048H127.488C127.188 12.96 126.642 13.71 125.85 14.298C125.07 14.874 124.098 15.162 122.934 15.162C121.986 15.162 121.134 14.952 120.378 14.532C119.634 14.1 119.046 13.5 118.614 12.732C118.194 11.952 117.984 11.052 117.984 10.032C117.984 9.012 118.188 8.118 118.596 7.35C119.016 6.57 119.598 5.97 120.342 5.55C121.098 5.13 121.962 4.92 122.934 4.92C123.87 4.92 124.704 5.124 125.436 5.532C126.168 5.94 126.738 6.516 127.146 7.26C127.554 7.992 127.758 8.838 127.758 9.798ZM125.616 9.15C125.604 8.394 125.334 7.788 124.806 7.332C124.278 6.876 123.624 6.648 122.844 6.648C122.136 6.648 121.53 6.876 121.026 7.332C120.522 7.776 120.222 8.382 120.126 9.15H125.616ZM130.894 0.653999L130.678 4.344H129.274L129.04 0.653999H130.894ZM134.923 1.68V15H132.871V1.68H134.923ZM139.67 1.68V15H137.618V1.68H139.67ZM150.639 15.162C149.859 15.162 149.157 15.024 148.533 14.748C147.921 14.46 147.435 14.076 147.075 13.596C146.715 13.104 146.523 12.558 146.499 11.958H148.623C148.659 12.378 148.857 12.732 149.217 13.02C149.589 13.296 150.051 13.434 150.603 13.434C151.179 13.434 151.623 13.326 151.935 13.11C152.259 12.882 152.421 12.594 152.421 12.246C152.421 11.874 152.241 11.598 151.881 11.418C151.533 11.238 150.975 11.04 150.207 10.824C149.463 10.62 148.857 10.422 148.389 10.23C147.921 10.038 147.513 9.744 147.165 9.348C146.829 8.952 146.661 8.43 146.661 7.782C146.661 7.254 146.817 6.774 147.129 6.342C147.441 5.898 147.885 5.55 148.461 5.298C149.049 5.046 149.721 4.92 150.477 4.92C151.605 4.92 152.511 5.208 153.195 5.784C153.891 6.348 154.263 7.122 154.311 8.106H152.259C152.223 7.662 152.043 7.308 151.719 7.044C151.395 6.78 150.957 6.648 150.405 6.648C149.865 6.648 149.451 6.75 149.163 6.954C148.875 7.158 148.731 7.428 148.731 7.764C148.731 8.028 148.827 8.25 149.019 8.43C149.211 8.61 149.445 8.754 149.721 8.862C149.997 8.958 150.405 9.084 150.945 9.24C151.665 9.432 152.253 9.63 152.709 9.834C153.177 10.026 153.579 10.314 153.915 10.698C154.251 11.082 154.425 11.592 154.437 12.228C154.437 12.792 154.281 13.296 153.969 13.74C153.657 14.184 153.213 14.532 152.637 14.784C152.073 15.036 151.407 15.162 150.639 15.162ZM165.745 9.798C165.745 10.17 165.721 10.506 165.673 10.806H158.095C158.155 11.598 158.449 12.234 158.977 12.714C159.505 13.194 160.153 13.434 160.921 13.434C162.025 13.434 162.805 12.972 163.261 12.048H165.475C165.175 12.96 164.629 13.71 163.837 14.298C163.057 14.874 162.085 15.162 160.921 15.162C159.973 15.162 159.121 14.952 158.365 14.532C157.621 14.1 157.033 13.5 156.601 12.732C156.181 11.952 155.971 11.052 155.971 10.032C155.971 9.012 156.175 8.118 156.583 7.35C157.003 6.57 157.585 5.97 158.329 5.55C159.085 5.13 159.949 4.92 160.921 4.92C161.857 4.92 162.691 5.124 163.423 5.532C164.155 5.94 164.725 6.516 165.133 7.26C165.541 7.992 165.745 8.838 165.745 9.798ZM163.603 9.15C163.591 8.394 163.321 7.788 162.793 7.332C162.265 6.876 161.611 6.648 160.831 6.648C160.123 6.648 159.517 6.876 159.013 7.332C158.509 7.776 158.209 8.382 158.113 9.15H163.603ZM172.768 4.92C173.548 4.92 174.244 5.082 174.856 5.406C175.48 5.73 175.966 6.21 176.314 6.846C176.662 7.482 176.836 8.25 176.836 9.15V15H174.802V9.456C174.802 8.568 174.58 7.89 174.136 7.422C173.692 6.942 173.086 6.702 172.318 6.702C171.55 6.702 170.938 6.942 170.482 7.422C170.038 7.89 169.816 8.568 169.816 9.456V15H167.764V5.082H169.816V6.216C170.152 5.808 170.578 5.49 171.094 5.262C171.622 5.034 172.18 4.92 172.768 4.92ZM178.77 9.996C178.77 9 178.974 8.118 179.382 7.35C179.802 6.582 180.366 5.988 181.074 5.568C181.794 5.136 182.592 4.92 183.468 4.92C184.116 4.92 184.752 5.064 185.376 5.352C186.012 5.628 186.516 6 186.888 6.468V1.68H188.958V15H186.888V13.506C186.552 13.986 186.084 14.382 185.484 14.694C184.896 15.006 184.218 15.162 183.45 15.162C182.586 15.162 181.794 14.946 181.074 14.514C180.366 14.07 179.802 13.458 179.382 12.678C178.974 11.886 178.77 10.992 178.77 9.996ZM186.888 10.032C186.888 9.348 186.744 8.754 186.456 8.25C186.18 7.746 185.814 7.362 185.358 7.098C184.902 6.834 184.41 6.702 183.882 6.702C183.354 6.702 182.862 6.834 182.406 7.098C181.95 7.35 181.578 7.728 181.29 8.232C181.014 8.724 180.876 9.312 180.876 9.996C180.876 10.68 181.014 11.28 181.29 11.796C181.578 12.312 181.95 12.708 182.406 12.984C182.874 13.248 183.366 13.38 183.882 13.38C184.41 13.38 184.902 13.248 185.358 12.984C185.814 12.72 186.18 12.336 186.456 11.832C186.744 11.316 186.888 10.716 186.888 10.032ZM205.257 5.082L199.173 19.662H197.049L199.065 14.838L195.159 5.082H197.445L200.235 12.642L203.133 5.082H205.257ZM211.107 15.162C210.171 15.162 209.325 14.952 208.569 14.532C207.813 14.1 207.219 13.5 206.787 12.732C206.355 11.952 206.139 11.052 206.139 10.032C206.139 9.024 206.361 8.13 206.805 7.35C207.249 6.57 207.855 5.97 208.623 5.55C209.391 5.13 210.249 4.92 211.197 4.92C212.145 4.92 213.003 5.13 213.771 5.55C214.539 5.97 215.145 6.57 215.589 7.35C216.033 8.13 216.255 9.024 216.255 10.032C216.255 11.04 216.027 11.934 215.571 12.714C215.115 13.494 214.491 14.1 213.699 14.532C212.919 14.952 212.055 15.162 211.107 15.162ZM211.107 13.38C211.635 13.38 212.127 13.254 212.583 13.002C213.051 12.75 213.429 12.372 213.717 11.868C214.005 11.364 214.149 10.752 214.149 10.032C214.149 9.312 214.011 8.706 213.735 8.214C213.459 7.71 213.093 7.332 212.637 7.08C212.181 6.828 211.689 6.702 211.161 6.702C210.633 6.702 210.141 6.828 209.685 7.08C209.241 7.332 208.887 7.71 208.623 8.214C208.359 8.706 208.227 9.312 208.227 10.032C208.227 11.1 208.497 11.928 209.037 12.516C209.589 13.092 210.279 13.38 211.107 13.38ZM227.266 5.082V15H225.214V13.83C224.89 14.238 224.464 14.562 223.936 14.802C223.42 15.03 222.868 15.144 222.28 15.144C221.5 15.144 220.798 14.982 220.174 14.658C219.562 14.334 219.076 13.854 218.716 13.218C218.368 12.582 218.194 11.814 218.194 10.914V5.082H220.228V10.608C220.228 11.496 220.45 12.18 220.894 12.66C221.338 13.128 221.944 13.362 222.712 13.362C223.48 13.362 224.086 13.128 224.53 12.66C224.986 12.18 225.214 11.496 225.214 10.608V5.082H227.266ZM236.701 6.522C237.001 6.018 237.397 5.628 237.889 5.352C238.393 5.064 238.987 4.92 239.671 4.92V7.044H239.149C238.345 7.044 237.733 7.248 237.313 7.656C236.905 8.064 236.701 8.772 236.701 9.78V15H234.649V5.082H236.701V6.522ZM250.647 9.798C250.647 10.17 250.623 10.506 250.575 10.806H242.997C243.057 11.598 243.351 12.234 243.879 12.714C244.407 13.194 245.055 13.434 245.823 13.434C246.927 13.434 247.707 12.972 248.163 12.048H250.377C250.077 12.96 249.531 13.71 248.739 14.298C247.959 14.874 246.987 15.162 245.823 15.162C244.875 15.162 244.023 14.952 243.267 14.532C242.523 14.1 241.935 13.5 241.503 12.732C241.083 11.952 240.873 11.052 240.873 10.032C240.873 9.012 241.077 8.118 241.485 7.35C241.905 6.57 242.487 5.97 243.231 5.55C243.987 5.13 244.851 4.92 245.823 4.92C246.759 4.92 247.593 5.124 248.325 5.532C249.057 5.94 249.627 6.516 250.035 7.26C250.443 7.992 250.647 8.838 250.647 9.798ZM248.505 9.15C248.493 8.394 248.223 7.788 247.695 7.332C247.167 6.876 246.513 6.648 245.733 6.648C245.025 6.648 244.419 6.876 243.915 7.332C243.411 7.776 243.111 8.382 243.015 9.15H248.505ZM256.266 15.162C255.486 15.162 254.784 15.024 254.16 14.748C253.548 14.46 253.062 14.076 252.702 13.596C252.342 13.104 252.15 12.558 252.126 11.958H254.25C254.286 12.378 254.484 12.732 254.844 13.02C255.216 13.296 255.678 13.434 256.23 13.434C256.806 13.434 257.25 13.326 257.562 13.11C257.886 12.882 258.048 12.594 258.048 12.246C258.048 11.874 257.868 11.598 257.508 11.418C257.16 11.238 256.602 11.04 255.834 10.824C255.09 10.62 254.484 10.422 254.016 10.23C253.548 10.038 253.14 9.744 252.792 9.348C252.456 8.952 252.288 8.43 252.288 7.782C252.288 7.254 252.444 6.774 252.756 6.342C253.068 5.898 253.512 5.55 254.088 5.298C254.676 5.046 255.348 4.92 256.104 4.92C257.232 4.92 258.138 5.208 258.822 5.784C259.518 6.348 259.89 7.122 259.938 8.106H257.886C257.85 7.662 257.67 7.308 257.346 7.044C257.022 6.78 256.584 6.648 256.032 6.648C255.492 6.648 255.078 6.75 254.79 6.954C254.502 7.158 254.358 7.428 254.358 7.764C254.358 8.028 254.454 8.25 254.646 8.43C254.838 8.61 255.072 8.754 255.348 8.862C255.624 8.958 256.032 9.084 256.572 9.24C257.292 9.432 257.88 9.63 258.336 9.834C258.804 10.026 259.206 10.314 259.542 10.698C259.878 11.082 260.052 11.592 260.064 12.228C260.064 12.792 259.908 13.296 259.596 13.74C259.284 14.184 258.84 14.532 258.264 14.784C257.7 15.036 257.034 15.162 256.266 15.162ZM271.372 9.798C271.372 10.17 271.348 10.506 271.3 10.806H263.722C263.782 11.598 264.076 12.234 264.604 12.714C265.132 13.194 265.78 13.434 266.548 13.434C267.652 13.434 268.432 12.972 268.888 12.048H271.102C270.802 12.96 270.256 13.71 269.464 14.298C268.684 14.874 267.712 15.162 266.548 15.162C265.6 15.162 264.748 14.952 263.992 14.532C263.248 14.1 262.66 13.5 262.228 12.732C261.808 11.952 261.598 11.052 261.598 10.032C261.598 9.012 261.802 8.118 262.21 7.35C262.63 6.57 263.212 5.97 263.956 5.55C264.712 5.13 265.576 4.92 266.548 4.92C267.484 4.92 268.318 5.124 269.05 5.532C269.782 5.94 270.352 6.516 270.76 7.26C271.168 7.992 271.372 8.838 271.372 9.798ZM269.23 9.15C269.218 8.394 268.948 7.788 268.42 7.332C267.892 6.876 267.238 6.648 266.458 6.648C265.75 6.648 265.144 6.876 264.64 7.332C264.136 7.776 263.836 8.382 263.74 9.15H269.23ZM275.785 6.756V12.246C275.785 12.618 275.869 12.888 276.037 13.056C276.217 13.212 276.517 13.29 276.937 13.29H278.197V15H276.577C275.653 15 274.945 14.784 274.453 14.352C273.961 13.92 273.715 13.218 273.715 12.246V6.756H272.545V5.082H273.715V2.616H275.785V5.082H278.197V6.756H275.785ZM285.808 3.768C285.436 3.768 285.124 3.642 284.872 3.39C284.62 3.138 284.494 2.826 284.494 2.454C284.494 2.082 284.62 1.77 284.872 1.518C285.124 1.266 285.436 1.14 285.808 1.14C286.168 1.14 286.474 1.266 286.726 1.518C286.978 1.77 287.104 2.082 287.104 2.454C287.104 2.826 286.978 3.138 286.726 3.39C286.474 3.642 286.168 3.768 285.808 3.768ZM286.816 5.082V15H284.764V5.082H286.816ZM294.514 4.92C295.294 4.92 295.99 5.082 296.602 5.406C297.226 5.73 297.712 6.21 298.06 6.846C298.408 7.482 298.582 8.25 298.582 9.15V15H296.548V9.456C296.548 8.568 296.326 7.89 295.882 7.422C295.438 6.942 294.832 6.702 294.064 6.702C293.296 6.702 292.684 6.942 292.228 7.422C291.784 7.89 291.562 8.568 291.562 9.456V15H289.51V5.082H291.562V6.216C291.898 5.808 292.324 5.49 292.84 5.262C293.368 5.034 293.926 4.92 294.514 4.92ZM304.8 15.162C304.02 15.162 303.318 15.024 302.694 14.748C302.082 14.46 301.596 14.076 301.236 13.596C300.876 13.104 300.684 12.558 300.66 11.958H302.784C302.82 12.378 303.018 12.732 303.378 13.02C303.75 13.296 304.212 13.434 304.764 13.434C305.34 13.434 305.784 13.326 306.096 13.11C306.42 12.882 306.582 12.594 306.582 12.246C306.582 11.874 306.402 11.598 306.042 11.418C305.694 11.238 305.136 11.04 304.368 10.824C303.624 10.62 303.018 10.422 302.55 10.23C302.082 10.038 301.674 9.744 301.326 9.348C300.99 8.952 300.822 8.43 300.822 7.782C300.822 7.254 300.978 6.774 301.29 6.342C301.602 5.898 302.046 5.55 302.622 5.298C303.21 5.046 303.882 4.92 304.638 4.92C305.766 4.92 306.672 5.208 307.356 5.784C308.052 6.348 308.424 7.122 308.472 8.106H306.42C306.384 7.662 306.204 7.308 305.88 7.044C305.556 6.78 305.118 6.648 304.566 6.648C304.026 6.648 303.612 6.75 303.324 6.954C303.036 7.158 302.892 7.428 302.892 7.764C302.892 8.028 302.988 8.25 303.18 8.43C303.372 8.61 303.606 8.754 303.882 8.862C304.158 8.958 304.566 9.084 305.106 9.24C305.826 9.432 306.414 9.63 306.87 9.834C307.338 10.026 307.74 10.314 308.076 10.698C308.412 11.082 308.586 11.592 308.598 12.228C308.598 12.792 308.442 13.296 308.13 13.74C307.818 14.184 307.374 14.532 306.798 14.784C306.234 15.036 305.568 15.162 304.8 15.162ZM313.209 6.756V12.246C313.209 12.618 313.293 12.888 313.461 13.056C313.641 13.212 313.941 13.29 314.361 13.29H315.621V15H314.001C313.077 15 312.369 14.784 311.877 14.352C311.385 13.92 311.139 13.218 311.139 12.246V6.756H309.969V5.082H311.139V2.616H313.209V5.082H315.621V6.756H313.209ZM319.564 6.522C319.864 6.018 320.26 5.628 320.752 5.352C321.256 5.064 321.85 4.92 322.534 4.92V7.044H322.012C321.208 7.044 320.596 7.248 320.176 7.656C319.768 8.064 319.564 8.772 319.564 9.78V15H317.512V5.082H319.564V6.522ZM333.402 5.082V15H331.35V13.83C331.026 14.238 330.6 14.562 330.072 14.802C329.556 15.03 329.004 15.144 328.416 15.144C327.636 15.144 326.934 14.982 326.31 14.658C325.698 14.334 325.212 13.854 324.852 13.218C324.504 12.582 324.33 11.814 324.33 10.914V5.082H326.364V10.608C326.364 11.496 326.586 12.18 327.03 12.66C327.474 13.128 328.08 13.362 328.848 13.362C329.616 13.362 330.222 13.128 330.666 12.66C331.122 12.18 331.35 11.496 331.35 10.608V5.082H333.402ZM335.426 10.032C335.426 9.012 335.63 8.118 336.038 7.35C336.458 6.57 337.034 5.97 337.766 5.55C338.498 5.13 339.338 4.92 340.286 4.92C341.486 4.92 342.476 5.208 343.256 5.784C344.048 6.348 344.582 7.158 344.858 8.214H342.644C342.464 7.722 342.176 7.338 341.78 7.062C341.384 6.786 340.886 6.648 340.286 6.648C339.446 6.648 338.774 6.948 338.27 7.548C337.778 8.136 337.532 8.964 337.532 10.032C337.532 11.1 337.778 11.934 338.27 12.534C338.774 13.134 339.446 13.434 340.286 13.434C341.474 13.434 342.26 12.912 342.644 11.868H344.858C344.57 12.876 344.03 13.68 343.238 14.28C342.446 14.868 341.462 15.162 340.286 15.162C339.338 15.162 338.498 14.952 337.766 14.532C337.034 14.1 336.458 13.5 336.038 12.732C335.63 11.952 335.426 11.052 335.426 10.032ZM349.297 6.756V12.246C349.297 12.618 349.381 12.888 349.549 13.056C349.729 13.212 350.029 13.29 350.449 13.29H351.709V15H350.089C349.165 15 348.457 14.784 347.965 14.352C347.473 13.92 347.227 13.218 347.227 12.246V6.756H346.057V5.082H347.227V2.616H349.297V5.082H351.709V6.756H349.297ZM354.644 3.768C354.272 3.768 353.96 3.642 353.708 3.39C353.456 3.138 353.33 2.826 353.33 2.454C353.33 2.082 353.456 1.77 353.708 1.518C353.96 1.266 354.272 1.14 354.644 1.14C355.004 1.14 355.31 1.266 355.562 1.518C355.814 1.77 355.94 2.082 355.94 2.454C355.94 2.826 355.814 3.138 355.562 3.39C355.31 3.642 355.004 3.768 354.644 3.768ZM355.652 5.082V15H353.6V5.082H355.652ZM362.648 15.162C361.712 15.162 360.866 14.952 360.11 14.532C359.354 14.1 358.76 13.5 358.328 12.732C357.896 11.952 357.68 11.052 357.68 10.032C357.68 9.024 357.902 8.13 358.346 7.35C358.79 6.57 359.396 5.97 360.164 5.55C360.932 5.13 361.79 4.92 362.738 4.92C363.686 4.92 364.544 5.13 365.312 5.55C366.08 5.97 366.686 6.57 367.13 7.35C367.574 8.13 367.796 9.024 367.796 10.032C367.796 11.04 367.568 11.934 367.112 12.714C366.656 13.494 366.032 14.1 365.24 14.532C364.46 14.952 363.596 15.162 362.648 15.162ZM362.648 13.38C363.176 13.38 363.668 13.254 364.124 13.002C364.592 12.75 364.97 12.372 365.258 11.868C365.546 11.364 365.69 10.752 365.69 10.032C365.69 9.312 365.552 8.706 365.276 8.214C365 7.71 364.634 7.332 364.178 7.08C363.722 6.828 363.23 6.702 362.702 6.702C362.174 6.702 361.682 6.828 361.226 7.08C360.782 7.332 360.428 7.71 360.164 8.214C359.9 8.706 359.768 9.312 359.768 10.032C359.768 11.1 360.038 11.928 360.578 12.516C361.13 13.092 361.82 13.38 362.648 13.38ZM374.829 4.92C375.609 4.92 376.305 5.082 376.917 5.406C377.541 5.73 378.027 6.21 378.375 6.846C378.723 7.482 378.897 8.25 378.897 9.15V15H376.863V9.456C376.863 8.568 376.641 7.89 376.197 7.422C375.753 6.942 375.147 6.702 374.379 6.702C373.611 6.702 372.999 6.942 372.543 7.422C372.099 7.89 371.877 8.568 371.877 9.456V15H369.825V5.082H371.877V6.216C372.213 5.808 372.639 5.49 373.155 5.262C373.683 5.034 374.241 4.92 374.829 4.92ZM385.114 15.162C384.334 15.162 383.632 15.024 383.008 14.748C382.396 14.46 381.91 14.076 381.55 13.596C381.19 13.104 380.998 12.558 380.974 11.958H383.098C383.134 12.378 383.332 12.732 383.692 13.02C384.064 13.296 384.526 13.434 385.078 13.434C385.654 13.434 386.098 13.326 386.41 13.11C386.734 12.882 386.896 12.594 386.896 12.246C386.896 11.874 386.716 11.598 386.356 11.418C386.008 11.238 385.45 11.04 384.682 10.824C383.938 10.62 383.332 10.422 382.864 10.23C382.396 10.038 381.988 9.744 381.64 9.348C381.304 8.952 381.136 8.43 381.136 7.782C381.136 7.254 381.292 6.774 381.604 6.342C381.916 5.898 382.36 5.55 382.936 5.298C383.524 5.046 384.196 4.92 384.952 4.92C386.08 4.92 386.986 5.208 387.67 5.784C388.366 6.348 388.738 7.122 388.786 8.106H386.734C386.698 7.662 386.518 7.308 386.194 7.044C385.87 6.78 385.432 6.648 384.88 6.648C384.34 6.648 383.926 6.75 383.638 6.954C383.35 7.158 383.206 7.428 383.206 7.764C383.206 8.028 383.302 8.25 383.494 8.43C383.686 8.61 383.92 8.754 384.196 8.862C384.472 8.958 384.88 9.084 385.42 9.24C386.14 9.432 386.728 9.63 387.184 9.834C387.652 10.026 388.054 10.314 388.39 10.698C388.726 11.082 388.9 11.592 388.912 12.228C388.912 12.792 388.756 13.296 388.444 13.74C388.132 14.184 387.688 14.532 387.112 14.784C386.548 15.036 385.882 15.162 385.114 15.162ZM391.957 15.126C391.585 15.126 391.273 15 391.021 14.748C390.769 14.496 390.643 14.184 390.643 13.812C390.643 13.44 390.769 13.128 391.021 12.876C391.273 12.624 391.585 12.498 391.957 12.498C392.317 12.498 392.623 12.624 392.875 12.876C393.127 13.128 393.253 13.44 393.253 13.812C393.253 14.184 393.127 14.496 392.875 14.748C392.623 15 392.317 15.126 391.957 15.126Z" fill="#060707"/>
</svg>
