<svg width="512" height="29" viewBox="0 0 512 29" fill="none" xmlns="http://www.w3.org/2000/svg">
<rect y="15" width="512" height="1" fill="#CDCDCD"/>
<rect width="151" height="29" transform="translate(181)" fill="white"/>
<path opacity="0.4" d="M196.502 19.098C195.597 19.098 194.771 18.888 194.024 18.468C193.277 18.0387 192.685 17.446 192.246 16.69C191.817 15.9247 191.602 15.066 191.602 14.114C191.602 13.162 191.817 12.308 192.246 11.552C192.685 10.7867 193.277 10.194 194.024 9.774C194.771 9.34467 195.597 9.13 196.502 9.13C197.417 9.13 198.247 9.34467 198.994 9.774C199.741 10.194 200.329 10.782 200.758 11.538C201.187 12.294 201.402 13.1527 201.402 14.114C201.402 15.0753 201.187 15.934 200.758 16.69C200.329 17.446 199.741 18.0387 198.994 18.468C198.247 18.888 197.417 19.098 196.502 19.098ZM196.502 17.992C197.183 17.992 197.795 17.8333 198.336 17.516C198.887 17.1987 199.316 16.746 199.624 16.158C199.941 15.57 200.1 14.8887 200.1 14.114C200.1 13.33 199.941 12.6487 199.624 12.07C199.316 11.482 198.891 11.0293 198.35 10.712C197.809 10.3947 197.193 10.236 196.502 10.236C195.811 10.236 195.195 10.3947 194.654 10.712C194.113 11.0293 193.683 11.482 193.366 12.07C193.058 12.6487 192.904 13.33 192.904 14.114C192.904 14.8887 193.058 15.57 193.366 16.158C193.683 16.746 194.113 17.1987 194.654 17.516C195.205 17.8333 195.821 17.992 196.502 17.992ZM204.358 12.574C204.582 12.1353 204.899 11.7947 205.31 11.552C205.73 11.3093 206.239 11.188 206.836 11.188V12.504H206.5C205.072 12.504 204.358 13.2787 204.358 14.828V19H203.084V11.328H204.358V12.574ZM213.313 8.64V19H212.039V8.64H213.313ZM218.83 19.126C218.112 19.126 217.458 18.9627 216.87 18.636C216.292 18.3093 215.834 17.8473 215.498 17.25C215.172 16.6433 215.008 15.9433 215.008 15.15C215.008 14.366 215.176 13.6753 215.512 13.078C215.858 12.4713 216.324 12.0093 216.912 11.692C217.5 11.3653 218.158 11.202 218.886 11.202C219.614 11.202 220.272 11.3653 220.86 11.692C221.448 12.0093 221.91 12.4667 222.246 13.064C222.592 13.6613 222.764 14.3567 222.764 15.15C222.764 15.9433 222.587 16.6433 222.232 17.25C221.887 17.8473 221.416 18.3093 220.818 18.636C220.221 18.9627 219.558 19.126 218.83 19.126ZM218.83 18.006C219.288 18.006 219.717 17.8987 220.118 17.684C220.52 17.4693 220.842 17.1473 221.084 16.718C221.336 16.2887 221.462 15.766 221.462 15.15C221.462 14.534 221.341 14.0113 221.098 13.582C220.856 13.1527 220.538 12.8353 220.146 12.63C219.754 12.4153 219.33 12.308 218.872 12.308C218.406 12.308 217.976 12.4153 217.584 12.63C217.202 12.8353 216.894 13.1527 216.66 13.582C216.427 14.0113 216.31 14.534 216.31 15.15C216.31 15.7753 216.422 16.3027 216.646 16.732C216.88 17.1613 217.188 17.4833 217.57 17.698C217.953 17.9033 218.373 18.006 218.83 18.006ZM227.603 11.202C228.266 11.202 228.845 11.3467 229.339 11.636C229.843 11.9253 230.217 12.2893 230.459 12.728V11.328H231.747V19.168C231.747 19.868 231.598 20.4887 231.299 21.03C231.001 21.5807 230.571 22.01 230.011 22.318C229.461 22.626 228.817 22.78 228.079 22.78C227.071 22.78 226.231 22.542 225.559 22.066C224.887 21.59 224.491 20.9413 224.369 20.12H225.629C225.769 20.5867 226.059 20.96 226.497 21.24C226.936 21.5293 227.463 21.674 228.079 21.674C228.779 21.674 229.349 21.4547 229.787 21.016C230.235 20.5773 230.459 19.9613 230.459 19.168V17.558C230.207 18.006 229.834 18.3793 229.339 18.678C228.845 18.9767 228.266 19.126 227.603 19.126C226.922 19.126 226.301 18.958 225.741 18.622C225.191 18.286 224.757 17.8147 224.439 17.208C224.122 16.6013 223.963 15.9107 223.963 15.136C223.963 14.352 224.122 13.666 224.439 13.078C224.757 12.4807 225.191 12.0187 225.741 11.692C226.301 11.3653 226.922 11.202 227.603 11.202ZM230.459 15.15C230.459 14.5713 230.343 14.0673 230.109 13.638C229.876 13.2087 229.559 12.882 229.157 12.658C228.765 12.4247 228.331 12.308 227.855 12.308C227.379 12.308 226.945 12.42 226.553 12.644C226.161 12.868 225.849 13.1947 225.615 13.624C225.382 14.0533 225.265 14.5573 225.265 15.136C225.265 15.724 225.382 16.2373 225.615 16.676C225.849 17.1053 226.161 17.4367 226.553 17.67C226.945 17.894 227.379 18.006 227.855 18.006C228.331 18.006 228.765 17.894 229.157 17.67C229.559 17.4367 229.876 17.1053 230.109 16.676C230.343 16.2373 230.459 15.7287 230.459 15.15ZM234.558 10.082C234.316 10.082 234.11 9.998 233.942 9.83C233.774 9.662 233.69 9.45667 233.69 9.214C233.69 8.97133 233.774 8.766 233.942 8.598C234.11 8.43 234.316 8.346 234.558 8.346C234.792 8.346 234.988 8.43 235.146 8.598C235.314 8.766 235.398 8.97133 235.398 9.214C235.398 9.45667 235.314 9.662 235.146 9.83C234.988 9.998 234.792 10.082 234.558 10.082ZM235.174 11.328V19H233.9V11.328H235.174ZM241.084 11.188C242.017 11.188 242.773 11.4727 243.352 12.042C243.93 12.602 244.22 13.414 244.22 14.478V19H242.96V14.66C242.96 13.8947 242.768 13.3113 242.386 12.91C242.003 12.4993 241.48 12.294 240.818 12.294C240.146 12.294 239.609 12.504 239.208 12.924C238.816 13.344 238.62 13.9553 238.62 14.758V19H237.346V11.328H238.62V12.42C238.872 12.028 239.212 11.7247 239.642 11.51C240.08 11.2953 240.561 11.188 241.084 11.188ZM260.253 11.328L257.859 19H256.543L254.695 12.91L252.847 19H251.531L249.123 11.328H250.425L252.189 17.768L254.093 11.328H255.395L257.257 17.782L258.993 11.328H260.253ZM262.175 10.082C261.933 10.082 261.727 9.998 261.559 9.83C261.391 9.662 261.307 9.45667 261.307 9.214C261.307 8.97133 261.391 8.766 261.559 8.598C261.727 8.43 261.933 8.346 262.175 8.346C262.409 8.346 262.605 8.43 262.763 8.598C262.931 8.766 263.015 8.97133 263.015 9.214C263.015 9.45667 262.931 9.662 262.763 9.83C262.605 9.998 262.409 10.082 262.175 10.082ZM262.791 11.328V19H261.517V11.328H262.791ZM266.517 12.378V16.9C266.517 17.2733 266.596 17.5393 266.755 17.698C266.913 17.8473 267.189 17.922 267.581 17.922H268.519V19H267.371C266.661 19 266.129 18.8367 265.775 18.51C265.42 18.1833 265.243 17.6467 265.243 16.9V12.378H264.249V11.328H265.243V9.396H266.517V11.328H268.519V12.378H266.517ZM273.87 11.188C274.449 11.188 274.972 11.314 275.438 11.566C275.905 11.8087 276.269 12.1773 276.53 12.672C276.801 13.1667 276.936 13.7687 276.936 14.478V19H275.676V14.66C275.676 13.8947 275.485 13.3113 275.102 12.91C274.72 12.4993 274.197 12.294 273.534 12.294C272.862 12.294 272.326 12.504 271.924 12.924C271.532 13.344 271.336 13.9553 271.336 14.758V19H270.062V8.64H271.336V12.42C271.588 12.028 271.934 11.7247 272.372 11.51C272.82 11.2953 273.32 11.188 273.87 11.188ZM289.75 14.87C289.75 15.1127 289.736 15.3693 289.708 15.64H283.576C283.623 16.396 283.879 16.9887 284.346 17.418C284.822 17.838 285.396 18.048 286.068 18.048C286.619 18.048 287.076 17.922 287.44 17.67C287.813 17.4087 288.075 17.0633 288.224 16.634H289.596C289.391 17.3713 288.98 17.9733 288.364 18.44C287.748 18.8973 286.983 19.126 286.068 19.126C285.34 19.126 284.687 18.9627 284.108 18.636C283.539 18.3093 283.091 17.8473 282.764 17.25C282.437 16.6433 282.274 15.9433 282.274 15.15C282.274 14.3567 282.433 13.6613 282.75 13.064C283.067 12.4667 283.511 12.0093 284.08 11.692C284.659 11.3653 285.321 11.202 286.068 11.202C286.796 11.202 287.44 11.3607 288 11.678C288.56 11.9953 288.989 12.434 289.288 12.994C289.596 13.5447 289.75 14.17 289.75 14.87ZM288.434 14.604C288.434 14.1187 288.327 13.7033 288.112 13.358C287.897 13.0033 287.603 12.7373 287.23 12.56C286.866 12.3733 286.46 12.28 286.012 12.28C285.368 12.28 284.817 12.4853 284.36 12.896C283.912 13.3067 283.655 13.876 283.59 14.604H288.434ZM300.658 11.188C301.255 11.188 301.787 11.314 302.254 11.566C302.72 11.8087 303.089 12.1773 303.36 12.672C303.63 13.1667 303.766 13.7687 303.766 14.478V19H302.506V14.66C302.506 13.8947 302.314 13.3113 301.932 12.91C301.558 12.4993 301.05 12.294 300.406 12.294C299.743 12.294 299.216 12.5087 298.824 12.938C298.432 13.358 298.236 13.9693 298.236 14.772V19H296.976V14.66C296.976 13.8947 296.784 13.3113 296.402 12.91C296.028 12.4993 295.52 12.294 294.876 12.294C294.213 12.294 293.686 12.5087 293.294 12.938C292.902 13.358 292.706 13.9693 292.706 14.772V19H291.432V11.328H292.706V12.434C292.958 12.0327 293.294 11.7247 293.714 11.51C294.143 11.2953 294.614 11.188 295.128 11.188C295.772 11.188 296.341 11.3327 296.836 11.622C297.33 11.9113 297.699 12.336 297.942 12.896C298.156 12.3547 298.511 11.9347 299.006 11.636C299.5 11.3373 300.051 11.188 300.658 11.188ZM305.379 15.136C305.379 14.352 305.538 13.666 305.855 13.078C306.173 12.4807 306.607 12.0187 307.157 11.692C307.717 11.3653 308.338 11.202 309.019 11.202C309.691 11.202 310.275 11.3467 310.769 11.636C311.264 11.9253 311.633 12.2893 311.875 12.728V11.328H313.163V19H311.875V17.572C311.623 18.02 311.245 18.3933 310.741 18.692C310.247 18.9813 309.668 19.126 309.005 19.126C308.324 19.126 307.708 18.958 307.157 18.622C306.607 18.286 306.173 17.8147 305.855 17.208C305.538 16.6013 305.379 15.9107 305.379 15.136ZM311.875 15.15C311.875 14.5713 311.759 14.0673 311.525 13.638C311.292 13.2087 310.975 12.882 310.573 12.658C310.181 12.4247 309.747 12.308 309.271 12.308C308.795 12.308 308.361 12.42 307.969 12.644C307.577 12.868 307.265 13.1947 307.031 13.624C306.798 14.0533 306.681 14.5573 306.681 15.136C306.681 15.724 306.798 16.2373 307.031 16.676C307.265 17.1053 307.577 17.4367 307.969 17.67C308.361 17.894 308.795 18.006 309.271 18.006C309.747 18.006 310.181 17.894 310.573 17.67C310.975 17.4367 311.292 17.1053 311.525 16.676C311.759 16.2373 311.875 15.7287 311.875 15.15ZM315.974 10.082C315.732 10.082 315.526 9.998 315.358 9.83C315.19 9.662 315.106 9.45667 315.106 9.214C315.106 8.97133 315.19 8.766 315.358 8.598C315.526 8.43 315.732 8.346 315.974 8.346C316.208 8.346 316.404 8.43 316.562 8.598C316.73 8.766 316.814 8.97133 316.814 9.214C316.814 9.45667 316.73 9.662 316.562 9.83C316.404 9.998 316.208 10.082 315.974 10.082ZM316.59 11.328V19H315.316V11.328H316.59ZM320.036 8.64V19H318.762V8.64H320.036Z" fill="#060707"/>
</svg>
