<svg width="512" height="29" viewBox="0 0 512 29" fill="none" xmlns="http://www.w3.org/2000/svg">
<rect y="15" width="512" height="1" fill="#CED4DA"/>
<rect width="40" height="29" transform="translate(236)" fill="white"/>
<path opacity="0.4" d="M251.502 19.098C250.597 19.098 249.771 18.888 249.024 18.468C248.277 18.0387 247.685 17.446 247.246 16.69C246.817 15.9247 246.602 15.066 246.602 14.114C246.602 13.162 246.817 12.308 247.246 11.552C247.685 10.7867 248.277 10.194 249.024 9.774C249.771 9.34467 250.597 9.13 251.502 9.13C252.417 9.13 253.247 9.34467 253.994 9.774C254.741 10.194 255.329 10.782 255.758 11.538C256.187 12.294 256.402 13.1527 256.402 14.114C256.402 15.0753 256.187 15.934 255.758 16.69C255.329 17.446 254.741 18.0387 253.994 18.468C253.247 18.888 252.417 19.098 251.502 19.098ZM251.502 17.992C252.183 17.992 252.795 17.8333 253.336 17.516C253.887 17.1987 254.316 16.746 254.624 16.158C254.941 15.57 255.1 14.8887 255.1 14.114C255.1 13.33 254.941 12.6487 254.624 12.07C254.316 11.482 253.891 11.0293 253.35 10.712C252.809 10.3947 252.193 10.236 251.502 10.236C250.811 10.236 250.195 10.3947 249.654 10.712C249.113 11.0293 248.683 11.482 248.366 12.07C248.058 12.6487 247.904 13.33 247.904 14.114C247.904 14.8887 248.058 15.57 248.366 16.158C248.683 16.746 249.113 17.1987 249.654 17.516C250.205 17.8333 250.821 17.992 251.502 17.992ZM263.222 19L260.898 15.01H259.358V19H258.084V9.242H261.234C261.971 9.242 262.592 9.368 263.096 9.62C263.609 9.872 263.992 10.2127 264.244 10.642C264.496 11.0713 264.622 11.5613 264.622 12.112C264.622 12.784 264.426 13.3767 264.034 13.89C263.651 14.4033 263.073 14.744 262.298 14.912L264.748 19H263.222ZM259.358 13.988H261.234C261.925 13.988 262.443 13.82 262.788 13.484C263.133 13.1387 263.306 12.6813 263.306 12.112C263.306 11.5333 263.133 11.0853 262.788 10.768C262.452 10.4507 261.934 10.292 261.234 10.292H259.358V13.988Z" fill="#060707"/>
</svg>
