<svg width="477" height="52" viewBox="0 0 477 52" fill="none" xmlns="http://www.w3.org/2000/svg">
<path d="M26.656 16.152C26.656 18.104 26.208 19.896 25.312 21.528C24.416 23.128 23.04 24.424 21.184 25.416C19.328 26.408 17.024 26.904 14.272 26.904H9.184V39H0.976V5.304H14.272C16.96 5.304 19.232 5.768 21.088 6.696C22.944 7.624 24.336 8.904 25.264 10.536C26.192 12.168 26.656 14.04 26.656 16.152ZM13.648 20.376C15.216 20.376 16.384 20.008 17.152 19.272C17.92 18.536 18.304 17.496 18.304 16.152C18.304 14.808 17.92 13.768 17.152 13.032C16.384 12.296 15.216 11.928 13.648 11.928H9.184V20.376H13.648ZM43.1211 39.384C40.4971 39.384 38.1291 38.824 36.0171 37.704C33.9371 36.584 32.2891 34.984 31.0731 32.904C29.8891 30.824 29.2971 28.392 29.2971 25.608C29.2971 22.856 29.9051 20.44 31.1211 18.36C32.3371 16.248 34.0011 14.632 36.1131 13.512C38.2251 12.392 40.5931 11.832 43.2171 11.832C45.8411 11.832 48.2091 12.392 50.3211 13.512C52.4331 14.632 54.0971 16.248 55.3131 18.36C56.5291 20.44 57.1371 22.856 57.1371 25.608C57.1371 28.36 56.5131 30.792 55.2651 32.904C54.0491 34.984 52.3691 36.584 50.2251 37.704C48.1131 38.824 45.7451 39.384 43.1211 39.384ZM43.1211 32.28C44.6891 32.28 46.0171 31.704 47.1051 30.552C48.2251 29.4 48.7851 27.752 48.7851 25.608C48.7851 23.464 48.2411 21.816 47.1531 20.664C46.0971 19.512 44.7851 18.936 43.2171 18.936C41.6171 18.936 40.2891 19.512 39.2331 20.664C38.1771 21.784 37.6491 23.432 37.6491 25.608C37.6491 27.752 38.1611 29.4 39.1851 30.552C40.2411 31.704 41.5531 32.28 43.1211 32.28ZM69.6996 16.008C70.4996 14.76 71.6036 13.752 73.0116 12.984C74.4196 12.216 76.0676 11.832 77.9556 11.832C80.1636 11.832 82.1636 12.392 83.9556 13.512C85.7476 14.632 87.1556 16.232 88.1796 18.312C89.2356 20.392 89.7636 22.808 89.7636 25.56C89.7636 28.312 89.2356 30.744 88.1796 32.856C87.1556 34.936 85.7476 36.552 83.9556 37.704C82.1636 38.824 80.1636 39.384 77.9556 39.384C76.0996 39.384 74.4516 39 73.0116 38.232C71.6036 37.464 70.4996 36.472 69.6996 35.256V51.768H61.4916V12.216H69.6996V16.008ZM81.4116 25.56C81.4116 23.512 80.8356 21.912 79.6836 20.76C78.5636 19.576 77.1716 18.984 75.5076 18.984C73.8756 18.984 72.4836 19.576 71.3316 20.76C70.2116 21.944 69.6516 23.56 69.6516 25.608C69.6516 27.656 70.2116 29.272 71.3316 30.456C72.4836 31.64 73.8756 32.232 75.5076 32.232C77.1396 32.232 78.5316 31.64 79.6836 30.456C80.8356 29.24 81.4116 27.608 81.4116 25.56ZM120.518 12.216V39H112.31V35.352C111.478 36.536 110.342 37.496 108.902 38.232C107.494 38.936 105.926 39.288 104.198 39.288C102.15 39.288 100.342 38.84 98.7738 37.944C97.2058 37.016 95.9898 35.688 95.1258 33.96C94.2618 32.232 93.8298 30.2 93.8298 27.864V12.216H101.99V26.76C101.99 28.552 102.454 29.944 103.382 30.936C104.31 31.928 105.558 32.424 107.126 32.424C108.726 32.424 109.99 31.928 110.918 30.936C111.846 29.944 112.31 28.552 112.31 26.76V12.216H120.518ZM134.622 3.48V39H126.414V3.48H134.622ZM138.938 25.56C138.938 22.808 139.45 20.392 140.474 18.312C141.53 16.232 142.954 14.632 144.746 13.512C146.538 12.392 148.538 11.832 150.746 11.832C152.634 11.832 154.282 12.216 155.69 12.984C157.13 13.752 158.234 14.76 159.002 16.008V12.216H167.21V39H159.002V35.208C158.202 36.456 157.082 37.464 155.642 38.232C154.234 39 152.586 39.384 150.698 39.384C148.522 39.384 146.538 38.824 144.746 37.704C142.954 36.552 141.53 34.936 140.474 32.856C139.45 30.744 138.938 28.312 138.938 25.56ZM159.002 25.608C159.002 23.56 158.426 21.944 157.274 20.76C156.154 19.576 154.778 18.984 153.146 18.984C151.514 18.984 150.122 19.576 148.97 20.76C147.85 21.912 147.29 23.512 147.29 25.56C147.29 27.608 147.85 29.24 148.97 30.456C150.122 31.64 151.514 32.232 153.146 32.232C154.778 32.232 156.154 31.64 157.274 30.456C158.426 29.272 159.002 27.656 159.002 25.608ZM181.356 16.68C182.316 15.208 183.516 14.056 184.956 13.224C186.396 12.36 187.996 11.928 189.756 11.928V20.616H187.5C185.452 20.616 183.916 21.064 182.892 21.96C181.868 22.824 181.356 24.36 181.356 26.568V39H173.148V12.216H181.356V16.68ZM202.459 22.104C202.459 18.776 203.179 15.816 204.619 13.224C206.059 10.6 208.059 8.568 210.619 7.128C213.211 5.656 216.139 4.92 219.403 4.92C223.403 4.92 226.827 5.976 229.675 8.088C232.523 10.2 234.427 13.08 235.387 16.728H226.363C225.691 15.32 224.731 14.248 223.483 13.512C222.267 12.776 220.875 12.408 219.307 12.408C216.779 12.408 214.731 13.288 213.163 15.048C211.595 16.808 210.811 19.16 210.811 22.104C210.811 25.048 211.595 27.4 213.163 29.16C214.731 30.92 216.779 31.8 219.307 31.8C220.875 31.8 222.267 31.432 223.483 30.696C224.731 29.96 225.691 28.888 226.363 27.48H235.387C234.427 31.128 232.523 34.008 229.675 36.12C226.827 38.2 223.403 39.24 219.403 39.24C216.139 39.24 213.211 38.52 210.619 37.08C208.059 35.608 206.059 33.576 204.619 30.984C203.179 28.392 202.459 25.432 202.459 22.104ZM252.606 39.384C249.982 39.384 247.614 38.824 245.502 37.704C243.422 36.584 241.774 34.984 240.558 32.904C239.374 30.824 238.782 28.392 238.782 25.608C238.782 22.856 239.39 20.44 240.605 18.36C241.822 16.248 243.486 14.632 245.598 13.512C247.71 12.392 250.078 11.832 252.702 11.832C255.326 11.832 257.694 12.392 259.806 13.512C261.918 14.632 263.582 16.248 264.798 18.36C266.014 20.44 266.622 22.856 266.622 25.608C266.622 28.36 265.998 30.792 264.75 32.904C263.534 34.984 261.854 36.584 259.71 37.704C257.598 38.824 255.23 39.384 252.606 39.384ZM252.606 32.28C254.174 32.28 255.502 31.704 256.59 30.552C257.71 29.4 258.27 27.752 258.27 25.608C258.27 23.464 257.726 21.816 256.638 20.664C255.582 19.512 254.27 18.936 252.702 18.936C251.102 18.936 249.774 19.512 248.718 20.664C247.662 21.784 247.134 23.432 247.134 25.608C247.134 27.752 247.646 29.4 248.67 30.552C249.726 31.704 251.038 32.28 252.606 32.28ZM279.184 3.48V39H270.976V3.48H279.184ZM293.34 3.48V39H285.132V3.48H293.34ZM324.536 25.176C324.536 25.944 324.489 26.744 324.393 27.576H305.817C305.945 29.24 306.473 30.52 307.401 31.416C308.361 32.28 309.529 32.712 310.905 32.712C312.953 32.712 314.377 31.848 315.177 30.12H323.913C323.465 31.88 322.649 33.464 321.465 34.872C320.313 36.28 318.857 37.384 317.097 38.184C315.337 38.984 313.369 39.384 311.193 39.384C308.569 39.384 306.233 38.824 304.185 37.704C302.137 36.584 300.537 34.984 299.385 32.904C298.233 30.824 297.657 28.392 297.657 25.608C297.657 22.824 298.217 20.392 299.337 18.312C300.489 16.232 302.089 14.632 304.137 13.512C306.185 12.392 308.537 11.832 311.193 11.832C313.785 11.832 316.089 12.376 318.105 13.464C320.121 14.552 321.689 16.104 322.809 18.12C323.961 20.136 324.536 22.488 324.536 25.176ZM316.137 23.016C316.137 21.608 315.657 20.488 314.697 19.656C313.737 18.824 312.537 18.408 311.097 18.408C309.721 18.408 308.553 18.808 307.593 19.608C306.665 20.408 306.089 21.544 305.865 23.016H316.137ZM327.235 25.608C327.235 22.824 327.795 20.392 328.915 18.312C330.067 16.232 331.651 14.632 333.667 13.512C335.715 12.392 338.051 11.832 340.675 11.832C344.035 11.832 346.835 12.712 349.075 14.472C351.347 16.232 352.835 18.712 353.539 21.912H344.803C344.067 19.864 342.643 18.84 340.531 18.84C339.027 18.84 337.827 19.432 336.931 20.616C336.035 21.768 335.587 23.432 335.587 25.608C335.587 27.784 336.035 29.464 336.931 30.648C337.827 31.8 339.027 32.376 340.531 32.376C342.643 32.376 344.067 31.352 344.803 29.304H353.539C352.835 32.44 351.347 34.904 349.075 36.696C346.803 38.488 344.003 39.384 340.675 39.384C338.051 39.384 335.715 38.824 333.667 37.704C331.651 36.584 330.067 34.984 328.915 32.904C327.795 30.824 327.235 28.392 327.235 25.608ZM372.857 32.04V39H368.681C365.705 39 363.385 38.28 361.721 36.84C360.057 35.368 359.225 32.984 359.225 29.688V19.032H355.961V12.216H359.225V5.688H367.433V12.216H372.809V19.032H367.433V29.784C367.433 30.584 367.625 31.16 368.009 31.512C368.393 31.864 369.033 32.04 369.929 32.04H372.857ZM381.557 9.432C380.117 9.432 378.933 9.016 378.005 8.184C377.109 7.32 376.661 6.264 376.661 5.016C376.661 3.736 377.109 2.68 378.005 1.848C378.933 0.983997 380.117 0.551997 381.557 0.551997C382.965 0.551997 384.117 0.983997 385.013 1.848C385.941 2.68 386.405 3.736 386.405 5.016C386.405 6.264 385.941 7.32 385.013 8.184C384.117 9.016 382.965 9.432 381.557 9.432ZM385.637 12.216V39H377.429V12.216H385.637ZM403.777 39.384C401.153 39.384 398.785 38.824 396.673 37.704C394.593 36.584 392.945 34.984 391.729 32.904C390.545 30.824 389.953 28.392 389.953 25.608C389.953 22.856 390.561 20.44 391.777 18.36C392.993 16.248 394.657 14.632 396.769 13.512C398.881 12.392 401.249 11.832 403.873 11.832C406.497 11.832 408.865 12.392 410.977 13.512C413.089 14.632 414.753 16.248 415.969 18.36C417.185 20.44 417.793 22.856 417.793 25.608C417.793 28.36 417.169 30.792 415.921 32.904C414.705 34.984 413.025 36.584 410.881 37.704C408.769 38.824 406.401 39.384 403.777 39.384ZM403.777 32.28C405.345 32.28 406.673 31.704 407.761 30.552C408.881 29.4 409.441 27.752 409.441 25.608C409.441 23.464 408.897 21.816 407.809 20.664C406.753 19.512 405.441 18.936 403.873 18.936C402.273 18.936 400.945 19.512 399.889 20.664C398.833 21.784 398.305 23.432 398.305 25.608C398.305 27.752 398.817 29.4 399.841 30.552C400.897 31.704 402.209 32.28 403.777 32.28ZM438.468 11.928C441.604 11.928 444.1 12.952 445.956 15C447.844 17.016 448.788 19.8 448.788 23.352V39H440.628V24.456C440.628 22.664 440.164 21.272 439.236 20.28C438.308 19.288 437.06 18.792 435.492 18.792C433.924 18.792 432.676 19.288 431.748 20.28C430.82 21.272 430.356 22.664 430.356 24.456V39H422.148V12.216H430.356V15.768C431.188 14.584 432.308 13.656 433.716 12.984C435.124 12.28 436.708 11.928 438.468 11.928ZM465.388 39.384C463.052 39.384 460.972 38.984 459.148 38.184C457.324 37.384 455.884 36.296 454.828 34.92C453.772 33.512 453.18 31.944 453.052 30.216H461.164C461.26 31.144 461.692 31.896 462.46 32.472C463.228 33.048 464.172 33.336 465.292 33.336C466.316 33.336 467.1 33.144 467.644 32.76C468.22 32.344 468.508 31.816 468.508 31.176C468.508 30.408 468.108 29.848 467.308 29.496C466.508 29.112 465.212 28.696 463.42 28.248C461.5 27.8 459.9 27.336 458.62 26.856C457.34 26.344 456.236 25.56 455.308 24.504C454.38 23.416 453.916 21.96 453.916 20.136C453.916 18.6 454.332 17.208 455.164 15.96C456.028 14.68 457.276 13.672 458.908 12.936C460.572 12.2 462.54 11.832 464.812 11.832C468.172 11.832 470.812 12.664 472.732 14.328C474.684 15.992 475.804 18.2 476.092 20.952H468.508C468.38 20.024 467.964 19.288 467.26 18.744C466.588 18.2 465.692 17.928 464.572 17.928C463.612 17.928 462.876 18.12 462.364 18.504C461.852 18.856 461.596 19.352 461.596 19.992C461.596 20.76 461.996 21.336 462.796 21.72C463.628 22.104 464.908 22.488 466.636 22.872C468.62 23.384 470.236 23.896 471.484 24.408C472.732 24.888 473.82 25.688 474.748 26.808C475.708 27.896 476.204 29.368 476.236 31.224C476.236 32.792 475.788 34.2 474.892 35.448C474.028 36.664 472.764 37.624 471.1 38.328C469.468 39.032 467.564 39.384 465.388 39.384Z" fill="#060707"/>
</svg>
