<svg width="461" height="37" viewBox="0 0 461 37" fill="none" xmlns="http://www.w3.org/2000/svg">
<path d="M18.16 36L11.152 23.28H9.184V36H0.976V2.304H14.752C17.408 2.304 19.664 2.768 21.52 3.696C23.408 4.624 24.816 5.904 25.744 7.536C26.672 9.136 27.136 10.928 27.136 12.912C27.136 15.152 26.496 17.152 25.216 18.912C23.968 20.672 22.112 21.92 19.648 22.656L27.424 36H18.16ZM9.184 17.472H14.272C15.776 17.472 16.896 17.104 17.632 16.368C18.4 15.632 18.784 14.592 18.784 13.248C18.784 11.968 18.4 10.96 17.632 10.224C16.896 9.488 15.776 9.12 14.272 9.12H9.184V17.472ZM57.5365 22.176C57.5365 22.944 57.4885 23.744 57.3925 24.576H38.8165C38.9445 26.24 39.4725 27.52 40.4005 28.416C41.3605 29.28 42.5285 29.712 43.9045 29.712C45.9525 29.712 47.3765 28.848 48.1765 27.12H56.9125C56.4645 28.88 55.6485 30.464 54.4645 31.872C53.3125 33.28 51.8565 34.384 50.0965 35.184C48.3365 35.984 46.3685 36.384 44.1925 36.384C41.5685 36.384 39.2325 35.824 37.1845 34.704C35.1365 33.584 33.5365 31.984 32.3845 29.904C31.2325 27.824 30.6565 25.392 30.6565 22.608C30.6565 19.824 31.2165 17.392 32.3365 15.312C33.4885 13.232 35.0885 11.632 37.1365 10.512C39.1845 9.392 41.5365 8.832 44.1925 8.832C46.7845 8.832 49.0885 9.376 51.1045 10.464C53.1205 11.552 54.6885 13.104 55.8085 15.12C56.9605 17.136 57.5365 19.488 57.5365 22.176ZM49.1365 20.016C49.1365 18.608 48.6565 17.488 47.6965 16.656C46.7365 15.824 45.5365 15.408 44.0965 15.408C42.7205 15.408 41.5525 15.808 40.5925 16.608C39.6645 17.408 39.0885 18.544 38.8645 20.016H49.1365ZM60.2346 22.608C60.2346 19.824 60.7946 17.392 61.9146 15.312C63.0666 13.232 64.6506 11.632 66.6666 10.512C68.7146 9.392 71.0506 8.832 73.6746 8.832C77.0346 8.832 79.8346 9.712 82.0746 11.472C84.3466 13.232 85.8346 15.712 86.5386 18.912H77.8026C77.0666 16.864 75.6426 15.84 73.5306 15.84C72.0266 15.84 70.8266 16.432 69.9306 17.616C69.0346 18.768 68.5866 20.432 68.5866 22.608C68.5866 24.784 69.0346 26.464 69.9306 27.648C70.8266 28.8 72.0266 29.376 73.5306 29.376C75.6426 29.376 77.0666 28.352 77.8026 26.304H86.5386C85.8346 29.44 84.3466 31.904 82.0746 33.696C79.8026 35.488 77.0026 36.384 73.6746 36.384C71.0506 36.384 68.7146 35.824 66.6666 34.704C64.6506 33.584 63.0666 31.984 61.9146 29.904C60.7946 27.824 60.2346 25.392 60.2346 22.608ZM103.121 36.384C100.497 36.384 98.1291 35.824 96.0171 34.704C93.9371 33.584 92.2891 31.984 91.0731 29.904C89.8891 27.824 89.2971 25.392 89.2971 22.608C89.2971 19.856 89.9051 17.44 91.1211 15.36C92.3371 13.248 94.0011 11.632 96.1131 10.512C98.2251 9.392 100.593 8.832 103.217 8.832C105.841 8.832 108.209 9.392 110.321 10.512C112.433 11.632 114.097 13.248 115.313 15.36C116.529 17.44 117.137 19.856 117.137 22.608C117.137 25.36 116.513 27.792 115.265 29.904C114.049 31.984 112.369 33.584 110.225 34.704C108.113 35.824 105.745 36.384 103.121 36.384ZM103.121 29.28C104.689 29.28 106.017 28.704 107.105 27.552C108.225 26.4 108.785 24.752 108.785 22.608C108.785 20.464 108.241 18.816 107.153 17.664C106.097 16.512 104.785 15.936 103.217 15.936C101.617 15.936 100.289 16.512 99.2331 17.664C98.1771 18.784 97.6491 20.432 97.6491 22.608C97.6491 24.752 98.1611 26.4 99.1851 27.552C100.241 28.704 101.553 29.28 103.121 29.28ZM155.668 8.928C158.996 8.928 161.636 9.936 163.588 11.952C165.572 13.968 166.564 16.768 166.564 20.352V36H158.404V21.456C158.404 19.728 157.94 18.4 157.012 17.472C156.116 16.512 154.868 16.032 153.268 16.032C151.668 16.032 150.404 16.512 149.476 17.472C148.58 18.4 148.132 19.728 148.132 21.456V36H139.972V21.456C139.972 19.728 139.508 18.4 138.58 17.472C137.684 16.512 136.436 16.032 134.836 16.032C133.236 16.032 131.972 16.512 131.044 17.472C130.148 18.4 129.7 19.728 129.7 21.456V36H121.492V9.216H129.7V12.576C130.532 11.456 131.62 10.576 132.964 9.936C134.308 9.264 135.828 8.928 137.524 8.928C139.54 8.928 141.332 9.36 142.9 10.224C144.5 11.088 145.748 12.32 146.644 13.92C147.572 12.448 148.836 11.248 150.436 10.32C152.036 9.392 153.78 8.928 155.668 8.928ZM206.48 8.928C209.808 8.928 212.448 9.936 214.4 11.952C216.384 13.968 217.376 16.768 217.376 20.352V36H209.216V21.456C209.216 19.728 208.752 18.4 207.824 17.472C206.928 16.512 205.68 16.032 204.08 16.032C202.48 16.032 201.216 16.512 200.288 17.472C199.392 18.4 198.944 19.728 198.944 21.456V36H190.784V21.456C190.784 19.728 190.32 18.4 189.392 17.472C188.496 16.512 187.248 16.032 185.648 16.032C184.048 16.032 182.784 16.512 181.856 17.472C180.96 18.4 180.512 19.728 180.512 21.456V36H172.304V9.216H180.512V12.576C181.344 11.456 182.432 10.576 183.776 9.936C185.12 9.264 186.64 8.928 188.336 8.928C190.352 8.928 192.144 9.36 193.712 10.224C195.312 11.088 196.56 12.32 197.456 13.92C198.384 12.448 199.648 11.248 201.248 10.32C202.848 9.392 204.592 8.928 206.48 8.928ZM248.365 22.176C248.365 22.944 248.317 23.744 248.221 24.576H229.645C229.773 26.24 230.301 27.52 231.229 28.416C232.189 29.28 233.357 29.712 234.733 29.712C236.781 29.712 238.205 28.848 239.005 27.12H247.741C247.293 28.88 246.477 30.464 245.293 31.872C244.141 33.28 242.685 34.384 240.925 35.184C239.165 35.984 237.197 36.384 235.021 36.384C232.397 36.384 230.061 35.824 228.013 34.704C225.965 33.584 224.365 31.984 223.213 29.904C222.061 27.824 221.485 25.392 221.485 22.608C221.485 19.824 222.045 17.392 223.165 15.312C224.317 13.232 225.917 11.632 227.965 10.512C230.013 9.392 232.365 8.832 235.021 8.832C237.613 8.832 239.917 9.376 241.933 10.464C243.949 11.552 245.517 13.104 246.637 15.12C247.789 17.136 248.365 19.488 248.365 22.176ZM239.965 20.016C239.965 18.608 239.485 17.488 238.525 16.656C237.565 15.824 236.365 15.408 234.925 15.408C233.549 15.408 232.381 15.808 231.421 16.608C230.493 17.408 229.917 18.544 229.693 20.016H239.965ZM269.015 8.928C272.151 8.928 274.647 9.952 276.503 12C278.391 14.016 279.335 16.8 279.335 20.352V36H271.175V21.456C271.175 19.664 270.711 18.272 269.783 17.28C268.855 16.288 267.607 15.792 266.039 15.792C264.471 15.792 263.223 16.288 262.295 17.28C261.367 18.272 260.903 19.664 260.903 21.456V36H252.695V9.216H260.903V12.768C261.735 11.584 262.855 10.656 264.263 9.984C265.671 9.28 267.255 8.928 269.015 8.928ZM283.407 22.56C283.407 19.808 283.919 17.392 284.943 15.312C285.999 13.232 287.423 11.632 289.215 10.512C291.007 9.392 293.007 8.832 295.215 8.832C296.975 8.832 298.575 9.2 300.015 9.936C301.487 10.672 302.639 11.664 303.471 12.912V0.48H311.679V36H303.471V32.16C302.703 33.44 301.599 34.464 300.159 35.232C298.751 36 297.103 36.384 295.215 36.384C293.007 36.384 291.007 35.824 289.215 34.704C287.423 33.552 285.999 31.936 284.943 29.856C283.919 27.744 283.407 25.312 283.407 22.56ZM303.471 22.608C303.471 20.56 302.895 18.944 301.743 17.76C300.623 16.576 299.247 15.984 297.615 15.984C295.983 15.984 294.591 16.576 293.439 17.76C292.319 18.912 291.759 20.512 291.759 22.56C291.759 24.608 292.319 26.24 293.439 27.456C294.591 28.64 295.983 29.232 297.615 29.232C299.247 29.232 300.623 28.64 301.743 27.456C302.895 26.272 303.471 24.656 303.471 22.608ZM342.865 22.176C342.865 22.944 342.817 23.744 342.721 24.576H324.145C324.273 26.24 324.801 27.52 325.729 28.416C326.689 29.28 327.857 29.712 329.233 29.712C331.281 29.712 332.705 28.848 333.505 27.12H342.241C341.793 28.88 340.977 30.464 339.793 31.872C338.641 33.28 337.185 34.384 335.425 35.184C333.665 35.984 331.697 36.384 329.521 36.384C326.897 36.384 324.561 35.824 322.513 34.704C320.465 33.584 318.865 31.984 317.713 29.904C316.561 27.824 315.985 25.392 315.985 22.608C315.985 19.824 316.545 17.392 317.665 15.312C318.817 13.232 320.417 11.632 322.465 10.512C324.513 9.392 326.865 8.832 329.521 8.832C332.113 8.832 334.417 9.376 336.433 10.464C338.449 11.552 340.017 13.104 341.137 15.12C342.289 17.136 342.865 19.488 342.865 22.176ZM334.465 20.016C334.465 18.608 333.985 17.488 333.025 16.656C332.065 15.824 330.865 15.408 329.425 15.408C328.049 15.408 326.881 15.808 325.921 16.608C324.993 17.408 324.417 18.544 324.193 20.016H334.465ZM345.563 22.56C345.563 19.808 346.075 17.392 347.099 15.312C348.155 13.232 349.579 11.632 351.371 10.512C353.163 9.392 355.163 8.832 357.371 8.832C359.131 8.832 360.731 9.2 362.171 9.936C363.643 10.672 364.795 11.664 365.627 12.912V0.48H373.835V36H365.627V32.16C364.859 33.44 363.755 34.464 362.315 35.232C360.907 36 359.259 36.384 357.371 36.384C355.163 36.384 353.163 35.824 351.371 34.704C349.579 33.552 348.155 31.936 347.099 29.856C346.075 27.744 345.563 25.312 345.563 22.56ZM365.627 22.608C365.627 20.56 365.051 18.944 363.899 17.76C362.779 16.576 361.403 15.984 359.771 15.984C358.139 15.984 356.747 16.576 355.595 17.76C354.475 18.912 353.915 20.512 353.915 22.56C353.915 24.608 354.475 26.24 355.595 27.456C356.747 28.64 358.139 29.232 359.771 29.232C361.403 29.232 362.779 28.64 363.899 27.456C365.051 26.272 365.627 24.656 365.627 22.608ZM410.921 30.048H398.345L396.329 36H387.737L399.929 2.304H409.433L421.625 36H412.937L410.921 30.048ZM408.809 23.712L404.633 11.376L400.505 23.712H408.809ZM433.543 13.68C434.503 12.208 435.703 11.056 437.143 10.224C438.583 9.36 440.183 8.928 441.943 8.928V17.616H439.687C437.639 17.616 436.103 18.064 435.079 18.96C434.055 19.824 433.543 21.36 433.543 23.568V36H425.335V9.216H433.543V13.68ZM460.795 29.04V36H456.619C453.643 36 451.323 35.28 449.659 33.84C447.995 32.368 447.163 29.984 447.163 26.688V16.032H443.899V9.216H447.163V2.688H455.371V9.216H460.747V16.032H455.371V26.784C455.371 27.584 455.563 28.16 455.947 28.512C456.331 28.864 456.971 29.04 457.867 29.04H460.795Z" fill="#060707"/>
</svg>
