<svg width="550" height="74" viewBox="0 0 550 74" fill="none" xmlns="http://www.w3.org/2000/svg">
<path opacity="0.6" d="M3.024 11.528H6.784V13H1.2V1.88H3.024V11.528ZM12.1334 13.144C11.3014 13.144 10.5494 12.9573 9.87738 12.584C9.20538 12.2 8.67738 11.6667 8.29338 10.984C7.90938 10.2907 7.71738 9.49067 7.71738 8.584C7.71738 7.688 7.91471 6.89333 8.30938 6.2C8.70404 5.50667 9.24271 4.97333 9.92538 4.6C10.608 4.22667 11.3707 4.04 12.2134 4.04C13.056 4.04 13.8187 4.22667 14.5014 4.6C15.184 4.97333 15.7227 5.50667 16.1174 6.2C16.512 6.89333 16.7094 7.688 16.7094 8.584C16.7094 9.48 16.5067 10.2747 16.1014 10.968C15.696 11.6613 15.1414 12.2 14.4374 12.584C13.744 12.9573 12.976 13.144 12.1334 13.144ZM12.1334 11.56C12.6027 11.56 13.04 11.448 13.4454 11.224C13.8614 11 14.1974 10.664 14.4534 10.216C14.7094 9.768 14.8374 9.224 14.8374 8.584C14.8374 7.944 14.7147 7.40533 14.4694 6.968C14.224 6.52 13.8987 6.184 13.4934 5.96C13.088 5.736 12.6507 5.624 12.1814 5.624C11.712 5.624 11.2747 5.736 10.8694 5.96C10.4747 6.184 10.16 6.52 9.92538 6.968C9.69071 7.40533 9.57338 7.944 9.57338 8.584C9.57338 9.53333 9.81338 10.2693 10.2934 10.792C10.784 11.304 11.3974 11.56 12.1334 11.56ZM20.3365 5.464C20.6032 5.016 20.9552 4.66933 21.3925 4.424C21.8405 4.168 22.3685 4.04 22.9765 4.04V5.928H22.5125C21.7978 5.928 21.2538 6.10933 20.8805 6.472C20.5178 6.83467 20.3365 7.464 20.3365 8.36V13H18.5125V4.184H20.3365V5.464ZM32.7331 8.376C32.7331 8.70667 32.7118 9.00533 32.6691 9.272H25.9331C25.9865 9.976 26.2478 10.5413 26.7171 10.968C27.1865 11.3947 27.7625 11.608 28.4451 11.608C29.4265 11.608 30.1198 11.1973 30.5251 10.376H32.4931C32.2265 11.1867 31.7411 11.8533 31.0371 12.376C30.3438 12.888 29.4798 13.144 28.4451 13.144C27.6025 13.144 26.8451 12.9573 26.1731 12.584C25.5118 12.2 24.9891 11.6667 24.6051 10.984C24.2318 10.2907 24.0451 9.49067 24.0451 8.584C24.0451 7.67733 24.2265 6.88267 24.5891 6.2C24.9625 5.50667 25.4798 4.97333 26.1411 4.6C26.8131 4.22667 27.5811 4.04 28.4451 4.04C29.2771 4.04 30.0185 4.22133 30.6691 4.584C31.3198 4.94667 31.8265 5.45867 32.1891 6.12C32.5518 6.77067 32.7331 7.52267 32.7331 8.376ZM30.8291 7.8C30.8185 7.128 30.5785 6.58933 30.1091 6.184C29.6398 5.77867 29.0585 5.576 28.3651 5.576C27.7358 5.576 27.1971 5.77867 26.7491 6.184C26.3011 6.57867 26.0345 7.11733 25.9491 7.8H30.8291ZM45.2001 4.04C45.8935 4.04 46.5121 4.184 47.0561 4.472C47.6108 4.76 48.0428 5.18667 48.3521 5.752C48.6721 6.31733 48.8321 7 48.8321 7.8V13H47.0241V8.072C47.0241 7.28267 46.8268 6.68 46.4321 6.264C46.0375 5.83733 45.4988 5.624 44.8161 5.624C44.1335 5.624 43.5895 5.83733 43.1841 6.264C42.7895 6.68 42.5921 7.28267 42.5921 8.072V13H40.7841V8.072C40.7841 7.28267 40.5868 6.68 40.1921 6.264C39.7975 5.83733 39.2588 5.624 38.5761 5.624C37.8935 5.624 37.3495 5.83733 36.9441 6.264C36.5495 6.68 36.3521 7.28267 36.3521 8.072V13H34.5281V4.184H36.3521V5.192C36.6508 4.82933 37.0295 4.54667 37.4881 4.344C37.9468 4.14133 38.4375 4.04 38.9601 4.04C39.6641 4.04 40.2935 4.18933 40.8481 4.488C41.4028 4.78667 41.8295 5.21867 42.1281 5.784C42.3948 5.25067 42.8108 4.82933 43.3761 4.52C43.9415 4.2 44.5495 4.04 45.2001 4.04ZM57.1334 1.88V13H55.3094V1.88H57.1334ZM61.3521 5.48C61.6615 5.07467 62.0828 4.73333 62.6161 4.456C63.1495 4.17867 63.7521 4.04 64.4241 4.04C65.1921 4.04 65.8908 4.232 66.5201 4.616C67.1601 4.98933 67.6615 5.51733 68.0241 6.2C68.3868 6.88267 68.5681 7.66667 68.5681 8.552C68.5681 9.43733 68.3868 10.232 68.0241 10.936C67.6615 11.6293 67.1601 12.1733 66.5201 12.568C65.8908 12.952 65.1921 13.144 64.4241 13.144C63.7521 13.144 63.1548 13.0107 62.6321 12.744C62.1095 12.4667 61.6828 12.1253 61.3521 11.72V17.192H59.5281V4.184H61.3521V5.48ZM66.7121 8.552C66.7121 7.944 66.5841 7.42133 66.3281 6.984C66.0828 6.536 65.7521 6.2 65.3361 5.976C64.9308 5.74133 64.4935 5.624 64.0241 5.624C63.5655 5.624 63.1281 5.74133 62.7121 5.976C62.3068 6.21067 61.9761 6.552 61.7201 7C61.4748 7.448 61.3521 7.976 61.3521 8.584C61.3521 9.192 61.4748 9.72533 61.7201 10.184C61.9761 10.632 62.3068 10.9733 62.7121 11.208C63.1281 11.4427 63.5655 11.56 64.0241 11.56C64.4935 11.56 64.9308 11.4427 65.3361 11.208C65.7521 10.9627 66.0828 10.6107 66.3281 10.152C66.5841 9.69333 66.7121 9.16 66.7121 8.552ZM73.5719 13.144C72.8785 13.144 72.2545 13.0213 71.6999 12.776C71.1559 12.52 70.7239 12.1787 70.4039 11.752C70.0839 11.3147 69.9132 10.8293 69.8919 10.296H71.7799C71.8119 10.6693 71.9879 10.984 72.3079 11.24C72.6385 11.4853 73.0492 11.608 73.5399 11.608C74.0519 11.608 74.4465 11.512 74.7239 11.32C75.0119 11.1173 75.1559 10.8613 75.1559 10.552C75.1559 10.2213 74.9959 9.976 74.6759 9.816C74.3665 9.656 73.8705 9.48 73.1879 9.288C72.5265 9.10667 71.9879 8.93067 71.5719 8.76C71.1559 8.58933 70.7932 8.328 70.4839 7.976C70.1852 7.624 70.0359 7.16 70.0359 6.584C70.0359 6.11467 70.1745 5.688 70.4519 5.304C70.7292 4.90933 71.1239 4.6 71.6359 4.376C72.1585 4.152 72.7559 4.04 73.4279 4.04C74.4305 4.04 75.2359 4.296 75.8439 4.808C76.4625 5.30933 76.7932 5.99733 76.8359 6.872H75.0119C74.9799 6.47733 74.8199 6.16267 74.5319 5.928C74.2439 5.69333 73.8545 5.576 73.3639 5.576C72.8839 5.576 72.5159 5.66667 72.2599 5.848C72.0039 6.02933 71.8759 6.26933 71.8759 6.568C71.8759 6.80267 71.9612 7 72.1319 7.16C72.3025 7.32 72.5105 7.448 72.7559 7.544C73.0012 7.62933 73.3639 7.74133 73.8439 7.88C74.4839 8.05067 75.0065 8.22667 75.4119 8.408C75.8279 8.57867 76.1852 8.83467 76.4839 9.176C76.7825 9.51733 76.9372 9.97067 76.9479 10.536C76.9479 11.0373 76.8092 11.4853 76.5319 11.88C76.2545 12.2747 75.8599 12.584 75.3479 12.808C74.8465 13.032 74.2545 13.144 73.5719 13.144ZM86.9028 4.184V13H85.0788V11.96C84.7908 12.3227 84.4121 12.6107 83.9428 12.824C83.4841 13.0267 82.9934 13.128 82.4708 13.128C81.7774 13.128 81.1534 12.984 80.5988 12.696C80.0548 12.408 79.6228 11.9813 79.3028 11.416C78.9934 10.8507 78.8388 10.168 78.8388 9.368V4.184H80.6468V9.096C80.6468 9.88533 80.8441 10.4933 81.2388 10.92C81.6334 11.336 82.1721 11.544 82.8548 11.544C83.5374 11.544 84.0761 11.336 84.4708 10.92C84.8761 10.4933 85.0788 9.88533 85.0788 9.096V4.184H86.9028ZM99.9814 4.04C100.675 4.04 101.293 4.184 101.837 4.472C102.392 4.76 102.824 5.18667 103.133 5.752C103.453 6.31733 103.613 7 103.613 7.8V13H101.805V8.072C101.805 7.28267 101.608 6.68 101.213 6.264C100.819 5.83733 100.28 5.624 99.5974 5.624C98.9147 5.624 98.3707 5.83733 97.9654 6.264C97.5707 6.68 97.3734 7.28267 97.3734 8.072V13H95.5654V8.072C95.5654 7.28267 95.368 6.68 94.9734 6.264C94.5787 5.83733 94.04 5.624 93.3574 5.624C92.6747 5.624 92.1307 5.83733 91.7254 6.264C91.3307 6.68 91.1334 7.28267 91.1334 8.072V13H89.3094V4.184H91.1334V5.192C91.432 4.82933 91.8107 4.54667 92.2694 4.344C92.728 4.14133 93.2187 4.04 93.7414 4.04C94.4454 4.04 95.0747 4.18933 95.6294 4.488C96.184 4.78667 96.6107 5.21867 96.9094 5.784C97.176 5.25067 97.592 4.82933 98.1574 4.52C98.7227 4.2 99.3307 4.04 99.9814 4.04ZM111.019 3.016C110.688 3.016 110.411 2.904 110.187 2.68C109.963 2.456 109.851 2.17867 109.851 1.848C109.851 1.51733 109.963 1.24 110.187 1.016C110.411 0.791999 110.688 0.679999 111.019 0.679999C111.339 0.679999 111.611 0.791999 111.835 1.016C112.059 1.24 112.171 1.51733 112.171 1.848C112.171 2.17867 112.059 2.456 111.835 2.68C111.611 2.904 111.339 3.016 111.019 3.016ZM111.915 4.184V13H110.091V4.184H111.915ZM117.509 13.144C116.816 13.144 116.192 13.0213 115.637 12.776C115.093 12.52 114.661 12.1787 114.341 11.752C114.021 11.3147 113.851 10.8293 113.829 10.296H115.717C115.749 10.6693 115.925 10.984 116.245 11.24C116.576 11.4853 116.987 11.608 117.477 11.608C117.989 11.608 118.384 11.512 118.661 11.32C118.949 11.1173 119.093 10.8613 119.093 10.552C119.093 10.2213 118.933 9.976 118.613 9.816C118.304 9.656 117.808 9.48 117.125 9.288C116.464 9.10667 115.925 8.93067 115.509 8.76C115.093 8.58933 114.731 8.328 114.421 7.976C114.123 7.624 113.973 7.16 113.973 6.584C113.973 6.11467 114.112 5.688 114.389 5.304C114.667 4.90933 115.061 4.6 115.573 4.376C116.096 4.152 116.693 4.04 117.365 4.04C118.368 4.04 119.173 4.296 119.781 4.808C120.4 5.30933 120.731 5.99733 120.773 6.872H118.949C118.917 6.47733 118.757 6.16267 118.469 5.928C118.181 5.69333 117.792 5.576 117.301 5.576C116.821 5.576 116.453 5.66667 116.197 5.848C115.941 6.02933 115.813 6.26933 115.813 6.568C115.813 6.80267 115.899 7 116.069 7.16C116.24 7.32 116.448 7.448 116.693 7.544C116.939 7.62933 117.301 7.74133 117.781 7.88C118.421 8.05067 118.944 8.22667 119.349 8.408C119.765 8.57867 120.123 8.83467 120.421 9.176C120.72 9.51733 120.875 9.97067 120.885 10.536C120.885 11.0373 120.747 11.4853 120.469 11.88C120.192 12.2747 119.797 12.584 119.285 12.808C118.784 13.032 118.192 13.144 117.509 13.144ZM130.213 13.144C129.519 13.144 128.895 13.0213 128.341 12.776C127.797 12.52 127.365 12.1787 127.045 11.752C126.725 11.3147 126.554 10.8293 126.533 10.296H128.421C128.453 10.6693 128.629 10.984 128.949 11.24C129.279 11.4853 129.69 11.608 130.181 11.608C130.693 11.608 131.087 11.512 131.365 11.32C131.653 11.1173 131.797 10.8613 131.797 10.552C131.797 10.2213 131.637 9.976 131.317 9.816C131.007 9.656 130.511 9.48 129.829 9.288C129.167 9.10667 128.629 8.93067 128.213 8.76C127.797 8.58933 127.434 8.328 127.125 7.976C126.826 7.624 126.677 7.16 126.677 6.584C126.677 6.11467 126.815 5.688 127.093 5.304C127.37 4.90933 127.765 4.6 128.277 4.376C128.799 4.152 129.397 4.04 130.069 4.04C131.071 4.04 131.877 4.296 132.485 4.808C133.103 5.30933 133.434 5.99733 133.477 6.872H131.653C131.621 6.47733 131.461 6.16267 131.173 5.928C130.885 5.69333 130.495 5.576 130.005 5.576C129.525 5.576 129.157 5.66667 128.901 5.848C128.645 6.02933 128.517 6.26933 128.517 6.568C128.517 6.80267 128.602 7 128.773 7.16C128.943 7.32 129.151 7.448 129.397 7.544C129.642 7.62933 130.005 7.74133 130.485 7.88C131.125 8.05067 131.647 8.22667 132.053 8.408C132.469 8.57867 132.826 8.83467 133.125 9.176C133.423 9.51733 133.578 9.97067 133.589 10.536C133.589 11.0373 133.45 11.4853 133.173 11.88C132.895 12.2747 132.501 12.584 131.989 12.808C131.487 13.032 130.895 13.144 130.213 13.144ZM136.487 3.016C136.157 3.016 135.879 2.904 135.655 2.68C135.431 2.456 135.319 2.17867 135.319 1.848C135.319 1.51733 135.431 1.24 135.655 1.016C135.879 0.791999 136.157 0.679999 136.487 0.679999C136.807 0.679999 137.079 0.791999 137.303 1.016C137.527 1.24 137.639 1.51733 137.639 1.848C137.639 2.17867 137.527 2.456 137.303 2.68C137.079 2.904 136.807 3.016 136.487 3.016ZM137.383 4.184V13H135.559V4.184H137.383ZM150.45 4.04C151.143 4.04 151.762 4.184 152.306 4.472C152.861 4.76 153.293 5.18667 153.602 5.752C153.922 6.31733 154.082 7 154.082 7.8V13H152.274V8.072C152.274 7.28267 152.077 6.68 151.682 6.264C151.287 5.83733 150.749 5.624 150.066 5.624C149.383 5.624 148.839 5.83733 148.434 6.264C148.039 6.68 147.842 7.28267 147.842 8.072V13H146.034V8.072C146.034 7.28267 145.837 6.68 145.442 6.264C145.047 5.83733 144.509 5.624 143.826 5.624C143.143 5.624 142.599 5.83733 142.194 6.264C141.799 6.68 141.602 7.28267 141.602 8.072V13H139.778V4.184H141.602V5.192C141.901 4.82933 142.279 4.54667 142.738 4.344C143.197 4.14133 143.687 4.04 144.21 4.04C144.914 4.04 145.543 4.18933 146.098 4.488C146.653 4.78667 147.079 5.21867 147.378 5.784C147.645 5.25067 148.061 4.82933 148.626 4.52C149.191 4.2 149.799 4.04 150.45 4.04ZM158.227 5.48C158.536 5.07467 158.958 4.73333 159.491 4.456C160.024 4.17867 160.627 4.04 161.299 4.04C162.067 4.04 162.766 4.232 163.395 4.616C164.035 4.98933 164.536 5.51733 164.899 6.2C165.262 6.88267 165.443 7.66667 165.443 8.552C165.443 9.43733 165.262 10.232 164.899 10.936C164.536 11.6293 164.035 12.1733 163.395 12.568C162.766 12.952 162.067 13.144 161.299 13.144C160.627 13.144 160.03 13.0107 159.507 12.744C158.984 12.4667 158.558 12.1253 158.227 11.72V17.192H156.403V4.184H158.227V5.48ZM163.587 8.552C163.587 7.944 163.459 7.42133 163.203 6.984C162.958 6.536 162.627 6.2 162.211 5.976C161.806 5.74133 161.368 5.624 160.899 5.624C160.44 5.624 160.003 5.74133 159.587 5.976C159.182 6.21067 158.851 6.552 158.595 7C158.35 7.448 158.227 7.976 158.227 8.584C158.227 9.192 158.35 9.72533 158.595 10.184C158.851 10.632 159.182 10.9733 159.587 11.208C160.003 11.4427 160.44 11.56 160.899 11.56C161.368 11.56 161.806 11.4427 162.211 11.208C162.627 10.9627 162.958 10.6107 163.203 10.152C163.459 9.69333 163.587 9.16 163.587 8.552ZM169.071 1.16V13H167.247V1.16H169.071ZM179.402 4.184L173.994 17.144H172.106L173.898 12.856L170.426 4.184H172.458L174.938 10.904L177.514 4.184H179.402ZM184.326 8.552C184.326 7.66667 184.508 6.88267 184.87 6.2C185.244 5.51733 185.745 4.98933 186.374 4.616C187.014 4.232 187.724 4.04 188.502 4.04C189.078 4.04 189.644 4.168 190.198 4.424C190.764 4.66933 191.212 5 191.542 5.416V1.16H193.382V13H191.542V11.672C191.244 12.0987 190.828 12.4507 190.294 12.728C189.772 13.0053 189.169 13.144 188.486 13.144C187.718 13.144 187.014 12.952 186.374 12.568C185.745 12.1733 185.244 11.6293 184.87 10.936C184.508 10.232 184.326 9.43733 184.326 8.552ZM191.542 8.584C191.542 7.976 191.414 7.448 191.158 7C190.913 6.552 190.588 6.21067 190.182 5.976C189.777 5.74133 189.34 5.624 188.87 5.624C188.401 5.624 187.964 5.74133 187.558 5.976C187.153 6.2 186.822 6.536 186.566 6.984C186.321 7.42133 186.198 7.944 186.198 8.552C186.198 9.16 186.321 9.69333 186.566 10.152C186.822 10.6107 187.153 10.9627 187.558 11.208C187.974 11.4427 188.412 11.56 188.87 11.56C189.34 11.56 189.777 11.4427 190.182 11.208C190.588 10.9733 190.913 10.632 191.158 10.184C191.414 9.72533 191.542 9.192 191.542 8.584ZM203.762 4.184V13H201.938V11.96C201.65 12.3227 201.271 12.6107 200.802 12.824C200.343 13.0267 199.853 13.128 199.33 13.128C198.637 13.128 198.013 12.984 197.458 12.696C196.914 12.408 196.482 11.9813 196.162 11.416C195.853 10.8507 195.698 10.168 195.698 9.368V4.184H197.506V9.096C197.506 9.88533 197.703 10.4933 198.098 10.92C198.493 11.336 199.031 11.544 199.714 11.544C200.397 11.544 200.935 11.336 201.33 10.92C201.735 10.4933 201.938 9.88533 201.938 9.096V4.184H203.762ZM216.841 4.04C217.534 4.04 218.153 4.184 218.697 4.472C219.251 4.76 219.683 5.18667 219.993 5.752C220.313 6.31733 220.473 7 220.473 7.8V13H218.665V8.072C218.665 7.28267 218.467 6.68 218.073 6.264C217.678 5.83733 217.139 5.624 216.457 5.624C215.774 5.624 215.23 5.83733 214.825 6.264C214.43 6.68 214.233 7.28267 214.233 8.072V13H212.425V8.072C212.425 7.28267 212.227 6.68 211.833 6.264C211.438 5.83733 210.899 5.624 210.217 5.624C209.534 5.624 208.99 5.83733 208.585 6.264C208.19 6.68 207.993 7.28267 207.993 8.072V13H206.169V4.184H207.993V5.192C208.291 4.82933 208.67 4.54667 209.129 4.344C209.587 4.14133 210.078 4.04 210.601 4.04C211.305 4.04 211.934 4.18933 212.489 4.488C213.043 4.78667 213.47 5.21867 213.769 5.784C214.035 5.25067 214.451 4.82933 215.017 4.52C215.582 4.2 216.19 4.04 216.841 4.04ZM233.466 4.04C234.159 4.04 234.778 4.184 235.322 4.472C235.876 4.76 236.308 5.18667 236.618 5.752C236.938 6.31733 237.098 7 237.098 7.8V13H235.29V8.072C235.29 7.28267 235.092 6.68 234.698 6.264C234.303 5.83733 233.764 5.624 233.082 5.624C232.399 5.624 231.855 5.83733 231.45 6.264C231.055 6.68 230.858 7.28267 230.858 8.072V13H229.05V8.072C229.05 7.28267 228.852 6.68 228.458 6.264C228.063 5.83733 227.524 5.624 226.842 5.624C226.159 5.624 225.615 5.83733 225.21 6.264C224.815 6.68 224.618 7.28267 224.618 8.072V13H222.794V4.184H224.618V5.192C224.916 4.82933 225.295 4.54667 225.754 4.344C226.212 4.14133 226.703 4.04 227.226 4.04C227.93 4.04 228.559 4.18933 229.114 4.488C229.668 4.78667 230.095 5.21867 230.394 5.784C230.66 5.25067 231.076 4.82933 231.642 4.52C232.207 4.2 232.815 4.04 233.466 4.04ZM247.355 4.184L241.947 17.144H240.059L241.851 12.856L238.379 4.184H240.411L242.891 10.904L245.467 4.184H247.355ZM255.016 5.672V10.552C255.016 10.8827 255.09 11.1227 255.24 11.272C255.4 11.4107 255.666 11.48 256.04 11.48H257.16V13H255.72C254.898 13 254.269 12.808 253.832 12.424C253.394 12.04 253.176 11.416 253.176 10.552V5.672H252.136V4.184H253.176V1.992H255.016V4.184H257.16V5.672H255.016ZM266.921 8.376C266.921 8.70667 266.899 9.00533 266.857 9.272H260.121C260.174 9.976 260.435 10.5413 260.905 10.968C261.374 11.3947 261.95 11.608 262.633 11.608C263.614 11.608 264.307 11.1973 264.713 10.376H266.681C266.414 11.1867 265.929 11.8533 265.225 12.376C264.531 12.888 263.667 13.144 262.633 13.144C261.79 13.144 261.033 12.9573 260.361 12.584C259.699 12.2 259.177 11.6667 258.793 10.984C258.419 10.2907 258.233 9.49067 258.233 8.584C258.233 7.67733 258.414 6.88267 258.777 6.2C259.15 5.50667 259.667 4.97333 260.329 4.6C261.001 4.22667 261.769 4.04 262.633 4.04C263.465 4.04 264.206 4.22133 264.857 4.584C265.507 4.94667 266.014 5.45867 266.377 6.12C266.739 6.77067 266.921 7.52267 266.921 8.376ZM265.017 7.8C265.006 7.128 264.766 6.58933 264.297 6.184C263.827 5.77867 263.246 5.576 262.553 5.576C261.923 5.576 261.385 5.77867 260.937 6.184C260.489 6.57867 260.222 7.11733 260.137 7.8H265.017ZM272.492 8.536L275.34 13H273.276L271.372 10.008L269.58 13H267.676L270.524 8.664L267.676 4.184H269.74L271.644 7.176L273.436 4.184H275.34L272.492 8.536ZM278.828 5.672V10.552C278.828 10.8827 278.903 11.1227 279.052 11.272C279.212 11.4107 279.479 11.48 279.852 11.48H280.972V13H279.532C278.711 13 278.081 12.808 277.644 12.424C277.207 12.04 276.988 11.416 276.988 10.552V5.672H275.948V4.184H276.988V1.992H278.828V4.184H280.972V5.672H278.828ZM290.633 13.144C289.801 13.144 289.049 12.9573 288.377 12.584C287.705 12.2 287.177 11.6667 286.793 10.984C286.409 10.2907 286.217 9.49067 286.217 8.584C286.217 7.688 286.415 6.89333 286.809 6.2C287.204 5.50667 287.743 4.97333 288.425 4.6C289.108 4.22667 289.871 4.04 290.713 4.04C291.556 4.04 292.319 4.22667 293.001 4.6C293.684 4.97333 294.223 5.50667 294.617 6.2C295.012 6.89333 295.209 7.688 295.209 8.584C295.209 9.48 295.007 10.2747 294.601 10.968C294.196 11.6613 293.641 12.2 292.937 12.584C292.244 12.9573 291.476 13.144 290.633 13.144ZM290.633 11.56C291.103 11.56 291.54 11.448 291.945 11.224C292.361 11 292.697 10.664 292.953 10.216C293.209 9.768 293.337 9.224 293.337 8.584C293.337 7.944 293.215 7.40533 292.969 6.968C292.724 6.52 292.399 6.184 291.993 5.96C291.588 5.736 291.151 5.624 290.681 5.624C290.212 5.624 289.775 5.736 289.369 5.96C288.975 6.184 288.66 6.52 288.425 6.968C288.191 7.40533 288.073 7.944 288.073 8.584C288.073 9.53333 288.313 10.2693 288.793 10.792C289.284 11.304 289.897 11.56 290.633 11.56ZM300.709 5.672H299.077V13H297.237V5.672H296.197V4.184H297.237V3.56C297.237 2.54667 297.503 1.81067 298.037 1.352C298.581 0.882666 299.429 0.648 300.581 0.648V2.168C300.026 2.168 299.637 2.27467 299.413 2.488C299.189 2.69067 299.077 3.048 299.077 3.56V4.184H300.709V5.672ZM308.609 5.672V10.552C308.609 10.8827 308.684 11.1227 308.833 11.272C308.993 11.4107 309.26 11.48 309.633 11.48H310.753V13H309.313C308.492 13 307.863 12.808 307.425 12.424C306.988 12.04 306.769 11.416 306.769 10.552V5.672H305.729V4.184H306.769V1.992H308.609V4.184H310.753V5.672H308.609ZM316.994 4.04C317.666 4.04 318.264 4.184 318.786 4.472C319.32 4.76 319.736 5.18667 320.034 5.752C320.344 6.31733 320.498 7 320.498 7.8V13H318.69V8.072C318.69 7.28267 318.493 6.68 318.098 6.264C317.704 5.83733 317.165 5.624 316.482 5.624C315.8 5.624 315.256 5.83733 314.85 6.264C314.456 6.68 314.258 7.28267 314.258 8.072V13H312.434V1.16H314.258V5.208C314.568 4.83467 314.957 4.54667 315.426 4.344C315.906 4.14133 316.429 4.04 316.994 4.04ZM330.905 8.376C330.905 8.70667 330.884 9.00533 330.841 9.272H324.105C324.158 9.976 324.42 10.5413 324.889 10.968C325.358 11.3947 325.934 11.608 326.617 11.608C327.598 11.608 328.292 11.1973 328.697 10.376H330.665C330.398 11.1867 329.913 11.8533 329.209 12.376C328.516 12.888 327.652 13.144 326.617 13.144C325.774 13.144 325.017 12.9573 324.345 12.584C323.684 12.2 323.161 11.6667 322.777 10.984C322.404 10.2907 322.217 9.49067 322.217 8.584C322.217 7.67733 322.398 6.88267 322.761 6.2C323.134 5.50667 323.652 4.97333 324.313 4.6C324.985 4.22667 325.753 4.04 326.617 4.04C327.449 4.04 328.19 4.22133 328.841 4.584C329.492 4.94667 329.998 5.45867 330.361 6.12C330.724 6.77067 330.905 7.52267 330.905 8.376ZM329.001 7.8C328.99 7.128 328.75 6.58933 328.281 6.184C327.812 5.77867 327.23 5.576 326.537 5.576C325.908 5.576 325.369 5.77867 324.921 6.184C324.473 6.57867 324.206 7.11733 324.121 7.8H329.001ZM338.68 5.48C338.99 5.07467 339.411 4.73333 339.944 4.456C340.478 4.17867 341.08 4.04 341.752 4.04C342.52 4.04 343.219 4.232 343.848 4.616C344.488 4.98933 344.99 5.51733 345.352 6.2C345.715 6.88267 345.896 7.66667 345.896 8.552C345.896 9.43733 345.715 10.232 345.352 10.936C344.99 11.6293 344.488 12.1733 343.848 12.568C343.219 12.952 342.52 13.144 341.752 13.144C341.08 13.144 340.483 13.0107 339.96 12.744C339.438 12.4667 339.011 12.1253 338.68 11.72V17.192H336.856V4.184H338.68V5.48ZM344.04 8.552C344.04 7.944 343.912 7.42133 343.656 6.984C343.411 6.536 343.08 6.2 342.664 5.976C342.259 5.74133 341.822 5.624 341.352 5.624C340.894 5.624 340.456 5.74133 340.04 5.976C339.635 6.21067 339.304 6.552 339.048 7C338.803 7.448 338.68 7.976 338.68 8.584C338.68 9.192 338.803 9.72533 339.048 10.184C339.304 10.632 339.635 10.9733 340.04 11.208C340.456 11.4427 340.894 11.56 341.352 11.56C341.822 11.56 342.259 11.4427 342.664 11.208C343.08 10.9627 343.411 10.6107 343.656 10.152C343.912 9.69333 344.04 9.16 344.04 8.552ZM349.524 5.464C349.791 5.016 350.143 4.66933 350.58 4.424C351.028 4.168 351.556 4.04 352.164 4.04V5.928H351.7C350.985 5.928 350.441 6.10933 350.068 6.472C349.705 6.83467 349.524 7.464 349.524 8.36V13H347.7V4.184H349.524V5.464ZM354.769 3.016C354.438 3.016 354.161 2.904 353.937 2.68C353.713 2.456 353.601 2.17867 353.601 1.848C353.601 1.51733 353.713 1.24 353.937 1.016C354.161 0.791999 354.438 0.679999 354.769 0.679999C355.089 0.679999 355.361 0.791999 355.585 1.016C355.809 1.24 355.921 1.51733 355.921 1.848C355.921 2.17867 355.809 2.456 355.585 2.68C355.361 2.904 355.089 3.016 354.769 3.016ZM355.665 4.184V13H353.841V4.184H355.665ZM362.507 4.04C363.201 4.04 363.819 4.184 364.363 4.472C364.918 4.76 365.35 5.18667 365.659 5.752C365.969 6.31733 366.123 7 366.123 7.8V13H364.315V8.072C364.315 7.28267 364.118 6.68 363.723 6.264C363.329 5.83733 362.79 5.624 362.107 5.624C361.425 5.624 360.881 5.83733 360.475 6.264C360.081 6.68 359.883 7.28267 359.883 8.072V13H358.059V4.184H359.883V5.192C360.182 4.82933 360.561 4.54667 361.019 4.344C361.489 4.14133 361.985 4.04 362.507 4.04ZM370.578 5.672V10.552C370.578 10.8827 370.653 11.1227 370.802 11.272C370.962 11.4107 371.229 11.48 371.602 11.48H372.722V13H371.282C370.461 13 369.831 12.808 369.394 12.424C368.957 12.04 368.738 11.416 368.738 10.552V5.672H367.698V4.184H368.738V1.992H370.578V4.184H372.722V5.672H370.578ZM375.331 3.016C375 3.016 374.723 2.904 374.499 2.68C374.275 2.456 374.163 2.17867 374.163 1.848C374.163 1.51733 374.275 1.24 374.499 1.016C374.723 0.791999 375 0.679999 375.331 0.679999C375.651 0.679999 375.923 0.791999 376.147 1.016C376.371 1.24 376.483 1.51733 376.483 1.848C376.483 2.17867 376.371 2.456 376.147 2.68C375.923 2.904 375.651 3.016 375.331 3.016ZM376.227 4.184V13H374.403V4.184H376.227ZM383.07 4.04C383.763 4.04 384.382 4.184 384.926 4.472C385.481 4.76 385.913 5.18667 386.222 5.752C386.531 6.31733 386.686 7 386.686 7.8V13H384.878V8.072C384.878 7.28267 384.681 6.68 384.286 6.264C383.891 5.83733 383.353 5.624 382.67 5.624C381.987 5.624 381.443 5.83733 381.038 6.264C380.643 6.68 380.446 7.28267 380.446 8.072V13H378.622V4.184H380.446V5.192C380.745 4.82933 381.123 4.54667 381.582 4.344C382.051 4.14133 382.547 4.04 383.07 4.04ZM392.565 4.04C393.247 4.04 393.85 4.17867 394.373 4.456C394.906 4.72267 395.322 5.05867 395.621 5.464V4.184H397.461V13.144C397.461 13.9547 397.29 14.6747 396.949 15.304C396.607 15.944 396.111 16.4453 395.461 16.808C394.821 17.1707 394.053 17.352 393.157 17.352C391.962 17.352 390.97 17.0693 390.181 16.504C389.391 15.9493 388.943 15.192 388.837 14.232H390.645C390.783 14.6907 391.077 15.0587 391.525 15.336C391.983 15.624 392.527 15.768 393.157 15.768C393.893 15.768 394.485 15.544 394.933 15.096C395.391 14.648 395.621 13.9973 395.621 13.144V11.672C395.311 12.088 394.89 12.44 394.357 12.728C393.834 13.0053 393.237 13.144 392.565 13.144C391.797 13.144 391.093 12.952 390.453 12.568C389.823 12.1733 389.322 11.6293 388.949 10.936C388.586 10.232 388.405 9.43733 388.405 8.552C388.405 7.66667 388.586 6.88267 388.949 6.2C389.322 5.51733 389.823 4.98933 390.453 4.616C391.093 4.232 391.797 4.04 392.565 4.04ZM395.621 8.584C395.621 7.976 395.493 7.448 395.237 7C394.991 6.552 394.666 6.21067 394.261 5.976C393.855 5.74133 393.418 5.624 392.949 5.624C392.479 5.624 392.042 5.74133 391.637 5.976C391.231 6.2 390.901 6.536 390.645 6.984C390.399 7.42133 390.277 7.944 390.277 8.552C390.277 9.16 390.399 9.69333 390.645 10.152C390.901 10.6107 391.231 10.9627 391.637 11.208C392.053 11.4427 392.49 11.56 392.949 11.56C393.418 11.56 393.855 11.4427 394.261 11.208C394.666 10.9733 394.991 10.632 395.237 10.184C395.493 9.72533 395.621 9.192 395.621 8.584ZM403.405 8.552C403.405 7.66667 403.586 6.88267 403.949 6.2C404.322 5.51733 404.823 4.98933 405.453 4.616C406.093 4.232 406.797 4.04 407.565 4.04C408.258 4.04 408.861 4.17867 409.373 4.456C409.895 4.72267 410.311 5.05867 410.621 5.464V4.184H412.461V13H410.621V11.688C410.311 12.104 409.89 12.4507 409.357 12.728C408.823 13.0053 408.215 13.144 407.533 13.144C406.775 13.144 406.082 12.952 405.453 12.568C404.823 12.1733 404.322 11.6293 403.949 10.936C403.586 10.232 403.405 9.43733 403.405 8.552ZM410.621 8.584C410.621 7.976 410.493 7.448 410.237 7C409.991 6.552 409.666 6.21067 409.261 5.976C408.855 5.74133 408.418 5.624 407.949 5.624C407.479 5.624 407.042 5.74133 406.637 5.976C406.231 6.2 405.901 6.536 405.645 6.984C405.399 7.42133 405.277 7.944 405.277 8.552C405.277 9.16 405.399 9.69333 405.645 10.152C405.901 10.6107 406.231 10.9627 406.637 11.208C407.053 11.4427 407.49 11.56 407.949 11.56C408.418 11.56 408.855 11.4427 409.261 11.208C409.666 10.9733 409.991 10.632 410.237 10.184C410.493 9.72533 410.621 9.192 410.621 8.584ZM419.304 4.04C419.998 4.04 420.616 4.184 421.16 4.472C421.715 4.76 422.147 5.18667 422.456 5.752C422.766 6.31733 422.92 7 422.92 7.8V13H421.112V8.072C421.112 7.28267 420.915 6.68 420.52 6.264C420.126 5.83733 419.587 5.624 418.904 5.624C418.222 5.624 417.678 5.83733 417.272 6.264C416.878 6.68 416.68 7.28267 416.68 8.072V13H414.856V4.184H416.68V5.192C416.979 4.82933 417.358 4.54667 417.816 4.344C418.286 4.14133 418.782 4.04 419.304 4.04ZM424.639 8.552C424.639 7.66667 424.82 6.88267 425.183 6.2C425.556 5.51733 426.058 4.98933 426.687 4.616C427.327 4.232 428.036 4.04 428.815 4.04C429.391 4.04 429.956 4.168 430.511 4.424C431.076 4.66933 431.524 5 431.855 5.416V1.16H433.695V13H431.855V11.672C431.556 12.0987 431.14 12.4507 430.607 12.728C430.084 13.0053 429.482 13.144 428.799 13.144C428.031 13.144 427.327 12.952 426.687 12.568C426.058 12.1733 425.556 11.6293 425.183 10.936C424.82 10.232 424.639 9.43733 424.639 8.552ZM431.855 8.584C431.855 7.976 431.727 7.448 431.471 7C431.226 6.552 430.9 6.21067 430.495 5.976C430.09 5.74133 429.652 5.624 429.183 5.624C428.714 5.624 428.276 5.74133 427.871 5.976C427.466 6.2 427.135 6.536 426.879 6.984C426.634 7.42133 426.511 7.944 426.511 8.552C426.511 9.16 426.634 9.69333 426.879 10.152C427.135 10.6107 427.466 10.9627 427.871 11.208C428.287 11.4427 428.724 11.56 429.183 11.56C429.652 11.56 430.09 11.4427 430.495 11.208C430.9 10.9733 431.226 10.632 431.471 10.184C431.727 9.72533 431.855 9.192 431.855 8.584ZM442.375 5.672V10.552C442.375 10.8827 442.45 11.1227 442.599 11.272C442.759 11.4107 443.026 11.48 443.399 11.48H444.519V13H443.079C442.258 13 441.628 12.808 441.191 12.424C440.754 12.04 440.535 11.416 440.535 10.552V5.672H439.495V4.184H440.535V1.992H442.375V4.184H444.519V5.672H442.375ZM454.136 4.184L448.728 17.144H446.84L448.632 12.856L445.16 4.184H447.192L449.672 10.904L452.248 4.184H454.136ZM457.337 5.48C457.646 5.07467 458.067 4.73333 458.601 4.456C459.134 4.17867 459.737 4.04 460.409 4.04C461.177 4.04 461.875 4.232 462.505 4.616C463.145 4.98933 463.646 5.51733 464.009 6.2C464.371 6.88267 464.553 7.66667 464.553 8.552C464.553 9.43733 464.371 10.232 464.009 10.936C463.646 11.6293 463.145 12.1733 462.505 12.568C461.875 12.952 461.177 13.144 460.409 13.144C459.737 13.144 459.139 13.0107 458.617 12.744C458.094 12.4667 457.667 12.1253 457.337 11.72V17.192H455.513V4.184H457.337V5.48ZM462.697 8.552C462.697 7.944 462.569 7.42133 462.312 6.984C462.067 6.536 461.737 6.2 461.321 5.976C460.915 5.74133 460.478 5.624 460.009 5.624C459.55 5.624 459.113 5.74133 458.697 5.976C458.291 6.21067 457.961 6.552 457.705 7C457.459 7.448 457.337 7.976 457.337 8.584C457.337 9.192 457.459 9.72533 457.705 10.184C457.961 10.632 458.291 10.9733 458.697 11.208C459.113 11.4427 459.55 11.56 460.009 11.56C460.478 11.56 460.915 11.4427 461.321 11.208C461.737 10.9627 462.067 10.6107 462.312 10.152C462.569 9.69333 462.697 9.16 462.697 8.552ZM474.436 8.376C474.436 8.70667 474.415 9.00533 474.372 9.272H467.636C467.69 9.976 467.951 10.5413 468.42 10.968C468.89 11.3947 469.466 11.608 470.148 11.608C471.13 11.608 471.823 11.1973 472.228 10.376H474.196C473.93 11.1867 473.444 11.8533 472.74 12.376C472.047 12.888 471.183 13.144 470.148 13.144C469.306 13.144 468.548 12.9573 467.876 12.584C467.215 12.2 466.692 11.6667 466.308 10.984C465.935 10.2907 465.748 9.49067 465.748 8.584C465.748 7.67733 465.93 6.88267 466.292 6.2C466.666 5.50667 467.183 4.97333 467.844 4.6C468.516 4.22667 469.284 4.04 470.148 4.04C470.98 4.04 471.722 4.22133 472.372 4.584C473.023 4.94667 473.53 5.45867 473.892 6.12C474.255 6.77067 474.436 7.52267 474.436 8.376ZM472.532 7.8C472.522 7.128 472.282 6.58933 471.812 6.184C471.343 5.77867 470.762 5.576 470.068 5.576C469.439 5.576 468.9 5.77867 468.452 6.184C468.004 6.57867 467.738 7.11733 467.652 7.8H472.532ZM479.431 13.144C478.738 13.144 478.114 13.0213 477.559 12.776C477.015 12.52 476.583 12.1787 476.263 11.752C475.943 11.3147 475.773 10.8293 475.751 10.296H477.639C477.671 10.6693 477.847 10.984 478.167 11.24C478.498 11.4853 478.909 11.608 479.399 11.608C479.911 11.608 480.306 11.512 480.583 11.32C480.871 11.1173 481.015 10.8613 481.015 10.552C481.015 10.2213 480.855 9.976 480.535 9.816C480.226 9.656 479.73 9.48 479.047 9.288C478.386 9.10667 477.847 8.93067 477.431 8.76C477.015 8.58933 476.653 8.328 476.343 7.976C476.045 7.624 475.895 7.16 475.895 6.584C475.895 6.11467 476.034 5.688 476.311 5.304C476.589 4.90933 476.983 4.6 477.495 4.376C478.018 4.152 478.615 4.04 479.287 4.04C480.29 4.04 481.095 4.296 481.703 4.808C482.322 5.30933 482.653 5.99733 482.695 6.872H480.871C480.839 6.47733 480.679 6.16267 480.391 5.928C480.103 5.69333 479.714 5.576 479.223 5.576C478.743 5.576 478.375 5.66667 478.119 5.848C477.863 6.02933 477.735 6.26933 477.735 6.568C477.735 6.80267 477.821 7 477.991 7.16C478.162 7.32 478.37 7.448 478.615 7.544C478.861 7.62933 479.223 7.74133 479.703 7.88C480.343 8.05067 480.866 8.22667 481.271 8.408C481.687 8.57867 482.045 8.83467 482.343 9.176C482.642 9.51733 482.797 9.97067 482.807 10.536C482.807 11.0373 482.669 11.4853 482.391 11.88C482.114 12.2747 481.719 12.584 481.207 12.808C480.706 13.032 480.114 13.144 479.431 13.144ZM492.858 8.376C492.858 8.70667 492.837 9.00533 492.794 9.272H486.058C486.111 9.976 486.373 10.5413 486.842 10.968C487.311 11.3947 487.887 11.608 488.57 11.608C489.551 11.608 490.245 11.1973 490.65 10.376H492.618C492.351 11.1867 491.866 11.8533 491.162 12.376C490.469 12.888 489.605 13.144 488.57 13.144C487.727 13.144 486.97 12.9573 486.298 12.584C485.637 12.2 485.114 11.6667 484.73 10.984C484.357 10.2907 484.17 9.49067 484.17 8.584C484.17 7.67733 484.351 6.88267 484.714 6.2C485.087 5.50667 485.605 4.97333 486.266 4.6C486.938 4.22667 487.706 4.04 488.57 4.04C489.402 4.04 490.143 4.22133 490.794 4.584C491.445 4.94667 491.951 5.45867 492.314 6.12C492.677 6.77067 492.858 7.52267 492.858 8.376ZM490.954 7.8C490.943 7.128 490.703 6.58933 490.234 6.184C489.765 5.77867 489.183 5.576 488.49 5.576C487.861 5.576 487.322 5.77867 486.874 6.184C486.426 6.57867 486.159 7.11733 486.074 7.8H490.954ZM496.781 5.672V10.552C496.781 10.8827 496.856 11.1227 497.005 11.272C497.165 11.4107 497.432 11.48 497.805 11.48H498.925V13H497.485C496.664 13 496.034 12.808 495.597 12.424C495.16 12.04 494.941 11.416 494.941 10.552V5.672H493.901V4.184H494.941V1.992H496.781V4.184H498.925V5.672H496.781ZM502.734 5.672V10.552C502.734 10.8827 502.809 11.1227 502.958 11.272C503.118 11.4107 503.385 11.48 503.758 11.48H504.878V13H503.438C502.617 13 501.988 12.808 501.55 12.424C501.113 12.04 500.894 11.416 500.894 10.552V5.672H499.854V4.184H500.894V1.992H502.734V4.184H504.878V5.672H502.734ZM507.487 3.016C507.157 3.016 506.879 2.904 506.655 2.68C506.431 2.456 506.319 2.17867 506.319 1.848C506.319 1.51733 506.431 1.24 506.655 1.016C506.879 0.791999 507.157 0.679999 507.487 0.679999C507.807 0.679999 508.079 0.791999 508.303 1.016C508.527 1.24 508.639 1.51733 508.639 1.848C508.639 2.17867 508.527 2.456 508.303 2.68C508.079 2.904 507.807 3.016 507.487 3.016ZM508.383 4.184V13H506.559V4.184H508.383ZM515.226 4.04C515.919 4.04 516.538 4.184 517.082 4.472C517.637 4.76 518.069 5.18667 518.378 5.752C518.687 6.31733 518.842 7 518.842 7.8V13H517.034V8.072C517.034 7.28267 516.837 6.68 516.442 6.264C516.047 5.83733 515.509 5.624 514.826 5.624C514.143 5.624 513.599 5.83733 513.194 6.264C512.799 6.68 512.602 7.28267 512.602 8.072V13H510.778V4.184H512.602V5.192C512.901 4.82933 513.279 4.54667 513.738 4.344C514.207 4.14133 514.703 4.04 515.226 4.04ZM524.721 4.04C525.403 4.04 526.006 4.17867 526.529 4.456C527.062 4.72267 527.478 5.05867 527.777 5.464V4.184H529.617V13.144C529.617 13.9547 529.446 14.6747 529.105 15.304C528.763 15.944 528.267 16.4453 527.617 16.808C526.977 17.1707 526.209 17.352 525.313 17.352C524.118 17.352 523.126 17.0693 522.337 16.504C521.547 15.9493 521.099 15.192 520.993 14.232H522.801C522.939 14.6907 523.233 15.0587 523.681 15.336C524.139 15.624 524.683 15.768 525.313 15.768C526.049 15.768 526.641 15.544 527.089 15.096C527.547 14.648 527.777 13.9973 527.777 13.144V11.672C527.467 12.088 527.046 12.44 526.513 12.728C525.99 13.0053 525.393 13.144 524.721 13.144C523.953 13.144 523.249 12.952 522.609 12.568C521.979 12.1733 521.478 11.6293 521.105 10.936C520.742 10.232 520.561 9.43733 520.561 8.552C520.561 7.66667 520.742 6.88267 521.105 6.2C521.478 5.51733 521.979 4.98933 522.609 4.616C523.249 4.232 523.953 4.04 524.721 4.04ZM527.777 8.584C527.777 7.976 527.649 7.448 527.393 7C527.147 6.552 526.822 6.21067 526.417 5.976C526.011 5.74133 525.574 5.624 525.105 5.624C524.635 5.624 524.198 5.74133 523.793 5.976C523.387 6.2 523.057 6.536 522.801 6.984C522.555 7.42133 522.433 7.944 522.433 8.552C522.433 9.16 522.555 9.69333 522.801 10.152C523.057 10.6107 523.387 10.9627 523.793 11.208C524.209 11.4427 524.646 11.56 525.105 11.56C525.574 11.56 526.011 11.4427 526.417 11.208C526.822 10.9733 527.147 10.632 527.393 10.184C527.649 9.72533 527.777 9.192 527.777 8.584ZM2.128 31.016C1.79733 31.016 1.52 30.904 1.296 30.68C1.072 30.456 0.96 30.1787 0.96 29.848C0.96 29.5173 1.072 29.24 1.296 29.016C1.52 28.792 1.79733 28.68 2.128 28.68C2.448 28.68 2.72 28.792 2.944 29.016C3.168 29.24 3.28 29.5173 3.28 29.848C3.28 30.1787 3.168 30.456 2.944 30.68C2.72 30.904 2.448 31.016 2.128 31.016ZM3.024 32.184V41H1.2V32.184H3.024ZM9.86675 32.04C10.5601 32.04 11.1788 32.184 11.7228 32.472C12.2774 32.76 12.7094 33.1867 13.0188 33.752C13.3281 34.3173 13.4828 35 13.4828 35.8V41H11.6748V36.072C11.6748 35.2827 11.4774 34.68 11.0828 34.264C10.6881 33.8373 10.1494 33.624 9.46675 33.624C8.78408 33.624 8.24008 33.8373 7.83475 34.264C7.44008 34.68 7.24275 35.2827 7.24275 36.072V41H5.41875V32.184H7.24275V33.192C7.54142 32.8293 7.92008 32.5467 8.37875 32.344C8.84808 32.1413 9.34408 32.04 9.86675 32.04ZM15.2014 36.552C15.2014 35.6667 15.3827 34.8827 15.7454 34.2C16.1187 33.5173 16.62 32.9893 17.2494 32.616C17.8894 32.232 18.5987 32.04 19.3774 32.04C19.9534 32.04 20.5187 32.168 21.0734 32.424C21.6387 32.6693 22.0867 33 22.4174 33.416V29.16H24.2574V41H22.4174V39.672C22.1187 40.0987 21.7027 40.4507 21.1694 40.728C20.6467 41.0053 20.044 41.144 19.3614 41.144C18.5934 41.144 17.8894 40.952 17.2494 40.568C16.62 40.1733 16.1187 39.6293 15.7454 38.936C15.3827 38.232 15.2014 37.4373 15.2014 36.552ZM22.4174 36.584C22.4174 35.976 22.2894 35.448 22.0334 35C21.788 34.552 21.4627 34.2107 21.0574 33.976C20.652 33.7413 20.2147 33.624 19.7454 33.624C19.276 33.624 18.8387 33.7413 18.4334 33.976C18.028 34.2 17.6974 34.536 17.4414 34.984C17.196 35.4213 17.0734 35.944 17.0734 36.552C17.0734 37.16 17.196 37.6933 17.4414 38.152C17.6974 38.6107 18.028 38.9627 18.4334 39.208C18.8494 39.4427 19.2867 39.56 19.7454 39.56C20.2147 39.56 20.652 39.4427 21.0574 39.208C21.4627 38.9733 21.788 38.632 22.0334 38.184C22.2894 37.7253 22.4174 37.192 22.4174 36.584ZM34.6371 32.184V41H32.8131V39.96C32.5251 40.3227 32.1465 40.6107 31.6771 40.824C31.2185 41.0267 30.7278 41.128 30.2051 41.128C29.5118 41.128 28.8878 40.984 28.3331 40.696C27.7891 40.408 27.3571 39.9813 27.0371 39.416C26.7278 38.8507 26.5731 38.168 26.5731 37.368V32.184H28.3811V37.096C28.3811 37.8853 28.5785 38.4933 28.9731 38.92C29.3678 39.336 29.9065 39.544 30.5891 39.544C31.2718 39.544 31.8105 39.336 32.2051 38.92C32.6105 38.4933 32.8131 37.8853 32.8131 37.096V32.184H34.6371ZM40.2438 41.144C39.5504 41.144 38.9264 41.0213 38.3718 40.776C37.8278 40.52 37.3958 40.1787 37.0758 39.752C36.7558 39.3147 36.5851 38.8293 36.5638 38.296H38.4518C38.4838 38.6693 38.6598 38.984 38.9798 39.24C39.3104 39.4853 39.7211 39.608 40.2118 39.608C40.7238 39.608 41.1184 39.512 41.3958 39.32C41.6838 39.1173 41.8278 38.8613 41.8278 38.552C41.8278 38.2213 41.6678 37.976 41.3478 37.816C41.0384 37.656 40.5424 37.48 39.8598 37.288C39.1984 37.1067 38.6598 36.9307 38.2438 36.76C37.8278 36.5893 37.4651 36.328 37.1558 35.976C36.8571 35.624 36.7078 35.16 36.7078 34.584C36.7078 34.1147 36.8464 33.688 37.1238 33.304C37.4011 32.9093 37.7958 32.6 38.3078 32.376C38.8304 32.152 39.4278 32.04 40.0998 32.04C41.1024 32.04 41.9078 32.296 42.5158 32.808C43.1344 33.3093 43.4651 33.9973 43.5078 34.872H41.6838C41.6518 34.4773 41.4918 34.1627 41.2038 33.928C40.9158 33.6933 40.5264 33.576 40.0358 33.576C39.5558 33.576 39.1878 33.6667 38.9318 33.848C38.6758 34.0293 38.5478 34.2693 38.5478 34.568C38.5478 34.8027 38.6331 35 38.8038 35.16C38.9744 35.32 39.1824 35.448 39.4278 35.544C39.6731 35.6293 40.0358 35.7413 40.5158 35.88C41.1558 36.0507 41.6784 36.2267 42.0838 36.408C42.4998 36.5787 42.8571 36.8347 43.1558 37.176C43.4544 37.5173 43.6091 37.9707 43.6198 38.536C43.6198 39.0373 43.4811 39.4853 43.2038 39.88C42.9264 40.2747 42.5318 40.584 42.0198 40.808C41.5184 41.032 40.9264 41.144 40.2438 41.144ZM47.7186 33.672V38.552C47.7186 38.8827 47.7933 39.1227 47.9426 39.272C48.1026 39.4107 48.3693 39.48 48.7426 39.48H49.8626V41H48.4226C47.6013 41 46.972 40.808 46.5346 40.424C46.0973 40.04 45.8786 39.416 45.8786 38.552V33.672H44.8386V32.184H45.8786V29.992H47.7186V32.184H49.8626V33.672H47.7186ZM53.3678 33.464C53.6344 33.016 53.9864 32.6693 54.4238 32.424C54.8718 32.168 55.3998 32.04 56.0078 32.04V33.928H55.5438C54.8291 33.928 54.2851 34.1093 53.9118 34.472C53.5491 34.8347 53.3678 35.464 53.3678 36.36V41H51.5438V32.184H53.3678V33.464ZM65.6204 32.184L60.2124 45.144H58.3244L60.1164 40.856L56.6444 32.184H58.6764L61.1564 38.904L63.7324 32.184H65.6204ZM67.7329 41.112C67.4022 41.112 67.1249 41 66.9009 40.776C66.6769 40.552 66.5649 40.2747 66.5649 39.944C66.5649 39.6133 66.6769 39.336 66.9009 39.112C67.1249 38.888 67.4022 38.776 67.7329 38.776C68.0529 38.776 68.3249 38.888 68.5489 39.112C68.7729 39.336 68.8849 39.6133 68.8849 39.944C68.8849 40.2747 68.7729 40.552 68.5489 40.776C68.3249 41 68.0529 41.112 67.7329 41.112ZM76.8365 39.528H80.5965V41H75.0125V29.88H76.8365V39.528ZM85.9459 41.144C85.1139 41.144 84.3619 40.9573 83.6899 40.584C83.0179 40.2 82.4899 39.6667 82.1059 38.984C81.7219 38.2907 81.5299 37.4907 81.5299 36.584C81.5299 35.688 81.7272 34.8933 82.1219 34.2C82.5165 33.5067 83.0552 32.9733 83.7379 32.6C84.4205 32.2267 85.1832 32.04 86.0259 32.04C86.8685 32.04 87.6312 32.2267 88.3139 32.6C88.9965 32.9733 89.5352 33.5067 89.9299 34.2C90.3245 34.8933 90.5219 35.688 90.5219 36.584C90.5219 37.48 90.3192 38.2747 89.9139 38.968C89.5085 39.6613 88.9539 40.2 88.2499 40.584C87.5565 40.9573 86.7885 41.144 85.9459 41.144ZM85.9459 39.56C86.4152 39.56 86.8525 39.448 87.2579 39.224C87.6739 39 88.0099 38.664 88.2659 38.216C88.5219 37.768 88.6499 37.224 88.6499 36.584C88.6499 35.944 88.5272 35.4053 88.2819 34.968C88.0365 34.52 87.7112 34.184 87.3059 33.96C86.9005 33.736 86.4632 33.624 85.9939 33.624C85.5245 33.624 85.0872 33.736 84.6819 33.96C84.2872 34.184 83.9725 34.52 83.7379 34.968C83.5032 35.4053 83.3859 35.944 83.3859 36.584C83.3859 37.5333 83.6259 38.2693 84.1059 38.792C84.5965 39.304 85.2099 39.56 85.9459 39.56ZM94.149 33.464C94.4157 33.016 94.7677 32.6693 95.205 32.424C95.653 32.168 96.181 32.04 96.789 32.04V33.928H96.325C95.6103 33.928 95.0663 34.1093 94.693 34.472C94.3303 34.8347 94.149 35.464 94.149 36.36V41H92.325V32.184H94.149V33.464ZM106.546 36.376C106.546 36.7067 106.524 37.0053 106.482 37.272H99.7456C99.799 37.976 100.06 38.5413 100.53 38.968C100.999 39.3947 101.575 39.608 102.258 39.608C103.239 39.608 103.932 39.1973 104.338 38.376H106.306C106.039 39.1867 105.554 39.8533 104.85 40.376C104.156 40.888 103.292 41.144 102.258 41.144C101.415 41.144 100.658 40.9573 99.9856 40.584C99.3243 40.2 98.8016 39.6667 98.4176 38.984C98.0443 38.2907 97.8576 37.4907 97.8576 36.584C97.8576 35.6773 98.039 34.8827 98.4016 34.2C98.775 33.5067 99.2923 32.9733 99.9536 32.6C100.626 32.2267 101.394 32.04 102.258 32.04C103.09 32.04 103.831 32.2213 104.482 32.584C105.132 32.9467 105.639 33.4587 106.002 34.12C106.364 34.7707 106.546 35.5227 106.546 36.376ZM104.642 35.8C104.631 35.128 104.391 34.5893 103.922 34.184C103.452 33.7787 102.871 33.576 102.178 33.576C101.548 33.576 101.01 33.7787 100.562 34.184C100.114 34.5787 99.847 35.1173 99.7616 35.8H104.642ZM119.013 32.04C119.706 32.04 120.325 32.184 120.869 32.472C121.423 32.76 121.855 33.1867 122.165 33.752C122.485 34.3173 122.645 35 122.645 35.8V41H120.837V36.072C120.837 35.2827 120.639 34.68 120.245 34.264C119.85 33.8373 119.311 33.624 118.629 33.624C117.946 33.624 117.402 33.8373 116.997 34.264C116.602 34.68 116.405 35.2827 116.405 36.072V41H114.597V36.072C114.597 35.2827 114.399 34.68 114.005 34.264C113.61 33.8373 113.071 33.624 112.389 33.624C111.706 33.624 111.162 33.8373 110.757 34.264C110.362 34.68 110.165 35.2827 110.165 36.072V41H108.341V32.184H110.165V33.192C110.463 32.8293 110.842 32.5467 111.301 32.344C111.759 32.1413 112.25 32.04 112.773 32.04C113.477 32.04 114.106 32.1893 114.661 32.488C115.215 32.7867 115.642 33.2187 115.941 33.784C116.207 33.2507 116.623 32.8293 117.189 32.52C117.754 32.2 118.362 32.04 119.013 32.04ZM130.946 29.88V41H129.122V29.88H130.946ZM135.165 33.48C135.474 33.0747 135.895 32.7333 136.429 32.456C136.962 32.1787 137.565 32.04 138.237 32.04C139.005 32.04 139.703 32.232 140.333 32.616C140.973 32.9893 141.474 33.5173 141.837 34.2C142.199 34.8827 142.381 35.6667 142.381 36.552C142.381 37.4373 142.199 38.232 141.837 38.936C141.474 39.6293 140.973 40.1733 140.333 40.568C139.703 40.952 139.005 41.144 138.237 41.144C137.565 41.144 136.967 41.0107 136.445 40.744C135.922 40.4667 135.495 40.1253 135.165 39.72V45.192H133.341V32.184H135.165V33.48ZM140.525 36.552C140.525 35.944 140.397 35.4213 140.141 34.984C139.895 34.536 139.565 34.2 139.149 33.976C138.743 33.7413 138.306 33.624 137.837 33.624C137.378 33.624 136.941 33.7413 136.525 33.976C136.119 34.2107 135.789 34.552 135.533 35C135.287 35.448 135.165 35.976 135.165 36.584C135.165 37.192 135.287 37.7253 135.533 38.184C135.789 38.632 136.119 38.9733 136.525 39.208C136.941 39.4427 137.378 39.56 137.837 39.56C138.306 39.56 138.743 39.4427 139.149 39.208C139.565 38.9627 139.895 38.6107 140.141 38.152C140.397 37.6933 140.525 37.16 140.525 36.552ZM147.384 41.144C146.691 41.144 146.067 41.0213 145.512 40.776C144.968 40.52 144.536 40.1787 144.216 39.752C143.896 39.3147 143.726 38.8293 143.704 38.296H145.592C145.624 38.6693 145.8 38.984 146.12 39.24C146.451 39.4853 146.862 39.608 147.352 39.608C147.864 39.608 148.259 39.512 148.536 39.32C148.824 39.1173 148.968 38.8613 148.968 38.552C148.968 38.2213 148.808 37.976 148.488 37.816C148.179 37.656 147.683 37.48 147 37.288C146.339 37.1067 145.8 36.9307 145.384 36.76C144.968 36.5893 144.606 36.328 144.296 35.976C143.998 35.624 143.848 35.16 143.848 34.584C143.848 34.1147 143.987 33.688 144.264 33.304C144.542 32.9093 144.936 32.6 145.448 32.376C145.971 32.152 146.568 32.04 147.24 32.04C148.243 32.04 149.048 32.296 149.656 32.808C150.275 33.3093 150.606 33.9973 150.648 34.872H148.824C148.792 34.4773 148.632 34.1627 148.344 33.928C148.056 33.6933 147.667 33.576 147.176 33.576C146.696 33.576 146.328 33.6667 146.072 33.848C145.816 34.0293 145.688 34.2693 145.688 34.568C145.688 34.8027 145.774 35 145.944 35.16C146.115 35.32 146.323 35.448 146.568 35.544C146.814 35.6293 147.176 35.7413 147.656 35.88C148.296 36.0507 148.819 36.2267 149.224 36.408C149.64 36.5787 149.998 36.8347 150.296 37.176C150.595 37.5173 150.75 37.9707 150.76 38.536C150.76 39.0373 150.622 39.4853 150.344 39.88C150.067 40.2747 149.672 40.584 149.16 40.808C148.659 41.032 148.067 41.144 147.384 41.144ZM160.715 32.184V41H158.891V39.96C158.603 40.3227 158.225 40.6107 157.755 40.824C157.297 41.0267 156.806 41.128 156.283 41.128C155.59 41.128 154.966 40.984 154.411 40.696C153.867 40.408 153.435 39.9813 153.115 39.416C152.806 38.8507 152.651 38.168 152.651 37.368V32.184H154.459V37.096C154.459 37.8853 154.657 38.4933 155.051 38.92C155.446 39.336 155.985 39.544 156.667 39.544C157.35 39.544 157.889 39.336 158.283 38.92C158.689 38.4933 158.891 37.8853 158.891 37.096V32.184H160.715ZM173.794 32.04C174.487 32.04 175.106 32.184 175.65 32.472C176.205 32.76 176.637 33.1867 176.946 33.752C177.266 34.3173 177.426 35 177.426 35.8V41H175.618V36.072C175.618 35.2827 175.421 34.68 175.026 34.264C174.631 33.8373 174.093 33.624 173.41 33.624C172.727 33.624 172.183 33.8373 171.778 34.264C171.383 34.68 171.186 35.2827 171.186 36.072V41H169.378V36.072C169.378 35.2827 169.181 34.68 168.786 34.264C168.391 33.8373 167.853 33.624 167.17 33.624C166.487 33.624 165.943 33.8373 165.538 34.264C165.143 34.68 164.946 35.2827 164.946 36.072V41H163.122V32.184H164.946V33.192C165.245 32.8293 165.623 32.5467 166.082 32.344C166.541 32.1413 167.031 32.04 167.554 32.04C168.258 32.04 168.887 32.1893 169.442 32.488C169.997 32.7867 170.423 33.2187 170.722 33.784C170.989 33.2507 171.405 32.8293 171.97 32.52C172.535 32.2 173.143 32.04 173.794 32.04ZM188.463 32.04C189.135 32.04 189.732 32.184 190.255 32.472C190.788 32.76 191.204 33.1867 191.503 33.752C191.812 34.3173 191.967 35 191.967 35.8V41H190.159V36.072C190.159 35.2827 189.962 34.68 189.567 34.264C189.172 33.8373 188.634 33.624 187.951 33.624C187.268 33.624 186.724 33.8373 186.319 34.264C185.924 34.68 185.727 35.2827 185.727 36.072V41H183.903V29.16H185.727V33.208C186.036 32.8347 186.426 32.5467 186.895 32.344C187.375 32.1413 187.898 32.04 188.463 32.04ZM193.686 36.552C193.686 35.6667 193.867 34.8827 194.23 34.2C194.603 33.5173 195.104 32.9893 195.734 32.616C196.374 32.232 197.078 32.04 197.846 32.04C198.539 32.04 199.142 32.1787 199.654 32.456C200.176 32.7227 200.592 33.0587 200.902 33.464V32.184H202.742V41H200.902V39.688C200.592 40.104 200.171 40.4507 199.638 40.728C199.104 41.0053 198.496 41.144 197.814 41.144C197.056 41.144 196.363 40.952 195.734 40.568C195.104 40.1733 194.603 39.6293 194.23 38.936C193.867 38.232 193.686 37.4373 193.686 36.552ZM200.902 36.584C200.902 35.976 200.774 35.448 200.518 35C200.272 34.552 199.947 34.2107 199.542 33.976C199.136 33.7413 198.699 33.624 198.23 33.624C197.76 33.624 197.323 33.7413 196.918 33.976C196.512 34.2 196.182 34.536 195.926 34.984C195.68 35.4213 195.558 35.944 195.558 36.552C195.558 37.16 195.68 37.6933 195.926 38.152C196.182 38.6107 196.512 38.9627 196.918 39.208C197.334 39.4427 197.771 39.56 198.23 39.56C198.699 39.56 199.136 39.4427 199.542 39.208C199.947 38.9733 200.272 38.632 200.518 38.184C200.774 37.7253 200.902 37.192 200.902 36.584ZM208.338 41.144C207.644 41.144 207.02 41.0213 206.466 40.776C205.922 40.52 205.49 40.1787 205.17 39.752C204.85 39.3147 204.679 38.8293 204.658 38.296H206.546C206.578 38.6693 206.754 38.984 207.074 39.24C207.404 39.4853 207.815 39.608 208.306 39.608C208.818 39.608 209.212 39.512 209.49 39.32C209.778 39.1173 209.922 38.8613 209.922 38.552C209.922 38.2213 209.762 37.976 209.442 37.816C209.132 37.656 208.636 37.48 207.954 37.288C207.292 37.1067 206.754 36.9307 206.338 36.76C205.922 36.5893 205.559 36.328 205.25 35.976C204.951 35.624 204.802 35.16 204.802 34.584C204.802 34.1147 204.94 33.688 205.218 33.304C205.495 32.9093 205.89 32.6 206.402 32.376C206.924 32.152 207.522 32.04 208.194 32.04C209.196 32.04 210.002 32.296 210.61 32.808C211.228 33.3093 211.559 33.9973 211.602 34.872H209.778C209.746 34.4773 209.586 34.1627 209.298 33.928C209.01 33.6933 208.62 33.576 208.13 33.576C207.65 33.576 207.282 33.6667 207.026 33.848C206.77 34.0293 206.642 34.2693 206.642 34.568C206.642 34.8027 206.727 35 206.898 35.16C207.068 35.32 207.276 35.448 207.522 35.544C207.767 35.6293 208.13 35.7413 208.61 35.88C209.25 36.0507 209.772 36.2267 210.178 36.408C210.594 36.5787 210.951 36.8347 211.25 37.176C211.548 37.5173 211.703 37.9707 211.714 38.536C211.714 39.0373 211.575 39.4853 211.298 39.88C211.02 40.2747 210.626 40.584 210.114 40.808C209.612 41.032 209.02 41.144 208.338 41.144ZM219.665 33.496C219.974 33.0693 220.395 32.7227 220.929 32.456C221.473 32.1787 222.075 32.04 222.737 32.04C223.515 32.04 224.219 32.2267 224.849 32.6C225.478 32.9733 225.974 33.5067 226.337 34.2C226.699 34.8827 226.881 35.6667 226.881 36.552C226.881 37.4373 226.699 38.232 226.337 38.936C225.974 39.6293 225.473 40.1733 224.833 40.568C224.203 40.952 223.505 41.144 222.737 41.144C222.054 41.144 221.446 41.0107 220.913 40.744C220.39 40.4773 219.974 40.136 219.665 39.72V41H217.841V29.16H219.665V33.496ZM225.025 36.552C225.025 35.944 224.897 35.4213 224.641 34.984C224.395 34.536 224.065 34.2 223.649 33.976C223.243 33.7413 222.806 33.624 222.337 33.624C221.878 33.624 221.441 33.7413 221.025 33.976C220.619 34.2107 220.289 34.552 220.033 35C219.787 35.448 219.665 35.976 219.665 36.584C219.665 37.192 219.787 37.7253 220.033 38.184C220.289 38.632 220.619 38.9733 221.025 39.208C221.441 39.4427 221.878 39.56 222.337 39.56C222.806 39.56 223.243 39.4427 223.649 39.208C224.065 38.9627 224.395 38.6107 224.641 38.152C224.897 37.6933 225.025 37.16 225.025 36.552ZM236.764 36.376C236.764 36.7067 236.743 37.0053 236.7 37.272H229.964C230.018 37.976 230.279 38.5413 230.748 38.968C231.218 39.3947 231.794 39.608 232.476 39.608C233.458 39.608 234.151 39.1973 234.556 38.376H236.524C236.258 39.1867 235.772 39.8533 235.068 40.376C234.375 40.888 233.511 41.144 232.476 41.144C231.634 41.144 230.876 40.9573 230.204 40.584C229.543 40.2 229.02 39.6667 228.636 38.984C228.263 38.2907 228.076 37.4907 228.076 36.584C228.076 35.6773 228.258 34.8827 228.62 34.2C228.994 33.5067 229.511 32.9733 230.172 32.6C230.844 32.2267 231.612 32.04 232.476 32.04C233.308 32.04 234.05 32.2213 234.7 32.584C235.351 32.9467 235.858 33.4587 236.22 34.12C236.583 34.7707 236.764 35.5227 236.764 36.376ZM234.86 35.8C234.85 35.128 234.61 34.5893 234.14 34.184C233.671 33.7787 233.09 33.576 232.396 33.576C231.767 33.576 231.228 33.7787 230.78 34.184C230.332 34.5787 230.066 35.1173 229.98 35.8H234.86ZM246.639 36.376C246.639 36.7067 246.618 37.0053 246.575 37.272H239.839C239.893 37.976 240.154 38.5413 240.623 38.968C241.093 39.3947 241.669 39.608 242.351 39.608C243.333 39.608 244.026 39.1973 244.431 38.376H246.399C246.133 39.1867 245.647 39.8533 244.943 40.376C244.25 40.888 243.386 41.144 242.351 41.144C241.509 41.144 240.751 40.9573 240.079 40.584C239.418 40.2 238.895 39.6667 238.511 38.984C238.138 38.2907 237.951 37.4907 237.951 36.584C237.951 35.6773 238.133 34.8827 238.495 34.2C238.869 33.5067 239.386 32.9733 240.047 32.6C240.719 32.2267 241.487 32.04 242.351 32.04C243.183 32.04 243.925 32.2213 244.575 32.584C245.226 32.9467 245.733 33.4587 246.095 34.12C246.458 34.7707 246.639 35.5227 246.639 36.376ZM244.735 35.8C244.725 35.128 244.485 34.5893 244.015 34.184C243.546 33.7787 242.965 33.576 242.271 33.576C241.642 33.576 241.103 33.7787 240.655 34.184C240.207 34.5787 239.941 35.1173 239.855 35.8H244.735ZM252.882 32.04C253.576 32.04 254.194 32.184 254.738 32.472C255.293 32.76 255.725 33.1867 256.034 33.752C256.344 34.3173 256.498 35 256.498 35.8V41H254.69V36.072C254.69 35.2827 254.493 34.68 254.098 34.264C253.704 33.8373 253.165 33.624 252.482 33.624C251.8 33.624 251.256 33.8373 250.85 34.264C250.456 34.68 250.258 35.2827 250.258 36.072V41H248.434V32.184H250.258V33.192C250.557 32.8293 250.936 32.5467 251.394 32.344C251.864 32.1413 252.36 32.04 252.882 32.04ZM265.109 33.672V38.552C265.109 38.8827 265.184 39.1227 265.333 39.272C265.493 39.4107 265.76 39.48 266.133 39.48H267.253V41H265.813C264.992 41 264.363 40.808 263.925 40.424C263.488 40.04 263.269 39.416 263.269 38.552V33.672H262.229V32.184H263.269V29.992H265.109V32.184H267.253V33.672H265.109ZM273.494 32.04C274.166 32.04 274.764 32.184 275.286 32.472C275.82 32.76 276.236 33.1867 276.534 33.752C276.844 34.3173 276.998 35 276.998 35.8V41H275.19V36.072C275.19 35.2827 274.993 34.68 274.598 34.264C274.204 33.8373 273.665 33.624 272.982 33.624C272.3 33.624 271.756 33.8373 271.35 34.264C270.956 34.68 270.758 35.2827 270.758 36.072V41H268.934V29.16H270.758V33.208C271.068 32.8347 271.457 32.5467 271.926 32.344C272.406 32.1413 272.929 32.04 273.494 32.04ZM287.405 36.376C287.405 36.7067 287.384 37.0053 287.341 37.272H280.605C280.658 37.976 280.92 38.5413 281.389 38.968C281.858 39.3947 282.434 39.608 283.117 39.608C284.098 39.608 284.792 39.1973 285.197 38.376H287.165C286.898 39.1867 286.413 39.8533 285.709 40.376C285.016 40.888 284.152 41.144 283.117 41.144C282.274 41.144 281.517 40.9573 280.845 40.584C280.184 40.2 279.661 39.6667 279.277 38.984C278.904 38.2907 278.717 37.4907 278.717 36.584C278.717 35.6773 278.898 34.8827 279.261 34.2C279.634 33.5067 280.152 32.9733 280.813 32.6C281.485 32.2267 282.253 32.04 283.117 32.04C283.949 32.04 284.69 32.2213 285.341 32.584C285.992 32.9467 286.498 33.4587 286.861 34.12C287.224 34.7707 287.405 35.5227 287.405 36.376ZM285.501 35.8C285.49 35.128 285.25 34.5893 284.781 34.184C284.312 33.7787 283.73 33.576 283.037 33.576C282.408 33.576 281.869 33.7787 281.421 34.184C280.973 34.5787 280.706 35.1173 280.621 35.8H285.501ZM294.284 31.016C293.954 31.016 293.676 30.904 293.452 30.68C293.228 30.456 293.116 30.1787 293.116 29.848C293.116 29.5173 293.228 29.24 293.452 29.016C293.676 28.792 293.954 28.68 294.284 28.68C294.604 28.68 294.876 28.792 295.1 29.016C295.324 29.24 295.436 29.5173 295.436 29.848C295.436 30.1787 295.324 30.456 295.1 30.68C294.876 30.904 294.604 31.016 294.284 31.016ZM295.18 32.184V41H293.356V32.184H295.18ZM302.023 32.04C302.716 32.04 303.335 32.184 303.879 32.472C304.434 32.76 304.866 33.1867 305.175 33.752C305.484 34.3173 305.639 35 305.639 35.8V41H303.831V36.072C303.831 35.2827 303.634 34.68 303.239 34.264C302.844 33.8373 302.306 33.624 301.623 33.624C300.94 33.624 300.396 33.8373 299.991 34.264C299.596 34.68 299.399 35.2827 299.399 36.072V41H297.575V32.184H299.399V33.192C299.698 32.8293 300.076 32.5467 300.535 32.344C301.004 32.1413 301.5 32.04 302.023 32.04ZM307.358 36.552C307.358 35.6667 307.539 34.8827 307.902 34.2C308.275 33.5173 308.776 32.9893 309.406 32.616C310.046 32.232 310.755 32.04 311.534 32.04C312.11 32.04 312.675 32.168 313.23 32.424C313.795 32.6693 314.243 33 314.574 33.416V29.16H316.414V41H314.574V39.672C314.275 40.0987 313.859 40.4507 313.326 40.728C312.803 41.0053 312.2 41.144 311.518 41.144C310.75 41.144 310.046 40.952 309.406 40.568C308.776 40.1733 308.275 39.6293 307.902 38.936C307.539 38.232 307.358 37.4373 307.358 36.552ZM314.574 36.584C314.574 35.976 314.446 35.448 314.19 35C313.944 34.552 313.619 34.2107 313.214 33.976C312.808 33.7413 312.371 33.624 311.902 33.624C311.432 33.624 310.995 33.7413 310.59 33.976C310.184 34.2 309.854 34.536 309.598 34.984C309.352 35.4213 309.23 35.944 309.23 36.552C309.23 37.16 309.352 37.6933 309.598 38.152C309.854 38.6107 310.184 38.9627 310.59 39.208C311.006 39.4427 311.443 39.56 311.902 39.56C312.371 39.56 312.808 39.4427 313.214 39.208C313.619 38.9733 313.944 38.632 314.19 38.184C314.446 37.7253 314.574 37.192 314.574 36.584ZM326.793 32.184V41H324.969V39.96C324.681 40.3227 324.303 40.6107 323.833 40.824C323.375 41.0267 322.884 41.128 322.361 41.128C321.668 41.128 321.044 40.984 320.489 40.696C319.945 40.408 319.513 39.9813 319.193 39.416C318.884 38.8507 318.729 38.168 318.729 37.368V32.184H320.537V37.096C320.537 37.8853 320.735 38.4933 321.129 38.92C321.524 39.336 322.063 39.544 322.745 39.544C323.428 39.544 323.967 39.336 324.361 38.92C324.767 38.4933 324.969 37.8853 324.969 37.096V32.184H326.793ZM332.4 41.144C331.707 41.144 331.083 41.0213 330.528 40.776C329.984 40.52 329.552 40.1787 329.232 39.752C328.912 39.3147 328.741 38.8293 328.72 38.296H330.608C330.64 38.6693 330.816 38.984 331.136 39.24C331.467 39.4853 331.877 39.608 332.368 39.608C332.88 39.608 333.275 39.512 333.552 39.32C333.84 39.1173 333.984 38.8613 333.984 38.552C333.984 38.2213 333.824 37.976 333.504 37.816C333.195 37.656 332.699 37.48 332.016 37.288C331.355 37.1067 330.816 36.9307 330.4 36.76C329.984 36.5893 329.621 36.328 329.312 35.976C329.013 35.624 328.864 35.16 328.864 34.584C328.864 34.1147 329.003 33.688 329.28 33.304C329.557 32.9093 329.952 32.6 330.464 32.376C330.987 32.152 331.584 32.04 332.256 32.04C333.259 32.04 334.064 32.296 334.672 32.808C335.291 33.3093 335.621 33.9973 335.664 34.872H333.84C333.808 34.4773 333.648 34.1627 333.36 33.928C333.072 33.6933 332.683 33.576 332.192 33.576C331.712 33.576 331.344 33.6667 331.088 33.848C330.832 34.0293 330.704 34.2693 330.704 34.568C330.704 34.8027 330.789 35 330.96 35.16C331.131 35.32 331.339 35.448 331.584 35.544C331.829 35.6293 332.192 35.7413 332.672 35.88C333.312 36.0507 333.835 36.2267 334.24 36.408C334.656 36.5787 335.013 36.8347 335.312 37.176C335.611 37.5173 335.765 37.9707 335.776 38.536C335.776 39.0373 335.637 39.4853 335.36 39.88C335.083 40.2747 334.688 40.584 334.176 40.808C333.675 41.032 333.083 41.144 332.4 41.144ZM339.875 33.672V38.552C339.875 38.8827 339.95 39.1227 340.099 39.272C340.259 39.4107 340.526 39.48 340.899 39.48H342.019V41H340.579C339.758 41 339.128 40.808 338.691 40.424C338.254 40.04 338.035 39.416 338.035 38.552V33.672H336.995V32.184H338.035V29.992H339.875V32.184H342.019V33.672H339.875ZM345.524 33.464C345.791 33.016 346.143 32.6693 346.58 32.424C347.028 32.168 347.556 32.04 348.164 32.04V33.928H347.7C346.985 33.928 346.441 34.1093 346.068 34.472C345.705 34.8347 345.524 35.464 345.524 36.36V41H343.7V32.184H345.524V33.464ZM357.777 32.184L352.369 45.144H350.481L352.273 40.856L348.801 32.184H350.833L353.313 38.904L355.889 32.184H357.777ZM360.145 28.248L359.953 31.528H358.705L358.497 28.248H360.145ZM365.103 41.144C364.41 41.144 363.786 41.0213 363.231 40.776C362.687 40.52 362.255 40.1787 361.935 39.752C361.615 39.3147 361.444 38.8293 361.423 38.296H363.311C363.343 38.6693 363.519 38.984 363.839 39.24C364.17 39.4853 364.58 39.608 365.071 39.608C365.583 39.608 365.978 39.512 366.255 39.32C366.543 39.1173 366.687 38.8613 366.687 38.552C366.687 38.2213 366.527 37.976 366.207 37.816C365.898 37.656 365.402 37.48 364.719 37.288C364.058 37.1067 363.519 36.9307 363.103 36.76C362.687 36.5893 362.324 36.328 362.015 35.976C361.716 35.624 361.567 35.16 361.567 34.584C361.567 34.1147 361.706 33.688 361.983 33.304C362.26 32.9093 362.655 32.6 363.167 32.376C363.69 32.152 364.287 32.04 364.959 32.04C365.962 32.04 366.767 32.296 367.375 32.808C367.994 33.3093 368.324 33.9973 368.367 34.872H366.543C366.511 34.4773 366.351 34.1627 366.063 33.928C365.775 33.6933 365.386 33.576 364.895 33.576C364.415 33.576 364.047 33.6667 363.791 33.848C363.535 34.0293 363.407 34.2693 363.407 34.568C363.407 34.8027 363.492 35 363.663 35.16C363.834 35.32 364.042 35.448 364.287 35.544C364.532 35.6293 364.895 35.7413 365.375 35.88C366.015 36.0507 366.538 36.2267 366.943 36.408C367.359 36.5787 367.716 36.8347 368.015 37.176C368.314 37.5173 368.468 37.9707 368.479 38.536C368.479 39.0373 368.34 39.4853 368.063 39.88C367.786 40.2747 367.391 40.584 366.879 40.808C366.378 41.032 365.786 41.144 365.103 41.144ZM377.806 41.144C377.113 41.144 376.489 41.0213 375.934 40.776C375.39 40.52 374.958 40.1787 374.638 39.752C374.318 39.3147 374.148 38.8293 374.126 38.296H376.014C376.046 38.6693 376.222 38.984 376.542 39.24C376.873 39.4853 377.284 39.608 377.774 39.608C378.286 39.608 378.681 39.512 378.958 39.32C379.246 39.1173 379.39 38.8613 379.39 38.552C379.39 38.2213 379.23 37.976 378.91 37.816C378.601 37.656 378.105 37.48 377.422 37.288C376.761 37.1067 376.222 36.9307 375.806 36.76C375.39 36.5893 375.028 36.328 374.718 35.976C374.42 35.624 374.27 35.16 374.27 34.584C374.27 34.1147 374.409 33.688 374.686 33.304C374.964 32.9093 375.358 32.6 375.87 32.376C376.393 32.152 376.99 32.04 377.662 32.04C378.665 32.04 379.47 32.296 380.078 32.808C380.697 33.3093 381.028 33.9973 381.07 34.872H379.246C379.214 34.4773 379.054 34.1627 378.766 33.928C378.478 33.6933 378.089 33.576 377.598 33.576C377.118 33.576 376.75 33.6667 376.494 33.848C376.238 34.0293 376.11 34.2693 376.11 34.568C376.11 34.8027 376.196 35 376.366 35.16C376.537 35.32 376.745 35.448 376.99 35.544C377.236 35.6293 377.598 35.7413 378.078 35.88C378.718 36.0507 379.241 36.2267 379.646 36.408C380.062 36.5787 380.42 36.8347 380.718 37.176C381.017 37.5173 381.172 37.9707 381.182 38.536C381.182 39.0373 381.044 39.4853 380.766 39.88C380.489 40.2747 380.094 40.584 379.582 40.808C379.081 41.032 378.489 41.144 377.806 41.144ZM385.281 33.672V38.552C385.281 38.8827 385.356 39.1227 385.505 39.272C385.665 39.4107 385.932 39.48 386.305 39.48H387.425V41H385.985C385.164 41 384.534 40.808 384.097 40.424C383.66 40.04 383.441 39.416 383.441 38.552V33.672H382.401V32.184H383.441V29.992H385.281V32.184H387.425V33.672H385.281ZM388.498 36.552C388.498 35.6667 388.68 34.8827 389.042 34.2C389.416 33.5173 389.917 32.9893 390.546 32.616C391.186 32.232 391.89 32.04 392.658 32.04C393.352 32.04 393.954 32.1787 394.466 32.456C394.989 32.7227 395.405 33.0587 395.714 33.464V32.184H397.554V41H395.714V39.688C395.405 40.104 394.984 40.4507 394.45 40.728C393.917 41.0053 393.309 41.144 392.626 41.144C391.869 41.144 391.176 40.952 390.546 40.568C389.917 40.1733 389.416 39.6293 389.042 38.936C388.68 38.232 388.498 37.4373 388.498 36.552ZM395.714 36.584C395.714 35.976 395.586 35.448 395.33 35C395.085 34.552 394.76 34.2107 394.354 33.976C393.949 33.7413 393.512 33.624 393.042 33.624C392.573 33.624 392.136 33.7413 391.73 33.976C391.325 34.2 390.994 34.536 390.738 34.984C390.493 35.4213 390.37 35.944 390.37 36.552C390.37 37.16 390.493 37.6933 390.738 38.152C390.994 38.6107 391.325 38.9627 391.73 39.208C392.146 39.4427 392.584 39.56 393.042 39.56C393.512 39.56 393.949 39.4427 394.354 39.208C394.76 38.9733 395.085 38.632 395.33 38.184C395.586 37.7253 395.714 37.192 395.714 36.584ZM404.398 32.04C405.091 32.04 405.71 32.184 406.254 32.472C406.809 32.76 407.241 33.1867 407.55 33.752C407.859 34.3173 408.014 35 408.014 35.8V41H406.206V36.072C406.206 35.2827 406.009 34.68 405.614 34.264C405.219 33.8373 404.681 33.624 403.998 33.624C403.315 33.624 402.771 33.8373 402.366 34.264C401.971 34.68 401.774 35.2827 401.774 36.072V41H399.95V32.184H401.774V33.192C402.073 32.8293 402.451 32.5467 402.91 32.344C403.379 32.1413 403.875 32.04 404.398 32.04ZM409.733 36.552C409.733 35.6667 409.914 34.8827 410.277 34.2C410.65 33.5173 411.151 32.9893 411.781 32.616C412.421 32.232 413.13 32.04 413.909 32.04C414.485 32.04 415.05 32.168 415.605 32.424C416.17 32.6693 416.618 33 416.949 33.416V29.16H418.789V41H416.949V39.672C416.65 40.0987 416.234 40.4507 415.701 40.728C415.178 41.0053 414.575 41.144 413.893 41.144C413.125 41.144 412.421 40.952 411.781 40.568C411.151 40.1733 410.65 39.6293 410.277 38.936C409.914 38.232 409.733 37.4373 409.733 36.552ZM416.949 36.584C416.949 35.976 416.821 35.448 416.565 35C416.319 34.552 415.994 34.2107 415.589 33.976C415.183 33.7413 414.746 33.624 414.277 33.624C413.807 33.624 413.37 33.7413 412.965 33.976C412.559 34.2 412.229 34.536 411.973 34.984C411.727 35.4213 411.605 35.944 411.605 36.552C411.605 37.16 411.727 37.6933 411.973 38.152C412.229 38.6107 412.559 38.9627 412.965 39.208C413.381 39.4427 413.818 39.56 414.277 39.56C414.746 39.56 415.183 39.4427 415.589 39.208C415.994 38.9733 416.319 38.632 416.565 38.184C416.821 37.7253 416.949 37.192 416.949 36.584ZM420.576 36.552C420.576 35.6667 420.758 34.8827 421.12 34.2C421.494 33.5173 421.995 32.9893 422.624 32.616C423.264 32.232 423.968 32.04 424.736 32.04C425.43 32.04 426.032 32.1787 426.544 32.456C427.067 32.7227 427.483 33.0587 427.792 33.464V32.184H429.632V41H427.792V39.688C427.483 40.104 427.062 40.4507 426.528 40.728C425.995 41.0053 425.387 41.144 424.704 41.144C423.947 41.144 423.254 40.952 422.624 40.568C421.995 40.1733 421.494 39.6293 421.12 38.936C420.758 38.232 420.576 37.4373 420.576 36.552ZM427.792 36.584C427.792 35.976 427.664 35.448 427.408 35C427.163 34.552 426.838 34.2107 426.432 33.976C426.027 33.7413 425.59 33.624 425.12 33.624C424.651 33.624 424.214 33.7413 423.808 33.976C423.403 34.2 423.072 34.536 422.816 34.984C422.571 35.4213 422.448 35.944 422.448 36.552C422.448 37.16 422.571 37.6933 422.816 38.152C423.072 38.6107 423.403 38.9627 423.808 39.208C424.224 39.4427 424.662 39.56 425.12 39.56C425.59 39.56 426.027 39.4427 426.432 39.208C426.838 38.9733 427.163 38.632 427.408 38.184C427.664 37.7253 427.792 37.192 427.792 36.584ZM433.852 33.464C434.119 33.016 434.471 32.6693 434.908 32.424C435.356 32.168 435.884 32.04 436.492 32.04V33.928H436.028C435.313 33.928 434.769 34.1093 434.396 34.472C434.033 34.8347 433.852 35.464 433.852 36.36V41H432.028V32.184H433.852V33.464ZM437.561 36.552C437.561 35.6667 437.742 34.8827 438.105 34.2C438.478 33.5173 438.979 32.9893 439.609 32.616C440.249 32.232 440.958 32.04 441.737 32.04C442.313 32.04 442.878 32.168 443.433 32.424C443.998 32.6693 444.446 33 444.777 33.416V29.16H446.617V41H444.777V39.672C444.478 40.0987 444.062 40.4507 443.529 40.728C443.006 41.0053 442.403 41.144 441.721 41.144C440.953 41.144 440.249 40.952 439.609 40.568C438.979 40.1733 438.478 39.6293 438.105 38.936C437.742 38.232 437.561 37.4373 437.561 36.552ZM444.777 36.584C444.777 35.976 444.649 35.448 444.393 35C444.147 34.552 443.822 34.2107 443.417 33.976C443.011 33.7413 442.574 33.624 442.105 33.624C441.635 33.624 441.198 33.7413 440.793 33.976C440.387 34.2 440.057 34.536 439.801 34.984C439.555 35.4213 439.433 35.944 439.433 36.552C439.433 37.16 439.555 37.6933 439.801 38.152C440.057 38.6107 440.387 38.9627 440.793 39.208C441.209 39.4427 441.646 39.56 442.105 39.56C442.574 39.56 443.011 39.4427 443.417 39.208C443.822 38.9733 444.147 38.632 444.393 38.184C444.649 37.7253 444.777 37.192 444.777 36.584ZM452.561 36.552C452.561 35.6667 452.742 34.8827 453.105 34.2C453.478 33.5173 453.979 32.9893 454.609 32.616C455.249 32.232 455.958 32.04 456.737 32.04C457.313 32.04 457.878 32.168 458.433 32.424C458.998 32.6693 459.446 33 459.777 33.416V29.16H461.617V41H459.777V39.672C459.478 40.0987 459.062 40.4507 458.529 40.728C458.006 41.0053 457.403 41.144 456.721 41.144C455.953 41.144 455.249 40.952 454.609 40.568C453.979 40.1733 453.478 39.6293 453.105 38.936C452.742 38.232 452.561 37.4373 452.561 36.552ZM459.777 36.584C459.777 35.976 459.649 35.448 459.393 35C459.147 34.552 458.822 34.2107 458.417 33.976C458.011 33.7413 457.574 33.624 457.105 33.624C456.635 33.624 456.198 33.7413 455.793 33.976C455.387 34.2 455.057 34.536 454.801 34.984C454.555 35.4213 454.433 35.944 454.433 36.552C454.433 37.16 454.555 37.6933 454.801 38.152C455.057 38.6107 455.387 38.9627 455.793 39.208C456.209 39.4427 456.646 39.56 457.105 39.56C457.574 39.56 458.011 39.4427 458.417 39.208C458.822 38.9733 459.147 38.632 459.393 38.184C459.649 37.7253 459.777 37.192 459.777 36.584ZM471.997 32.184V41H470.173V39.96C469.885 40.3227 469.506 40.6107 469.037 40.824C468.578 41.0267 468.087 41.128 467.565 41.128C466.871 41.128 466.247 40.984 465.693 40.696C465.149 40.408 464.717 39.9813 464.397 39.416C464.087 38.8507 463.933 38.168 463.933 37.368V32.184H465.741V37.096C465.741 37.8853 465.938 38.4933 466.333 38.92C466.727 39.336 467.266 39.544 467.949 39.544C468.631 39.544 469.17 39.336 469.565 38.92C469.97 38.4933 470.173 37.8853 470.173 37.096V32.184H471.997ZM485.075 32.04C485.768 32.04 486.387 32.184 486.931 32.472C487.486 32.76 487.918 33.1867 488.227 33.752C488.547 34.3173 488.707 35 488.707 35.8V41H486.899V36.072C486.899 35.2827 486.702 34.68 486.307 34.264C485.912 33.8373 485.374 33.624 484.691 33.624C484.008 33.624 483.464 33.8373 483.059 34.264C482.664 34.68 482.467 35.2827 482.467 36.072V41H480.659V36.072C480.659 35.2827 480.462 34.68 480.067 34.264C479.672 33.8373 479.134 33.624 478.451 33.624C477.768 33.624 477.224 33.8373 476.819 34.264C476.424 34.68 476.227 35.2827 476.227 36.072V41H474.403V32.184H476.227V33.192C476.526 32.8293 476.904 32.5467 477.363 32.344C477.822 32.1413 478.312 32.04 478.835 32.04C479.539 32.04 480.168 32.1893 480.723 32.488C481.278 32.7867 481.704 33.2187 482.003 33.784C482.27 33.2507 482.686 32.8293 483.251 32.52C483.816 32.2 484.424 32.04 485.075 32.04ZM501.7 32.04C502.393 32.04 503.012 32.184 503.556 32.472C504.111 32.76 504.543 33.1867 504.852 33.752C505.172 34.3173 505.332 35 505.332 35.8V41H503.524V36.072C503.524 35.2827 503.327 34.68 502.932 34.264C502.537 33.8373 501.999 33.624 501.316 33.624C500.633 33.624 500.089 33.8373 499.684 34.264C499.289 34.68 499.092 35.2827 499.092 36.072V41H497.284V36.072C497.284 35.2827 497.087 34.68 496.692 34.264C496.297 33.8373 495.759 33.624 495.076 33.624C494.393 33.624 493.849 33.8373 493.444 34.264C493.049 34.68 492.852 35.2827 492.852 36.072V41H491.028V32.184H492.852V33.192C493.151 32.8293 493.529 32.5467 493.988 32.344C494.447 32.1413 494.937 32.04 495.46 32.04C496.164 32.04 496.793 32.1893 497.348 32.488C497.903 32.7867 498.329 33.2187 498.628 33.784C498.895 33.2507 499.311 32.8293 499.876 32.52C500.441 32.2 501.049 32.04 501.7 32.04ZM515.589 32.184L510.181 45.144H508.293L510.085 40.856L506.613 32.184H508.645L511.125 38.904L513.701 32.184H515.589ZM523.25 33.672V38.552C523.25 38.8827 523.325 39.1227 523.474 39.272C523.634 39.4107 523.901 39.48 524.274 39.48H525.394V41H523.954C523.133 41 522.503 40.808 522.066 40.424C521.629 40.04 521.41 39.416 521.41 38.552V33.672H520.37V32.184H521.41V29.992H523.25V32.184H525.394V33.672H523.25ZM535.155 36.376C535.155 36.7067 535.134 37.0053 535.091 37.272H528.355C528.408 37.976 528.67 38.5413 529.139 38.968C529.608 39.3947 530.184 39.608 530.867 39.608C531.848 39.608 532.542 39.1973 532.947 38.376H534.915C534.648 39.1867 534.163 39.8533 533.459 40.376C532.766 40.888 531.902 41.144 530.867 41.144C530.024 41.144 529.267 40.9573 528.595 40.584C527.934 40.2 527.411 39.6667 527.027 38.984C526.654 38.2907 526.467 37.4907 526.467 36.584C526.467 35.6773 526.648 34.8827 527.011 34.2C527.384 33.5067 527.902 32.9733 528.563 32.6C529.235 32.2267 530.003 32.04 530.867 32.04C531.699 32.04 532.44 32.2213 533.091 32.584C533.742 32.9467 534.248 33.4587 534.611 34.12C534.974 34.7707 535.155 35.5227 535.155 36.376ZM533.251 35.8C533.24 35.128 533 34.5893 532.531 34.184C532.062 33.7787 531.48 33.576 530.787 33.576C530.158 33.576 529.619 33.7787 529.171 34.184C528.723 34.5787 528.456 35.1173 528.371 35.8H533.251ZM540.726 36.536L543.574 41H541.51L539.606 38.008L537.814 41H535.91L538.758 36.664L535.91 32.184H537.974L539.878 35.176L541.67 32.184H543.574L540.726 36.536ZM547.062 33.672V38.552C547.062 38.8827 547.137 39.1227 547.286 39.272C547.446 39.4107 547.713 39.48 548.086 39.48H549.206V41H547.766C546.945 41 546.316 40.808 545.878 40.424C545.441 40.04 545.222 39.416 545.222 38.552V33.672H544.182V32.184H545.222V29.992H547.062V32.184H549.206V33.672H547.062ZM9.28 64.376C9.28 64.7067 9.25867 65.0053 9.216 65.272H2.48C2.53333 65.976 2.79467 66.5413 3.264 66.968C3.73333 67.3947 4.30933 67.608 4.992 67.608C5.97333 67.608 6.66667 67.1973 7.072 66.376H9.04C8.77333 67.1867 8.288 67.8533 7.584 68.376C6.89067 68.888 6.02667 69.144 4.992 69.144C4.14933 69.144 3.392 68.9573 2.72 68.584C2.05867 68.2 1.536 67.6667 1.152 66.984C0.778667 66.2907 0.592 65.4907 0.592 64.584C0.592 63.6773 0.773333 62.8827 1.136 62.2C1.50933 61.5067 2.02667 60.9733 2.688 60.6C3.36 60.2267 4.128 60.04 4.992 60.04C5.824 60.04 6.56533 60.2213 7.216 60.584C7.86667 60.9467 8.37333 61.4587 8.736 62.12C9.09867 62.7707 9.28 63.5227 9.28 64.376ZM7.376 63.8C7.36533 63.128 7.12533 62.5893 6.656 62.184C6.18667 61.7787 5.60533 61.576 4.912 61.576C4.28267 61.576 3.744 61.7787 3.296 62.184C2.848 62.5787 2.58133 63.1173 2.496 63.8H7.376ZM14.483 67.368L16.979 60.184H18.915L15.555 69H13.379L10.035 60.184H11.987L14.483 67.368ZM28.3738 64.376C28.3738 64.7067 28.3524 65.0053 28.3098 65.272H21.5738C21.6271 65.976 21.8884 66.5413 22.3578 66.968C22.8271 67.3947 23.4031 67.608 24.0858 67.608C25.0671 67.608 25.7604 67.1973 26.1658 66.376H28.1337C27.8671 67.1867 27.3818 67.8533 26.6778 68.376C25.9844 68.888 25.1204 69.144 24.0858 69.144C23.2431 69.144 22.4858 68.9573 21.8138 68.584C21.1524 68.2 20.6298 67.6667 20.2458 66.984C19.8724 66.2907 19.6858 65.4907 19.6858 64.584C19.6858 63.6773 19.8671 62.8827 20.2298 62.2C20.6031 61.5067 21.1204 60.9733 21.7818 60.6C22.4538 60.2267 23.2218 60.04 24.0858 60.04C24.9178 60.04 25.6591 60.2213 26.3098 60.584C26.9604 60.9467 27.4671 61.4587 27.8298 62.12C28.1924 62.7707 28.3738 63.5227 28.3738 64.376ZM26.4698 63.8C26.4591 63.128 26.2191 62.5893 25.7498 62.184C25.2804 61.7787 24.6991 61.576 24.0058 61.576C23.3764 61.576 22.8378 61.7787 22.3898 62.184C21.9418 62.5787 21.6751 63.1173 21.5898 63.8H26.4698ZM31.9928 61.464C32.2594 61.016 32.6114 60.6693 33.0488 60.424C33.4968 60.168 34.0248 60.04 34.6328 60.04V61.928H34.1688C33.4541 61.928 32.9101 62.1093 32.5368 62.472C32.1741 62.8347 31.9928 63.464 31.9928 64.36V69H30.1688V60.184H31.9928V61.464ZM43.6656 69.144C42.9723 69.144 42.3483 69.0213 41.7936 68.776C41.2496 68.52 40.8176 68.1787 40.4976 67.752C40.1776 67.3147 40.007 66.8293 39.9856 66.296H41.8736C41.9056 66.6693 42.0816 66.984 42.4016 67.24C42.7323 67.4853 43.143 67.608 43.6336 67.608C44.1456 67.608 44.5403 67.512 44.8176 67.32C45.1056 67.1173 45.2496 66.8613 45.2496 66.552C45.2496 66.2213 45.0896 65.976 44.7696 65.816C44.4603 65.656 43.9643 65.48 43.2816 65.288C42.6203 65.1067 42.0816 64.9307 41.6656 64.76C41.2496 64.5893 40.887 64.328 40.5776 63.976C40.279 63.624 40.1296 63.16 40.1296 62.584C40.1296 62.1147 40.2683 61.688 40.5456 61.304C40.823 60.9093 41.2176 60.6 41.7296 60.376C42.2523 60.152 42.8496 60.04 43.5216 60.04C44.5243 60.04 45.3296 60.296 45.9376 60.808C46.5563 61.3093 46.887 61.9973 46.9296 62.872H45.1056C45.0736 62.4773 44.9136 62.1627 44.6256 61.928C44.3376 61.6933 43.9483 61.576 43.4576 61.576C42.9776 61.576 42.6096 61.6667 42.3536 61.848C42.0976 62.0293 41.9696 62.2693 41.9696 62.568C41.9696 62.8027 42.055 63 42.2256 63.16C42.3963 63.32 42.6043 63.448 42.8496 63.544C43.095 63.6293 43.4576 63.7413 43.9376 63.88C44.5776 64.0507 45.1003 64.2267 45.5056 64.408C45.9216 64.5787 46.279 64.8347 46.5776 65.176C46.8763 65.5173 47.031 65.9707 47.0416 66.536C47.0416 67.0373 46.903 67.4853 46.6256 67.88C46.3483 68.2747 45.9536 68.584 45.4416 68.808C44.9403 69.032 44.3483 69.144 43.6656 69.144ZM49.9405 59.016C49.6098 59.016 49.3325 58.904 49.1085 58.68C48.8845 58.456 48.7725 58.1787 48.7725 57.848C48.7725 57.5173 48.8845 57.24 49.1085 57.016C49.3325 56.792 49.6098 56.68 49.9405 56.68C50.2605 56.68 50.5325 56.792 50.7565 57.016C50.9805 57.24 51.0925 57.5173 51.0925 57.848C51.0925 58.1787 50.9805 58.456 50.7565 58.68C50.5325 58.904 50.2605 59.016 49.9405 59.016ZM50.8365 60.184V69H49.0125V60.184H50.8365ZM57.6793 60.04C58.3726 60.04 58.9913 60.184 59.5353 60.472C60.0899 60.76 60.5219 61.1867 60.8313 61.752C61.1406 62.3173 61.2953 63 61.2953 63.8V69H59.4873V64.072C59.4873 63.2827 59.2899 62.68 58.8953 62.264C58.5006 61.8373 57.9619 61.624 57.2793 61.624C56.5966 61.624 56.0526 61.8373 55.6473 62.264C55.2526 62.68 55.0553 63.2827 55.0553 64.072V69H53.2313V60.184H55.0553V61.192C55.3539 60.8293 55.7326 60.5467 56.1913 60.344C56.6606 60.1413 57.1566 60.04 57.6793 60.04ZM63.0139 64.584C63.0139 63.6773 63.1952 62.8827 63.5579 62.2C63.9312 61.5067 64.4432 60.9733 65.0939 60.6C65.7445 60.2267 66.4912 60.04 67.3339 60.04C68.4005 60.04 69.2805 60.296 69.9739 60.808C70.6779 61.3093 71.1525 62.0293 71.3979 62.968H69.4299C69.2699 62.5307 69.0139 62.1893 68.6619 61.944C68.3099 61.6987 67.8672 61.576 67.3339 61.576C66.5872 61.576 65.9899 61.8427 65.5419 62.376C65.1045 62.8987 64.8859 63.6347 64.8859 64.584C64.8859 65.5333 65.1045 66.2747 65.5419 66.808C65.9899 67.3413 66.5872 67.608 67.3339 67.608C68.3899 67.608 69.0885 67.144 69.4299 66.216H71.3979C71.1419 67.112 70.6619 67.8267 69.9579 68.36C69.2539 68.8827 68.3792 69.144 67.3339 69.144C66.4912 69.144 65.7445 68.9573 65.0939 68.584C64.4432 68.2 63.9312 67.6667 63.5579 66.984C63.1952 66.2907 63.0139 65.4907 63.0139 64.584ZM81.2956 64.376C81.2956 64.7067 81.2743 65.0053 81.2316 65.272H74.4956C74.549 65.976 74.8103 66.5413 75.2796 66.968C75.749 67.3947 76.325 67.608 77.0076 67.608C77.989 67.608 78.6823 67.1973 79.0876 66.376H81.0556C80.789 67.1867 80.3036 67.8533 79.5996 68.376C78.9063 68.888 78.0423 69.144 77.0076 69.144C76.165 69.144 75.4076 68.9573 74.7356 68.584C74.0743 68.2 73.5516 67.6667 73.1676 66.984C72.7943 66.2907 72.6076 65.4907 72.6076 64.584C72.6076 63.6773 72.789 62.8827 73.1516 62.2C73.525 61.5067 74.0423 60.9733 74.7036 60.6C75.3756 60.2267 76.1436 60.04 77.0076 60.04C77.8396 60.04 78.581 60.2213 79.2316 60.584C79.8823 60.9467 80.389 61.4587 80.7516 62.12C81.1143 62.7707 81.2956 63.5227 81.2956 64.376ZM79.3916 63.8C79.381 63.128 79.141 62.5893 78.6716 62.184C78.2023 61.7787 77.621 61.576 76.9276 61.576C76.2983 61.576 75.7596 61.7787 75.3116 62.184C74.8636 62.5787 74.597 63.1173 74.5116 63.8H79.3916ZM89.3749 61.672V66.552C89.3749 66.8827 89.4495 67.1227 89.5989 67.272C89.7589 67.4107 90.0255 67.48 90.3989 67.48H91.5189V69H90.0789C89.2575 69 88.6282 68.808 88.1909 68.424C87.7535 68.04 87.5349 67.416 87.5349 66.552V61.672H86.4949V60.184H87.5349V57.992H89.3749V60.184H91.5189V61.672H89.3749ZM97.76 60.04C98.432 60.04 99.0293 60.184 99.552 60.472C100.085 60.76 100.501 61.1867 100.8 61.752C101.109 62.3173 101.264 63 101.264 63.8V69H99.456V64.072C99.456 63.2827 99.2587 62.68 98.864 62.264C98.4693 61.8373 97.9307 61.624 97.248 61.624C96.5653 61.624 96.0213 61.8373 95.616 62.264C95.2213 62.68 95.024 63.2827 95.024 64.072V69H93.2V57.16H95.024V61.208C95.3333 60.8347 95.7227 60.5467 96.192 60.344C96.672 60.1413 97.1947 60.04 97.76 60.04ZM111.671 64.376C111.671 64.7067 111.649 65.0053 111.607 65.272H104.871C104.924 65.976 105.185 66.5413 105.655 66.968C106.124 67.3947 106.7 67.608 107.383 67.608C108.364 67.608 109.057 67.1973 109.463 66.376H111.431C111.164 67.1867 110.679 67.8533 109.975 68.376C109.281 68.888 108.417 69.144 107.383 69.144C106.54 69.144 105.783 68.9573 105.111 68.584C104.449 68.2 103.927 67.6667 103.543 66.984C103.169 66.2907 102.983 65.4907 102.983 64.584C102.983 63.6773 103.164 62.8827 103.527 62.2C103.9 61.5067 104.417 60.9733 105.079 60.6C105.751 60.2267 106.519 60.04 107.383 60.04C108.215 60.04 108.956 60.2213 109.607 60.584C110.257 60.9467 110.764 61.4587 111.127 62.12C111.489 62.7707 111.671 63.5227 111.671 64.376ZM109.767 63.8C109.756 63.128 109.516 62.5893 109.047 62.184C108.577 61.7787 107.996 61.576 107.303 61.576C106.673 61.576 106.135 61.7787 105.687 62.184C105.239 62.5787 104.972 63.1173 104.887 63.8H109.767ZM117.142 59V57.336H120.47V69H118.63V59H117.142ZM130.496 58.904H125.136V62.088C125.36 61.7893 125.69 61.5387 126.128 61.336C126.576 61.1333 127.05 61.032 127.552 61.032C128.448 61.032 129.173 61.224 129.728 61.608C130.293 61.992 130.693 62.4773 130.928 63.064C131.173 63.6507 131.296 64.2693 131.296 64.92C131.296 65.7093 131.141 66.4133 130.832 67.032C130.533 67.64 130.08 68.12 129.472 68.472C128.874 68.824 128.138 69 127.264 69C126.101 69 125.168 68.712 124.464 68.136C123.76 67.56 123.338 66.7973 123.2 65.848H124.976C125.093 66.3493 125.354 66.7493 125.76 67.048C126.165 67.336 126.672 67.48 127.28 67.48C128.037 67.48 128.602 67.2507 128.976 66.792C129.36 66.3333 129.552 65.7253 129.552 64.968C129.552 64.2 129.36 63.6133 128.976 63.208C128.592 62.792 128.026 62.584 127.28 62.584C126.757 62.584 126.314 62.7173 125.952 62.984C125.6 63.24 125.344 63.592 125.184 64.04H123.456V57.304H130.496V58.904ZM133.194 63.016C133.194 61.1707 133.504 59.7307 134.122 58.696C134.752 57.6507 135.829 57.128 137.354 57.128C138.88 57.128 139.952 57.6507 140.57 58.696C141.2 59.7307 141.514 61.1707 141.514 63.016C141.514 64.8827 141.2 66.344 140.57 67.4C139.952 68.4453 138.88 68.968 137.354 68.968C135.829 68.968 134.752 68.4453 134.122 67.4C133.504 66.344 133.194 64.8827 133.194 63.016ZM139.722 63.016C139.722 62.152 139.664 61.4213 139.546 60.824C139.44 60.2267 139.216 59.7413 138.874 59.368C138.533 58.984 138.026 58.792 137.354 58.792C136.682 58.792 136.176 58.984 135.834 59.368C135.493 59.7413 135.264 60.2267 135.146 60.824C135.04 61.4213 134.986 62.152 134.986 63.016C134.986 63.912 135.04 64.664 135.146 65.272C135.253 65.88 135.477 66.3707 135.818 66.744C136.17 67.1173 136.682 67.304 137.354 67.304C138.026 67.304 138.533 67.1173 138.874 66.744C139.226 66.3707 139.456 65.88 139.562 65.272C139.669 64.664 139.722 63.912 139.722 63.016ZM143.444 63.016C143.444 61.1707 143.754 59.7307 144.372 58.696C145.002 57.6507 146.079 57.128 147.604 57.128C149.13 57.128 150.202 57.6507 150.82 58.696C151.45 59.7307 151.764 61.1707 151.764 63.016C151.764 64.8827 151.45 66.344 150.82 67.4C150.202 68.4453 149.13 68.968 147.604 68.968C146.079 68.968 145.002 68.4453 144.372 67.4C143.754 66.344 143.444 64.8827 143.444 63.016ZM149.972 63.016C149.972 62.152 149.914 61.4213 149.796 60.824C149.69 60.2267 149.466 59.7413 149.124 59.368C148.783 58.984 148.276 58.792 147.604 58.792C146.932 58.792 146.426 58.984 146.084 59.368C145.743 59.7413 145.514 60.2267 145.396 60.824C145.29 61.4213 145.236 62.152 145.236 63.016C145.236 63.912 145.29 64.664 145.396 65.272C145.503 65.88 145.727 66.3707 146.068 66.744C146.42 67.1173 146.932 67.304 147.604 67.304C148.276 67.304 148.783 67.1173 149.124 66.744C149.476 66.3707 149.706 65.88 149.812 65.272C149.919 64.664 149.972 63.912 149.972 63.016ZM157.134 69.144C156.441 69.144 155.817 69.0213 155.262 68.776C154.718 68.52 154.286 68.1787 153.966 67.752C153.646 67.3147 153.476 66.8293 153.454 66.296H155.342C155.374 66.6693 155.55 66.984 155.87 67.24C156.201 67.4853 156.612 67.608 157.102 67.608C157.614 67.608 158.009 67.512 158.286 67.32C158.574 67.1173 158.718 66.8613 158.718 66.552C158.718 66.2213 158.558 65.976 158.238 65.816C157.929 65.656 157.433 65.48 156.75 65.288C156.089 65.1067 155.55 64.9307 155.134 64.76C154.718 64.5893 154.356 64.328 154.046 63.976C153.748 63.624 153.598 63.16 153.598 62.584C153.598 62.1147 153.737 61.688 154.014 61.304C154.292 60.9093 154.686 60.6 155.198 60.376C155.721 60.152 156.318 60.04 156.99 60.04C157.993 60.04 158.798 60.296 159.406 60.808C160.025 61.3093 160.356 61.9973 160.398 62.872H158.574C158.542 62.4773 158.382 62.1627 158.094 61.928C157.806 61.6933 157.417 61.576 156.926 61.576C156.446 61.576 156.078 61.6667 155.822 61.848C155.566 62.0293 155.438 62.2693 155.438 62.568C155.438 62.8027 155.524 63 155.694 63.16C155.865 63.32 156.073 63.448 156.318 63.544C156.564 63.6293 156.926 63.7413 157.406 63.88C158.046 64.0507 158.569 64.2267 158.974 64.408C159.39 64.5787 159.748 64.8347 160.046 65.176C160.345 65.5173 160.5 65.9707 160.51 66.536C160.51 67.0373 160.372 67.4853 160.094 67.88C159.817 68.2747 159.422 68.584 158.91 68.808C158.409 69.032 157.817 69.144 157.134 69.144ZM164.481 66.808L162.545 71.224H161.361L162.497 66.808H164.481ZM182.071 60.184L179.335 69H177.415L175.639 62.488L173.863 69H171.943L169.191 60.184H171.047L172.887 67.272L174.759 60.184H176.663L178.455 67.24L180.279 60.184H182.071ZM187.994 60.04C188.666 60.04 189.264 60.184 189.786 60.472C190.32 60.76 190.736 61.1867 191.034 61.752C191.344 62.3173 191.498 63 191.498 63.8V69H189.69V64.072C189.69 63.2827 189.493 62.68 189.098 62.264C188.704 61.8373 188.165 61.624 187.482 61.624C186.8 61.624 186.256 61.8373 185.85 62.264C185.456 62.68 185.258 63.2827 185.258 64.072V69H183.434V57.16H185.258V61.208C185.568 60.8347 185.957 60.5467 186.426 60.344C186.906 60.1413 187.429 60.04 187.994 60.04ZM201.905 64.376C201.905 64.7067 201.884 65.0053 201.841 65.272H195.105C195.158 65.976 195.42 66.5413 195.889 66.968C196.358 67.3947 196.934 67.608 197.617 67.608C198.598 67.608 199.292 67.1973 199.697 66.376H201.665C201.398 67.1867 200.913 67.8533 200.209 68.376C199.516 68.888 198.652 69.144 197.617 69.144C196.774 69.144 196.017 68.9573 195.345 68.584C194.684 68.2 194.161 67.6667 193.777 66.984C193.404 66.2907 193.217 65.4907 193.217 64.584C193.217 63.6773 193.398 62.8827 193.761 62.2C194.134 61.5067 194.652 60.9733 195.313 60.6C195.985 60.2267 196.753 60.04 197.617 60.04C198.449 60.04 199.19 60.2213 199.841 60.584C200.492 60.9467 200.998 61.4587 201.361 62.12C201.724 62.7707 201.905 63.5227 201.905 64.376ZM200.001 63.8C199.99 63.128 199.75 62.5893 199.281 62.184C198.812 61.7787 198.23 61.576 197.537 61.576C196.908 61.576 196.369 61.7787 195.921 62.184C195.473 62.5787 195.206 63.1173 195.121 63.8H200.001ZM208.148 60.04C208.841 60.04 209.46 60.184 210.004 60.472C210.559 60.76 210.991 61.1867 211.3 61.752C211.609 62.3173 211.764 63 211.764 63.8V69H209.956V64.072C209.956 63.2827 209.759 62.68 209.364 62.264C208.969 61.8373 208.431 61.624 207.748 61.624C207.065 61.624 206.521 61.8373 206.116 62.264C205.721 62.68 205.524 63.2827 205.524 64.072V69H203.7V60.184H205.524V61.192C205.823 60.8293 206.201 60.5467 206.66 60.344C207.129 60.1413 207.625 60.04 208.148 60.04ZM217.639 64.552C217.639 63.6667 217.82 62.8827 218.183 62.2C218.556 61.5173 219.058 60.9893 219.687 60.616C220.327 60.232 221.031 60.04 221.799 60.04C222.492 60.04 223.095 60.1787 223.607 60.456C224.13 60.7227 224.546 61.0587 224.855 61.464V60.184H226.695V69H224.855V67.688C224.546 68.104 224.124 68.4507 223.591 68.728C223.058 69.0053 222.45 69.144 221.767 69.144C221.01 69.144 220.316 68.952 219.687 68.568C219.058 68.1733 218.556 67.6293 218.183 66.936C217.82 66.232 217.639 65.4373 217.639 64.552ZM224.855 64.584C224.855 63.976 224.727 63.448 224.471 63C224.226 62.552 223.9 62.2107 223.495 61.976C223.09 61.7413 222.652 61.624 222.183 61.624C221.714 61.624 221.276 61.7413 220.871 61.976C220.466 62.2 220.135 62.536 219.879 62.984C219.634 63.4213 219.511 63.944 219.511 64.552C219.511 65.16 219.634 65.6933 219.879 66.152C220.135 66.6107 220.466 66.9627 220.871 67.208C221.287 67.4427 221.724 67.56 222.183 67.56C222.652 67.56 223.09 67.4427 223.495 67.208C223.9 66.9733 224.226 66.632 224.471 66.184C224.727 65.7253 224.855 65.192 224.855 64.584ZM233.539 60.04C234.232 60.04 234.851 60.184 235.395 60.472C235.949 60.76 236.381 61.1867 236.691 61.752C237 62.3173 237.155 63 237.155 63.8V69H235.347V64.072C235.347 63.2827 235.149 62.68 234.755 62.264C234.36 61.8373 233.821 61.624 233.139 61.624C232.456 61.624 231.912 61.8373 231.507 62.264C231.112 62.68 230.915 63.2827 230.915 64.072V69H229.091V60.184H230.915V61.192C231.213 60.8293 231.592 60.5467 232.051 60.344C232.52 60.1413 233.016 60.04 233.539 60.04ZM251.622 60.184V69H249.798V67.96C249.51 68.3227 249.131 68.6107 248.662 68.824C248.203 69.0267 247.712 69.128 247.19 69.128C246.496 69.128 245.872 68.984 245.318 68.696C244.774 68.408 244.342 67.9813 244.022 67.416C243.712 66.8507 243.558 66.168 243.558 65.368V60.184H245.366V65.096C245.366 65.8853 245.563 66.4933 245.958 66.92C246.352 67.336 246.891 67.544 247.574 67.544C248.256 67.544 248.795 67.336 249.19 66.92C249.595 66.4933 249.798 65.8853 249.798 65.096V60.184H251.622ZM258.476 60.04C259.169 60.04 259.788 60.184 260.332 60.472C260.887 60.76 261.319 61.1867 261.628 61.752C261.937 62.3173 262.092 63 262.092 63.8V69H260.284V64.072C260.284 63.2827 260.087 62.68 259.692 62.264C259.297 61.8373 258.759 61.624 258.076 61.624C257.393 61.624 256.849 61.8373 256.444 62.264C256.049 62.68 255.852 63.2827 255.852 64.072V69H254.028V60.184H255.852V61.192C256.151 60.8293 256.529 60.5467 256.988 60.344C257.457 60.1413 257.953 60.04 258.476 60.04ZM267.907 64.6L271.971 69H269.507L266.243 65.208V69H264.419V57.16H266.243V64.04L269.443 60.184H271.971L267.907 64.6ZM277.726 60.04C278.419 60.04 279.038 60.184 279.582 60.472C280.137 60.76 280.569 61.1867 280.878 61.752C281.187 62.3173 281.342 63 281.342 63.8V69H279.534V64.072C279.534 63.2827 279.337 62.68 278.942 62.264C278.547 61.8373 278.009 61.624 277.326 61.624C276.643 61.624 276.099 61.8373 275.694 62.264C275.299 62.68 275.102 63.2827 275.102 64.072V69H273.278V60.184H275.102V61.192C275.401 60.8293 275.779 60.5467 276.238 60.344C276.707 60.1413 277.203 60.04 277.726 60.04ZM287.493 69.144C286.661 69.144 285.909 68.9573 285.237 68.584C284.565 68.2 284.037 67.6667 283.653 66.984C283.269 66.2907 283.077 65.4907 283.077 64.584C283.077 63.688 283.274 62.8933 283.669 62.2C284.063 61.5067 284.602 60.9733 285.285 60.6C285.967 60.2267 286.73 60.04 287.573 60.04C288.415 60.04 289.178 60.2267 289.861 60.6C290.543 60.9733 291.082 61.5067 291.477 62.2C291.871 62.8933 292.069 63.688 292.069 64.584C292.069 65.48 291.866 66.2747 291.461 66.968C291.055 67.6613 290.501 68.2 289.797 68.584C289.103 68.9573 288.335 69.144 287.493 69.144ZM287.493 67.56C287.962 67.56 288.399 67.448 288.805 67.224C289.221 67 289.557 66.664 289.813 66.216C290.069 65.768 290.197 65.224 290.197 64.584C290.197 63.944 290.074 63.4053 289.829 62.968C289.583 62.52 289.258 62.184 288.853 61.96C288.447 61.736 288.01 61.624 287.541 61.624C287.071 61.624 286.634 61.736 286.229 61.96C285.834 62.184 285.519 62.52 285.285 62.968C285.05 63.4053 284.933 63.944 284.933 64.584C284.933 65.5333 285.173 66.2693 285.653 66.792C286.143 67.304 286.757 67.56 287.493 67.56ZM305.712 60.184L302.976 69H301.056L299.28 62.488L297.504 69H295.584L292.832 60.184H294.688L296.528 67.272L298.4 60.184H300.304L302.096 67.24L303.92 60.184H305.712ZM311.523 60.04C312.216 60.04 312.835 60.184 313.379 60.472C313.934 60.76 314.366 61.1867 314.675 61.752C314.984 62.3173 315.139 63 315.139 63.8V69H313.331V64.072C313.331 63.2827 313.134 62.68 312.739 62.264C312.344 61.8373 311.806 61.624 311.123 61.624C310.44 61.624 309.896 61.8373 309.491 62.264C309.096 62.68 308.899 63.2827 308.899 64.072V69H307.075V60.184H308.899V61.192C309.198 60.8293 309.576 60.5467 310.035 60.344C310.504 60.1413 311 60.04 311.523 60.04ZM323.446 61.48C323.755 61.0747 324.177 60.7333 324.71 60.456C325.243 60.1787 325.846 60.04 326.518 60.04C327.286 60.04 327.985 60.232 328.614 60.616C329.254 60.9893 329.755 61.5173 330.118 62.2C330.481 62.8827 330.662 63.6667 330.662 64.552C330.662 65.4373 330.481 66.232 330.118 66.936C329.755 67.6293 329.254 68.1733 328.614 68.568C327.985 68.952 327.286 69.144 326.518 69.144C325.846 69.144 325.249 69.0107 324.726 68.744C324.203 68.4667 323.777 68.1253 323.446 67.72V73.192H321.622V60.184H323.446V61.48ZM328.806 64.552C328.806 63.944 328.678 63.4213 328.422 62.984C328.177 62.536 327.846 62.2 327.43 61.976C327.025 61.7413 326.587 61.624 326.118 61.624C325.659 61.624 325.222 61.7413 324.806 61.976C324.401 62.2107 324.07 62.552 323.814 63C323.569 63.448 323.446 63.976 323.446 64.584C323.446 65.192 323.569 65.7253 323.814 66.184C324.07 66.632 324.401 66.9733 324.806 67.208C325.222 67.4427 325.659 67.56 326.118 67.56C326.587 67.56 327.025 67.4427 327.43 67.208C327.846 66.9627 328.177 66.6107 328.422 66.152C328.678 65.6933 328.806 65.16 328.806 64.552ZM334.29 61.464C334.556 61.016 334.908 60.6693 335.346 60.424C335.794 60.168 336.322 60.04 336.93 60.04V61.928H336.466C335.751 61.928 335.207 62.1093 334.834 62.472C334.471 62.8347 334.29 63.464 334.29 64.36V69H332.466V60.184H334.29V61.464ZM339.534 59.016C339.204 59.016 338.926 58.904 338.702 58.68C338.478 58.456 338.366 58.1787 338.366 57.848C338.366 57.5173 338.478 57.24 338.702 57.016C338.926 56.792 339.204 56.68 339.534 56.68C339.854 56.68 340.126 56.792 340.35 57.016C340.574 57.24 340.686 57.5173 340.686 57.848C340.686 58.1787 340.574 58.456 340.35 58.68C340.126 58.904 339.854 59.016 339.534 59.016ZM340.43 60.184V69H338.606V60.184H340.43ZM347.273 60.04C347.966 60.04 348.585 60.184 349.129 60.472C349.684 60.76 350.116 61.1867 350.425 61.752C350.734 62.3173 350.889 63 350.889 63.8V69H349.081V64.072C349.081 63.2827 348.884 62.68 348.489 62.264C348.094 61.8373 347.556 61.624 346.873 61.624C346.19 61.624 345.646 61.8373 345.241 62.264C344.846 62.68 344.649 63.2827 344.649 64.072V69H342.825V60.184H344.649V61.192C344.948 60.8293 345.326 60.5467 345.785 60.344C346.254 60.1413 346.75 60.04 347.273 60.04ZM355.344 61.672V66.552C355.344 66.8827 355.418 67.1227 355.568 67.272C355.728 67.4107 355.994 67.48 356.368 67.48H357.488V69H356.048C355.226 69 354.597 68.808 354.16 68.424C353.722 68.04 353.504 67.416 353.504 66.552V61.672H352.464V60.184H353.504V57.992H355.344V60.184H357.488V61.672H355.344ZM367.249 64.376C367.249 64.7067 367.227 65.0053 367.185 65.272H360.449C360.502 65.976 360.763 66.5413 361.233 66.968C361.702 67.3947 362.278 67.608 362.961 67.608C363.942 67.608 364.635 67.1973 365.041 66.376H367.009C366.742 67.1867 366.257 67.8533 365.553 68.376C364.859 68.888 363.995 69.144 362.961 69.144C362.118 69.144 361.361 68.9573 360.689 68.584C360.027 68.2 359.505 67.6667 359.121 66.984C358.747 66.2907 358.561 65.4907 358.561 64.584C358.561 63.6773 358.742 62.8827 359.105 62.2C359.478 61.5067 359.995 60.9733 360.657 60.6C361.329 60.2267 362.097 60.04 362.961 60.04C363.793 60.04 364.534 60.2213 365.185 60.584C365.835 60.9467 366.342 61.4587 366.705 62.12C367.067 62.7707 367.249 63.5227 367.249 64.376ZM365.345 63.8C365.334 63.128 365.094 62.5893 364.625 62.184C364.155 61.7787 363.574 61.576 362.881 61.576C362.251 61.576 361.713 61.7787 361.265 62.184C360.817 62.5787 360.55 63.1173 360.465 63.8H365.345ZM370.868 61.464C371.134 61.016 371.486 60.6693 371.924 60.424C372.372 60.168 372.9 60.04 373.508 60.04V61.928H373.044C372.329 61.928 371.785 62.1093 371.412 62.472C371.049 62.8347 370.868 63.464 370.868 64.36V69H369.044V60.184H370.868V61.464ZM381.469 61.672V66.552C381.469 66.8827 381.543 67.1227 381.693 67.272C381.853 67.4107 382.119 67.48 382.493 67.48H383.613V69H382.173C381.351 69 380.722 68.808 380.285 68.424C379.847 68.04 379.629 67.416 379.629 66.552V61.672H378.589V60.184H379.629V57.992H381.469V60.184H383.613V61.672H381.469ZM389.118 69.144C388.286 69.144 387.534 68.9573 386.862 68.584C386.19 68.2 385.662 67.6667 385.278 66.984C384.894 66.2907 384.702 65.4907 384.702 64.584C384.702 63.688 384.899 62.8933 385.294 62.2C385.688 61.5067 386.227 60.9733 386.91 60.6C387.592 60.2267 388.355 60.04 389.198 60.04C390.04 60.04 390.803 60.2267 391.486 60.6C392.168 60.9733 392.707 61.5067 393.102 62.2C393.496 62.8933 393.694 63.688 393.694 64.584C393.694 65.48 393.491 66.2747 393.086 66.968C392.68 67.6613 392.126 68.2 391.422 68.584C390.728 68.9573 389.96 69.144 389.118 69.144ZM389.118 67.56C389.587 67.56 390.024 67.448 390.43 67.224C390.846 67 391.182 66.664 391.438 66.216C391.694 65.768 391.822 65.224 391.822 64.584C391.822 63.944 391.699 63.4053 391.454 62.968C391.208 62.52 390.883 62.184 390.478 61.96C390.072 61.736 389.635 61.624 389.166 61.624C388.696 61.624 388.259 61.736 387.854 61.96C387.459 62.184 387.144 62.52 386.91 62.968C386.675 63.4053 386.558 63.944 386.558 64.584C386.558 65.5333 386.798 66.2693 387.278 66.792C387.768 67.304 388.382 67.56 389.118 67.56ZM399.321 69.144C398.489 69.144 397.737 68.9573 397.065 68.584C396.393 68.2 395.865 67.6667 395.481 66.984C395.097 66.2907 394.905 65.4907 394.905 64.584C394.905 63.688 395.102 62.8933 395.497 62.2C395.892 61.5067 396.43 60.9733 397.113 60.6C397.796 60.2267 398.558 60.04 399.401 60.04C400.244 60.04 401.006 60.2267 401.689 60.6C402.372 60.9733 402.91 61.5067 403.305 62.2C403.7 62.8933 403.897 63.688 403.897 64.584C403.897 65.48 403.694 66.2747 403.289 66.968C402.884 67.6613 402.329 68.2 401.625 68.584C400.932 68.9573 400.164 69.144 399.321 69.144ZM399.321 67.56C399.79 67.56 400.228 67.448 400.633 67.224C401.049 67 401.385 66.664 401.641 66.216C401.897 65.768 402.025 65.224 402.025 64.584C402.025 63.944 401.902 63.4053 401.657 62.968C401.412 62.52 401.086 62.184 400.681 61.96C400.276 61.736 399.838 61.624 399.369 61.624C398.9 61.624 398.462 61.736 398.057 61.96C397.662 62.184 397.348 62.52 397.113 62.968C396.878 63.4053 396.761 63.944 396.761 64.584C396.761 65.5333 397.001 66.2693 397.481 66.792C397.972 67.304 398.585 67.56 399.321 67.56ZM409.188 64.6L413.252 69H410.788L407.524 65.208V69H405.7V57.16H407.524V64.04L410.724 60.184H413.252L409.188 64.6ZM415.295 69.112C414.965 69.112 414.687 69 414.463 68.776C414.239 68.552 414.127 68.2747 414.127 67.944C414.127 67.6133 414.239 67.336 414.463 67.112C414.687 66.888 414.965 66.776 415.295 66.776C415.615 66.776 415.887 66.888 416.111 67.112C416.335 67.336 416.447 67.6133 416.447 67.944C416.447 68.2747 416.335 68.552 416.111 68.776C415.887 69 415.615 69.112 415.295 69.112Z" fill="#060707"/>
</svg>
