<svg width="574" height="124" viewBox="0 0 574 124" fill="none" xmlns="http://www.w3.org/2000/svg">
<path d="M1.584 22.104C1.584 18.776 2.304 15.816 3.744 13.224C5.184 10.6 7.184 8.568 9.744 7.128C12.336 5.656 15.264 4.92 18.528 4.92C22.528 4.92 25.952 5.976 28.8 8.088C31.648 10.2 33.552 13.08 34.512 16.728H25.488C24.816 15.32 23.856 14.248 22.608 13.512C21.392 12.776 20 12.408 18.432 12.408C15.904 12.408 13.856 13.288 12.288 15.048C10.72 16.808 9.936 19.16 9.936 22.104C9.936 25.048 10.72 27.4 12.288 29.16C13.856 30.92 15.904 31.8 18.432 31.8C20 31.8 21.392 31.432 22.608 30.696C23.856 29.96 24.816 28.888 25.488 27.48H34.512C33.552 31.128 31.648 34.008 28.8 36.12C25.952 38.2 22.528 39.24 18.528 39.24C15.264 39.24 12.336 38.52 9.744 37.08C7.184 35.608 5.184 33.576 3.744 30.984C2.304 28.392 1.584 25.432 1.584 22.104ZM47.7465 16.68C48.7065 15.208 49.9065 14.056 51.3465 13.224C52.7865 12.36 54.3865 11.928 56.1465 11.928V20.616H53.8905C51.8425 20.616 50.3065 21.064 49.2825 21.96C48.2585 22.824 47.7465 24.36 47.7465 26.568V39H39.5385V12.216H47.7465V16.68ZM85.3177 25.176C85.3177 25.944 85.2698 26.744 85.1738 27.576H66.5978C66.7258 29.24 67.2538 30.52 68.1818 31.416C69.1418 32.28 70.3098 32.712 71.6858 32.712C73.7338 32.712 75.1578 31.848 75.9578 30.12H84.6938C84.2458 31.88 83.4298 33.464 82.2458 34.872C81.0938 36.28 79.6378 37.384 77.8778 38.184C76.1178 38.984 74.1498 39.384 71.9738 39.384C69.3498 39.384 67.0138 38.824 64.9658 37.704C62.9178 36.584 61.3178 34.984 60.1658 32.904C59.0138 30.824 58.4378 28.392 58.4378 25.608C58.4378 22.824 58.9978 20.392 60.1178 18.312C61.2698 16.232 62.8698 14.632 64.9178 13.512C66.9658 12.392 69.3178 11.832 71.9738 11.832C74.5658 11.832 76.8698 12.376 78.8858 13.464C80.9018 14.552 82.4698 16.104 83.5898 18.12C84.7418 20.136 85.3177 22.488 85.3177 25.176ZM76.9178 23.016C76.9178 21.608 76.4378 20.488 75.4778 19.656C74.5178 18.824 73.3178 18.408 71.8778 18.408C70.5018 18.408 69.3338 18.808 68.3738 19.608C67.4458 20.408 66.8698 21.544 66.6458 23.016H76.9178ZM88.0159 25.56C88.0159 22.808 88.5279 20.392 89.5519 18.312C90.6079 16.232 92.0319 14.632 93.8239 13.512C95.6159 12.392 97.6159 11.832 99.8239 11.832C101.712 11.832 103.36 12.216 104.768 12.984C106.208 13.752 107.312 14.76 108.08 16.008V12.216H116.288V39H108.08V35.208C107.28 36.456 106.16 37.464 104.72 38.232C103.312 39 101.664 39.384 99.7759 39.384C97.5999 39.384 95.6159 38.824 93.8239 37.704C92.0319 36.552 90.6079 34.936 89.5519 32.856C88.5279 30.744 88.0159 28.312 88.0159 25.56ZM108.08 25.608C108.08 23.56 107.504 21.944 106.352 20.76C105.232 19.576 103.856 18.984 102.224 18.984C100.592 18.984 99.1999 19.576 98.0479 20.76C96.9279 21.912 96.3679 23.512 96.3679 25.56C96.3679 27.608 96.9279 29.24 98.0479 30.456C99.1999 31.64 100.592 32.232 102.224 32.232C103.856 32.232 105.232 31.64 106.352 30.456C107.504 29.272 108.08 27.656 108.08 25.608ZM137.154 32.04V39H132.978C130.002 39 127.682 38.28 126.018 36.84C124.354 35.368 123.522 32.984 123.522 29.688V19.032H120.258V12.216H123.522V5.688H131.73V12.216H137.106V19.032H131.73V29.784C131.73 30.584 131.922 31.16 132.306 31.512C132.69 31.864 133.33 32.04 134.226 32.04H137.154ZM166.974 25.176C166.974 25.944 166.926 26.744 166.83 27.576H148.254C148.382 29.24 148.91 30.52 149.838 31.416C150.798 32.28 151.966 32.712 153.342 32.712C155.39 32.712 156.814 31.848 157.614 30.12H166.35C165.902 31.88 165.086 33.464 163.902 34.872C162.75 36.28 161.294 37.384 159.534 38.184C157.774 38.984 155.806 39.384 153.63 39.384C151.006 39.384 148.67 38.824 146.622 37.704C144.574 36.584 142.974 34.984 141.822 32.904C140.67 30.824 140.094 28.392 140.094 25.608C140.094 22.824 140.654 20.392 141.774 18.312C142.926 16.232 144.526 14.632 146.574 13.512C148.622 12.392 150.974 11.832 153.63 11.832C156.222 11.832 158.526 12.376 160.542 13.464C162.558 14.552 164.126 16.104 165.246 18.12C166.398 20.136 166.974 22.488 166.974 25.176ZM158.574 23.016C158.574 21.608 158.094 20.488 157.134 19.656C156.174 18.824 154.974 18.408 153.534 18.408C152.158 18.408 150.99 18.808 150.03 19.608C149.102 20.408 148.526 21.544 148.302 23.016H158.574ZM208.836 12.216L192.036 51.72H183.204L189.348 38.088L178.452 12.216H187.62L193.812 28.968L199.956 12.216H208.836ZM223.996 39.384C221.372 39.384 219.004 38.824 216.892 37.704C214.812 36.584 213.164 34.984 211.948 32.904C210.764 30.824 210.172 28.392 210.172 25.608C210.172 22.856 210.78 20.44 211.996 18.36C213.212 16.248 214.876 14.632 216.988 13.512C219.1 12.392 221.468 11.832 224.092 11.832C226.716 11.832 229.084 12.392 231.196 13.512C233.308 14.632 234.972 16.248 236.188 18.36C237.404 20.44 238.012 22.856 238.012 25.608C238.012 28.36 237.388 30.792 236.14 32.904C234.924 34.984 233.244 36.584 231.1 37.704C228.988 38.824 226.62 39.384 223.996 39.384ZM223.996 32.28C225.564 32.28 226.892 31.704 227.98 30.552C229.1 29.4 229.66 27.752 229.66 25.608C229.66 23.464 229.116 21.816 228.028 20.664C226.972 19.512 225.66 18.936 224.092 18.936C222.492 18.936 221.164 19.512 220.108 20.664C219.052 21.784 218.524 23.432 218.524 25.608C218.524 27.752 219.036 29.4 220.06 30.552C221.116 31.704 222.428 32.28 223.996 32.28ZM268.815 12.216V39H260.607V35.352C259.775 36.536 258.639 37.496 257.199 38.232C255.791 38.936 254.223 39.288 252.495 39.288C250.447 39.288 248.639 38.84 247.071 37.944C245.503 37.016 244.287 35.688 243.423 33.96C242.559 32.232 242.127 30.2 242.127 27.864V12.216H250.287V26.76C250.287 28.552 250.751 29.944 251.679 30.936C252.607 31.928 253.855 32.424 255.423 32.424C257.023 32.424 258.287 31.928 259.215 30.936C260.143 29.944 260.607 28.552 260.607 26.76V12.216H268.815ZM282.918 16.68C283.878 15.208 285.078 14.056 286.518 13.224C287.958 12.36 289.558 11.928 291.318 11.928V20.616H289.062C287.014 20.616 285.478 21.064 284.454 21.96C283.43 22.824 282.918 24.36 282.918 26.568V39H274.71V12.216H282.918V16.68ZM335.558 39H327.35L313.622 18.216V39H305.414V5.304H313.622L327.35 26.184V5.304H335.558V39ZM363.443 5.304V11.88H349.715V18.984H359.987V25.368H349.715V39H341.507V5.304H363.443ZM391.997 5.304V11.88H383.069V39H374.861V11.88H365.933V5.304H391.997ZM401.829 0.599999L401.205 11.208H395.685L395.061 0.599999H401.829ZM417.606 39.384C415.27 39.384 413.19 38.984 411.366 38.184C409.542 37.384 408.102 36.296 407.046 34.92C405.99 33.512 405.398 31.944 405.27 30.216H413.382C413.478 31.144 413.91 31.896 414.678 32.472C415.446 33.048 416.39 33.336 417.51 33.336C418.534 33.336 419.318 33.144 419.862 32.76C420.438 32.344 420.726 31.816 420.726 31.176C420.726 30.408 420.326 29.848 419.526 29.496C418.726 29.112 417.43 28.696 415.638 28.248C413.718 27.8 412.118 27.336 410.838 26.856C409.558 26.344 408.454 25.56 407.526 24.504C406.598 23.416 406.134 21.96 406.134 20.136C406.134 18.6 406.55 17.208 407.382 15.96C408.246 14.68 409.494 13.672 411.126 12.936C412.79 12.2 414.758 11.832 417.03 11.832C420.39 11.832 423.03 12.664 424.95 14.328C426.902 15.992 428.022 18.2 428.31 20.952H420.726C420.598 20.024 420.182 19.288 419.478 18.744C418.806 18.2 417.91 17.928 416.79 17.928C415.83 17.928 415.094 18.12 414.582 18.504C414.07 18.856 413.814 19.352 413.814 19.992C413.814 20.76 414.214 21.336 415.014 21.72C415.846 22.104 417.126 22.488 418.854 22.872C420.838 23.384 422.454 23.896 423.702 24.408C424.95 24.888 426.038 25.688 426.966 26.808C427.926 27.896 428.422 29.368 428.454 31.224C428.454 32.792 428.006 34.2 427.11 35.448C426.246 36.664 424.982 37.624 423.318 38.328C421.686 39.032 419.782 39.384 417.606 39.384ZM469.424 39L466.304 35.976C463.2 38.344 459.488 39.528 455.168 39.528C452.576 39.528 450.32 39.112 448.4 38.28C446.48 37.416 444.992 36.216 443.936 34.68C442.912 33.112 442.4 31.288 442.4 29.208C442.4 27.096 442.96 25.192 444.08 23.496C445.232 21.768 446.944 20.36 449.216 19.272C448.384 18.248 447.792 17.272 447.44 16.344C447.088 15.384 446.912 14.344 446.912 13.224C446.912 11.624 447.328 10.168 448.16 8.856C448.992 7.544 450.192 6.52 451.76 5.784C453.36 5.016 455.248 4.632 457.424 4.632C459.632 4.632 461.504 5.032 463.04 5.832C464.576 6.632 465.728 7.704 466.496 9.048C467.264 10.392 467.616 11.864 467.552 13.464H459.824C459.856 12.6 459.632 11.944 459.152 11.496C458.704 11.016 458.096 10.776 457.328 10.776C456.56 10.776 455.92 11 455.408 11.448C454.896 11.896 454.64 12.472 454.64 13.176C454.64 13.848 454.848 14.552 455.264 15.288C455.712 16.024 456.4 16.872 457.328 17.832L465.536 25.848C465.6 25.688 465.68 25.496 465.776 25.272C465.904 25.048 466.032 24.792 466.16 24.504L467.936 21.48H476.144L473.84 25.656C472.976 27.544 471.984 29.336 470.864 31.032L478.976 39H469.424ZM455.552 32.904C457.696 32.904 459.6 32.296 461.264 31.08L453.776 23.832C451.472 25.016 450.32 26.616 450.32 28.632C450.32 29.848 450.784 30.872 451.712 31.704C452.672 32.504 453.952 32.904 455.552 32.904ZM504.309 39.336C501.845 39.336 499.637 38.936 497.685 38.136C495.733 37.336 494.165 36.152 492.981 34.584C491.829 33.016 491.221 31.128 491.157 28.92H499.893C500.021 30.168 500.453 31.128 501.189 31.8C501.925 32.44 502.885 32.76 504.069 32.76C505.285 32.76 506.245 32.488 506.949 31.944C507.653 31.368 508.005 30.584 508.005 29.592C508.005 28.76 507.717 28.072 507.141 27.528C506.597 26.984 505.909 26.536 505.077 26.184C504.277 25.832 503.125 25.432 501.621 24.984C499.445 24.312 497.669 23.64 496.293 22.968C494.917 22.296 493.733 21.304 492.741 19.992C491.749 18.68 491.253 16.968 491.253 14.856C491.253 11.72 492.389 9.272 494.661 7.512C496.933 5.72 499.893 4.824 503.541 4.824C507.253 4.824 510.245 5.72 512.517 7.512C514.789 9.272 516.005 11.736 516.165 14.904H507.285C507.221 13.816 506.821 12.968 506.085 12.36C505.349 11.72 504.405 11.4 503.253 11.4C502.261 11.4 501.461 11.672 500.853 12.216C500.245 12.728 499.941 13.48 499.941 14.472C499.941 15.56 500.453 16.408 501.477 17.016C502.501 17.624 504.101 18.28 506.277 18.984C508.453 19.72 510.213 20.424 511.557 21.096C512.933 21.768 514.117 22.744 515.109 24.024C516.101 25.304 516.597 26.952 516.597 28.968C516.597 30.888 516.101 32.632 515.109 34.2C514.149 35.768 512.741 37.016 510.885 37.944C509.029 38.872 506.837 39.336 504.309 39.336ZM546.896 25.176C546.896 25.944 546.848 26.744 546.752 27.576H528.176C528.304 29.24 528.832 30.52 529.76 31.416C530.72 32.28 531.888 32.712 533.264 32.712C535.312 32.712 536.736 31.848 537.536 30.12H546.272C545.824 31.88 545.008 33.464 543.824 34.872C542.672 36.28 541.216 37.384 539.456 38.184C537.696 38.984 535.728 39.384 533.552 39.384C530.928 39.384 528.592 38.824 526.544 37.704C524.496 36.584 522.896 34.984 521.744 32.904C520.592 30.824 520.016 28.392 520.016 25.608C520.016 22.824 520.576 20.392 521.696 18.312C522.848 16.232 524.448 14.632 526.496 13.512C528.544 12.392 530.896 11.832 533.552 11.832C536.144 11.832 538.448 12.376 540.464 13.464C542.48 14.552 544.048 16.104 545.168 18.12C546.32 20.136 546.896 22.488 546.896 25.176ZM538.496 23.016C538.496 21.608 538.016 20.488 537.056 19.656C536.096 18.824 534.896 18.408 533.456 18.408C532.08 18.408 530.912 18.808 529.952 19.608C529.024 20.408 528.448 21.544 528.224 23.016H538.496ZM559.434 3.48V39H551.226V3.48H559.434ZM573.59 3.48V39H565.382V3.48H573.59ZM31.872 77.304L20.208 99.864V111H12V99.864L0.336 77.304H9.648L16.176 91.416L22.656 77.304H31.872ZM47.3711 111.384C44.7471 111.384 42.3791 110.824 40.2671 109.704C38.1871 108.584 36.5391 106.984 35.3231 104.904C34.1391 102.824 33.5471 100.392 33.5471 97.608C33.5471 94.856 34.1551 92.44 35.3711 90.36C36.5871 88.248 38.2511 86.632 40.3631 85.512C42.4751 84.392 44.8431 83.832 47.4671 83.832C50.0911 83.832 52.4591 84.392 54.5711 85.512C56.6831 86.632 58.3471 88.248 59.5631 90.36C60.7791 92.44 61.3871 94.856 61.3871 97.608C61.3871 100.36 60.7631 102.792 59.5151 104.904C58.2991 106.984 56.6191 108.584 54.4751 109.704C52.3631 110.824 49.9951 111.384 47.3711 111.384ZM47.3711 104.28C48.9391 104.28 50.2671 103.704 51.3551 102.552C52.4751 101.4 53.0351 99.752 53.0351 97.608C53.0351 95.464 52.4911 93.816 51.4031 92.664C50.3471 91.512 49.0351 90.936 47.4671 90.936C45.8671 90.936 44.5391 91.512 43.4831 92.664C42.4271 93.784 41.8991 95.432 41.8991 97.608C41.8991 99.752 42.4111 101.4 43.4351 102.552C44.4911 103.704 45.8031 104.28 47.3711 104.28ZM92.1896 84.216V111H83.9816V107.352C83.1496 108.536 82.0136 109.496 80.5736 110.232C79.1656 110.936 77.5976 111.288 75.8696 111.288C73.8216 111.288 72.0136 110.84 70.4456 109.944C68.8776 109.016 67.6616 107.688 66.7976 105.96C65.9336 104.232 65.5016 102.2 65.5016 99.864V84.216H73.6616V98.76C73.6616 100.552 74.1256 101.944 75.0536 102.936C75.9816 103.928 77.2296 104.424 78.7976 104.424C80.3976 104.424 81.6616 103.928 82.5896 102.936C83.5176 101.944 83.9816 100.552 83.9816 98.76V84.216H92.1896ZM106.293 88.68C107.253 87.208 108.453 86.056 109.893 85.224C111.333 84.36 112.933 83.928 114.693 83.928V92.616H112.437C110.389 92.616 108.853 93.064 107.829 93.96C106.805 94.824 106.293 96.36 106.293 98.568V111H98.0854V84.216H106.293V88.68ZM158.933 111H150.725L136.997 90.216V111H128.789V77.304H136.997L150.725 98.184V77.304H158.933V111ZM186.818 77.304V83.88H173.09V90.984H183.362V97.368H173.09V111H164.882V77.304H186.818ZM215.372 77.304V83.88H206.444V111H198.236V83.88H189.308V77.304H215.372ZM228.032 97.56C228.032 94.808 228.544 92.392 229.568 90.312C230.624 88.232 232.048 86.632 233.84 85.512C235.632 84.392 237.632 83.832 239.84 83.832C241.728 83.832 243.376 84.216 244.784 84.984C246.224 85.752 247.328 86.76 248.096 88.008V84.216H256.304V111H248.096V107.208C247.296 108.456 246.176 109.464 244.736 110.232C243.328 111 241.68 111.384 239.792 111.384C237.616 111.384 235.632 110.824 233.84 109.704C232.048 108.552 230.624 106.936 229.568 104.856C228.544 102.744 228.032 100.312 228.032 97.56ZM248.096 97.608C248.096 95.56 247.52 93.944 246.368 92.76C245.248 91.576 243.872 90.984 242.24 90.984C240.608 90.984 239.216 91.576 238.064 92.76C236.944 93.912 236.384 95.512 236.384 97.56C236.384 99.608 236.944 101.24 238.064 102.456C239.216 103.64 240.608 104.232 242.24 104.232C243.872 104.232 245.248 103.64 246.368 102.456C247.52 101.272 248.096 99.656 248.096 97.608ZM277.17 104.04V111H272.994C270.018 111 267.698 110.28 266.034 108.84C264.37 107.368 263.538 104.984 263.538 101.688V91.032H260.274V84.216H263.538V77.688H271.746V84.216H277.122V91.032H271.746V101.784C271.746 102.584 271.938 103.16 272.322 103.512C272.706 103.864 273.346 104.04 274.242 104.04H277.17ZM304.106 111.384C301.482 111.384 299.114 110.824 297.002 109.704C294.922 108.584 293.274 106.984 292.058 104.904C290.874 102.824 290.282 100.392 290.282 97.608C290.282 94.856 290.89 92.44 292.105 90.36C293.322 88.248 294.986 86.632 297.098 85.512C299.21 84.392 301.578 83.832 304.202 83.832C306.826 83.832 309.194 84.392 311.306 85.512C313.418 86.632 315.082 88.248 316.298 90.36C317.514 92.44 318.122 94.856 318.122 97.608C318.122 100.36 317.498 102.792 316.25 104.904C315.034 106.984 313.354 108.584 311.21 109.704C309.098 110.824 306.73 111.384 304.106 111.384ZM304.106 104.28C305.674 104.28 307.002 103.704 308.09 102.552C309.21 101.4 309.77 99.752 309.77 97.608C309.77 95.464 309.226 93.816 308.138 92.664C307.082 91.512 305.77 90.936 304.202 90.936C302.602 90.936 301.274 91.512 300.218 92.664C299.162 93.784 298.634 95.432 298.634 97.608C298.634 99.752 299.146 101.4 300.17 102.552C301.226 103.704 302.538 104.28 304.106 104.28ZM338.796 83.928C341.932 83.928 344.428 84.952 346.284 87C348.172 89.016 349.116 91.8 349.116 95.352V111H340.956V96.456C340.956 94.664 340.492 93.272 339.564 92.28C338.636 91.288 337.388 90.792 335.82 90.792C334.252 90.792 333.004 91.288 332.076 92.28C331.148 93.272 330.684 94.664 330.684 96.456V111H322.476V84.216H330.684V87.768C331.516 86.584 332.636 85.656 334.044 84.984C335.452 84.28 337.036 83.928 338.796 83.928ZM380.068 97.176C380.068 97.944 380.02 98.744 379.924 99.576H361.348C361.476 101.24 362.004 102.52 362.932 103.416C363.892 104.28 365.06 104.712 366.436 104.712C368.484 104.712 369.908 103.848 370.708 102.12H379.444C378.996 103.88 378.18 105.464 376.996 106.872C375.844 108.28 374.388 109.384 372.628 110.184C370.868 110.984 368.9 111.384 366.724 111.384C364.1 111.384 361.764 110.824 359.716 109.704C357.668 108.584 356.068 106.984 354.916 104.904C353.764 102.824 353.188 100.392 353.188 97.608C353.188 94.824 353.748 92.392 354.868 90.312C356.02 88.232 357.62 86.632 359.668 85.512C361.716 84.392 364.068 83.832 366.724 83.832C369.316 83.832 371.62 84.376 373.636 85.464C375.652 86.552 377.22 88.104 378.34 90.12C379.492 92.136 380.068 94.488 380.068 97.176ZM371.668 95.016C371.668 93.608 371.188 92.488 370.228 91.656C369.268 90.824 368.068 90.408 366.628 90.408C365.252 90.408 364.084 90.808 363.124 91.608C362.196 92.408 361.62 93.544 361.396 95.016H371.668ZM402.778 88.008C403.578 86.76 404.682 85.752 406.09 84.984C407.498 84.216 409.146 83.832 411.034 83.832C413.242 83.832 415.242 84.392 417.034 85.512C418.826 86.632 420.234 88.232 421.258 90.312C422.314 92.392 422.842 94.808 422.842 97.56C422.842 100.312 422.314 102.744 421.258 104.856C420.234 106.936 418.826 108.552 417.034 109.704C415.242 110.824 413.242 111.384 411.034 111.384C409.178 111.384 407.53 111 406.09 110.232C404.682 109.464 403.578 108.472 402.778 107.256V123.768H394.57V84.216H402.778V88.008ZM414.49 97.56C414.49 95.512 413.914 93.912 412.762 92.76C411.642 91.576 410.25 90.984 408.586 90.984C406.954 90.984 405.562 91.576 404.41 92.76C403.29 93.944 402.73 95.56 402.73 97.608C402.73 99.656 403.29 101.272 404.41 102.456C405.562 103.64 406.954 104.232 408.586 104.232C410.218 104.232 411.61 103.64 412.762 102.456C413.914 101.24 414.49 99.608 414.49 97.56ZM425.516 97.56C425.516 94.808 426.028 92.392 427.052 90.312C428.108 88.232 429.532 86.632 431.324 85.512C433.116 84.392 435.116 83.832 437.324 83.832C439.212 83.832 440.86 84.216 442.268 84.984C443.708 85.752 444.812 86.76 445.58 88.008V84.216H453.788V111H445.58V107.208C444.78 108.456 443.66 109.464 442.22 110.232C440.812 111 439.164 111.384 437.276 111.384C435.1 111.384 433.116 110.824 431.324 109.704C429.532 108.552 428.108 106.936 427.052 104.856C426.028 102.744 425.516 100.312 425.516 97.56ZM445.58 97.608C445.58 95.56 445.004 93.944 443.852 92.76C442.732 91.576 441.356 90.984 439.724 90.984C438.092 90.984 436.7 91.576 435.548 92.76C434.428 93.912 433.868 95.512 433.868 97.56C433.868 99.608 434.428 101.24 435.548 102.456C436.7 103.64 438.092 104.232 439.724 104.232C441.356 104.232 442.732 103.64 443.852 102.456C445.004 101.272 445.58 99.656 445.58 97.608ZM467.934 75.48V111H459.726V75.48H467.934ZM472.25 97.608C472.25 94.824 472.81 92.392 473.93 90.312C475.082 88.232 476.666 86.632 478.682 85.512C480.73 84.392 483.066 83.832 485.69 83.832C489.05 83.832 491.85 84.712 494.09 86.472C496.362 88.232 497.85 90.712 498.554 93.912H489.818C489.082 91.864 487.658 90.84 485.546 90.84C484.042 90.84 482.842 91.432 481.946 92.616C481.05 93.768 480.602 95.432 480.602 97.608C480.602 99.784 481.05 101.464 481.946 102.648C482.842 103.8 484.042 104.376 485.546 104.376C487.658 104.376 489.082 103.352 489.818 101.304H498.554C497.85 104.44 496.362 106.904 494.09 108.696C491.818 110.488 489.018 111.384 485.69 111.384C483.066 111.384 480.73 110.824 478.682 109.704C476.666 108.584 475.082 106.984 473.93 104.904C472.81 102.824 472.25 100.392 472.25 97.608ZM528.193 97.176C528.193 97.944 528.145 98.744 528.049 99.576H509.473C509.601 101.24 510.129 102.52 511.057 103.416C512.017 104.28 513.185 104.712 514.561 104.712C516.609 104.712 518.033 103.848 518.833 102.12H527.569C527.121 103.88 526.305 105.464 525.121 106.872C523.969 108.28 522.513 109.384 520.753 110.184C518.993 110.984 517.025 111.384 514.849 111.384C512.225 111.384 509.889 110.824 507.841 109.704C505.793 108.584 504.193 106.984 503.041 104.904C501.889 102.824 501.313 100.392 501.313 97.608C501.313 94.824 501.873 92.392 502.993 90.312C504.145 88.232 505.745 86.632 507.793 85.512C509.841 84.392 512.193 83.832 514.849 83.832C517.441 83.832 519.745 84.376 521.761 85.464C523.777 86.552 525.345 88.104 526.465 90.12C527.617 92.136 528.193 94.488 528.193 97.176ZM519.793 95.016C519.793 93.608 519.313 92.488 518.353 91.656C517.393 90.824 516.193 90.408 514.753 90.408C513.377 90.408 512.209 90.808 511.249 91.608C510.321 92.408 509.745 93.544 509.521 95.016H519.793Z" fill="#060707"/>
</svg>
