<svg width="571" height="52" viewBox="0 0 571 52" fill="none" xmlns="http://www.w3.org/2000/svg">
<path d="M26.216 5.304V11.88H17.288V39H9.08V11.88H0.152V5.304H26.216ZM42.5274 39.384C39.9034 39.384 37.5354 38.824 35.4234 37.704C33.3434 36.584 31.6954 34.984 30.4794 32.904C29.2954 30.824 28.7034 28.392 28.7034 25.608C28.7034 22.856 29.3114 20.44 30.5274 18.36C31.7434 16.248 33.4074 14.632 35.5194 13.512C37.6314 12.392 39.9994 11.832 42.6234 11.832C45.2474 11.832 47.6154 12.392 49.7274 13.512C51.8394 14.632 53.5034 16.248 54.7194 18.36C55.9354 20.44 56.5434 22.856 56.5434 25.608C56.5434 28.36 55.9194 30.792 54.6714 32.904C53.4554 34.984 51.7754 36.584 49.6314 37.704C47.5194 38.824 45.1514 39.384 42.5274 39.384ZM42.5274 32.28C44.0954 32.28 45.4234 31.704 46.5114 30.552C47.6314 29.4 48.1914 27.752 48.1914 25.608C48.1914 23.464 47.6474 21.816 46.5594 20.664C45.5034 19.512 44.1914 18.936 42.6234 18.936C41.0234 18.936 39.6954 19.512 38.6394 20.664C37.5834 21.784 37.0554 23.432 37.0554 25.608C37.0554 27.752 37.5674 29.4 38.5914 30.552C39.6474 31.704 40.9594 32.28 42.5274 32.28ZM69.1059 16.008C69.9059 14.76 71.0099 13.752 72.4179 12.984C73.8259 12.216 75.4739 11.832 77.3619 11.832C79.5699 11.832 81.5699 12.392 83.3619 13.512C85.1539 14.632 86.5619 16.232 87.5859 18.312C88.6419 20.392 89.1699 22.808 89.1699 25.56C89.1699 28.312 88.6419 30.744 87.5859 32.856C86.5619 34.936 85.1539 36.552 83.3619 37.704C81.5699 38.824 79.5699 39.384 77.3619 39.384C75.5059 39.384 73.8579 39 72.4179 38.232C71.0099 37.464 69.9059 36.472 69.1059 35.256V51.768H60.8979V12.216H69.1059V16.008ZM80.8179 25.56C80.8179 23.512 80.2419 21.912 79.0899 20.76C77.9699 19.576 76.5779 18.984 74.9139 18.984C73.2819 18.984 71.8899 19.576 70.7379 20.76C69.6179 21.944 69.0579 23.56 69.0579 25.608C69.0579 27.656 69.6179 29.272 70.7379 30.456C71.8899 31.64 73.2819 32.232 74.9139 32.232C76.5459 32.232 77.9379 31.64 79.0899 30.456C80.2419 29.24 80.8179 27.608 80.8179 25.56ZM102.256 22.104C102.256 18.776 102.976 15.816 104.416 13.224C105.856 10.6 107.856 8.568 110.416 7.128C113.008 5.656 115.936 4.92 119.2 4.92C123.2 4.92 126.624 5.976 129.472 8.088C132.32 10.2 134.224 13.08 135.184 16.728H126.16C125.488 15.32 124.528 14.248 123.28 13.512C122.064 12.776 120.672 12.408 119.104 12.408C116.576 12.408 114.528 13.288 112.96 15.048C111.392 16.808 110.608 19.16 110.608 22.104C110.608 25.048 111.392 27.4 112.96 29.16C114.528 30.92 116.576 31.8 119.104 31.8C120.672 31.8 122.064 31.432 123.28 30.696C124.528 29.96 125.488 28.888 126.16 27.48H135.184C134.224 31.128 132.32 34.008 129.472 36.12C126.624 38.2 123.2 39.24 119.2 39.24C115.936 39.24 113.008 38.52 110.416 37.08C107.856 35.608 105.856 33.576 104.416 30.984C102.976 28.392 102.256 25.432 102.256 22.104ZM152.402 39.384C149.778 39.384 147.41 38.824 145.298 37.704C143.218 36.584 141.57 34.984 140.354 32.904C139.17 30.824 138.578 28.392 138.578 25.608C138.578 22.856 139.186 20.44 140.402 18.36C141.618 16.248 143.282 14.632 145.394 13.512C147.506 12.392 149.874 11.832 152.498 11.832C155.122 11.832 157.49 12.392 159.602 13.512C161.714 14.632 163.378 16.248 164.594 18.36C165.81 20.44 166.418 22.856 166.418 25.608C166.418 28.36 165.794 30.792 164.546 32.904C163.33 34.984 161.65 36.584 159.506 37.704C157.394 38.824 155.026 39.384 152.402 39.384ZM152.402 32.28C153.97 32.28 155.298 31.704 156.386 30.552C157.506 29.4 158.066 27.752 158.066 25.608C158.066 23.464 157.522 21.816 156.434 20.664C155.378 19.512 154.066 18.936 152.498 18.936C150.898 18.936 149.57 19.512 148.514 20.664C147.458 21.784 146.93 23.432 146.93 25.608C146.93 27.752 147.442 29.4 148.466 30.552C149.522 31.704 150.834 32.28 152.402 32.28ZM178.981 3.48V39H170.773V3.48H178.981ZM193.137 3.48V39H184.929V3.48H193.137ZM224.333 25.176C224.333 25.944 224.285 26.744 224.189 27.576H205.613C205.741 29.24 206.269 30.52 207.197 31.416C208.157 32.28 209.325 32.712 210.701 32.712C212.749 32.712 214.173 31.848 214.973 30.12H223.709C223.261 31.88 222.445 33.464 221.261 34.872C220.109 36.28 218.653 37.384 216.893 38.184C215.133 38.984 213.165 39.384 210.989 39.384C208.365 39.384 206.029 38.824 203.981 37.704C201.933 36.584 200.333 34.984 199.181 32.904C198.029 30.824 197.453 28.392 197.453 25.608C197.453 22.824 198.013 20.392 199.133 18.312C200.285 16.232 201.885 14.632 203.933 13.512C205.981 12.392 208.333 11.832 210.989 11.832C213.581 11.832 215.885 12.376 217.901 13.464C219.917 14.552 221.485 16.104 222.605 18.12C223.757 20.136 224.333 22.488 224.333 25.176ZM215.933 23.016C215.933 21.608 215.453 20.488 214.493 19.656C213.533 18.824 212.333 18.408 210.893 18.408C209.517 18.408 208.349 18.808 207.389 19.608C206.461 20.408 205.885 21.544 205.661 23.016H215.933ZM227.032 25.608C227.032 22.824 227.592 20.392 228.712 18.312C229.864 16.232 231.448 14.632 233.464 13.512C235.512 12.392 237.848 11.832 240.472 11.832C243.832 11.832 246.632 12.712 248.872 14.472C251.144 16.232 252.632 18.712 253.336 21.912H244.6C243.864 19.864 242.44 18.84 240.328 18.84C238.824 18.84 237.624 19.432 236.728 20.616C235.832 21.768 235.384 23.432 235.384 25.608C235.384 27.784 235.832 29.464 236.728 30.648C237.624 31.8 238.824 32.376 240.328 32.376C242.44 32.376 243.864 31.352 244.6 29.304H253.336C252.632 32.44 251.144 34.904 248.872 36.696C246.6 38.488 243.8 39.384 240.472 39.384C237.848 39.384 235.512 38.824 233.464 37.704C231.448 36.584 229.864 34.984 228.712 32.904C227.592 30.824 227.032 28.392 227.032 25.608ZM272.654 32.04V39H268.478C265.502 39 263.182 38.28 261.518 36.84C259.854 35.368 259.022 32.984 259.022 29.688V19.032H255.758V12.216H259.022V5.688H267.23V12.216H272.606V19.032H267.23V29.784C267.23 30.584 267.422 31.16 267.806 31.512C268.19 31.864 268.83 32.04 269.726 32.04H272.654ZM281.354 9.432C279.914 9.432 278.73 9.016 277.802 8.184C276.906 7.32 276.458 6.264 276.458 5.016C276.458 3.736 276.906 2.68 277.802 1.848C278.73 0.983997 279.914 0.551997 281.354 0.551997C282.762 0.551997 283.914 0.983997 284.81 1.848C285.738 2.68 286.202 3.736 286.202 5.016C286.202 6.264 285.738 7.32 284.81 8.184C283.914 9.016 282.762 9.432 281.354 9.432ZM285.434 12.216V39H277.226V12.216H285.434ZM303.574 39.384C300.95 39.384 298.582 38.824 296.47 37.704C294.39 36.584 292.742 34.984 291.526 32.904C290.342 30.824 289.75 28.392 289.75 25.608C289.75 22.856 290.358 20.44 291.574 18.36C292.79 16.248 294.454 14.632 296.566 13.512C298.678 12.392 301.046 11.832 303.67 11.832C306.294 11.832 308.662 12.392 310.774 13.512C312.886 14.632 314.55 16.248 315.766 18.36C316.982 20.44 317.59 22.856 317.59 25.608C317.59 28.36 316.966 30.792 315.718 32.904C314.502 34.984 312.822 36.584 310.678 37.704C308.566 38.824 306.198 39.384 303.574 39.384ZM303.574 32.28C305.142 32.28 306.47 31.704 307.558 30.552C308.678 29.4 309.238 27.752 309.238 25.608C309.238 23.464 308.694 21.816 307.606 20.664C306.55 19.512 305.238 18.936 303.67 18.936C302.07 18.936 300.742 19.512 299.686 20.664C298.63 21.784 298.102 23.432 298.102 25.608C298.102 27.752 298.614 29.4 299.638 30.552C300.694 31.704 302.006 32.28 303.574 32.28ZM338.265 11.928C341.401 11.928 343.897 12.952 345.753 15C347.641 17.016 348.585 19.8 348.585 23.352V39H340.425V24.456C340.425 22.664 339.961 21.272 339.033 20.28C338.105 19.288 336.857 18.792 335.289 18.792C333.721 18.792 332.473 19.288 331.545 20.28C330.617 21.272 330.153 22.664 330.153 24.456V39H321.945V12.216H330.153V15.768C330.985 14.584 332.105 13.656 333.513 12.984C334.921 12.28 336.505 11.928 338.265 11.928ZM365.185 39.384C362.849 39.384 360.769 38.984 358.945 38.184C357.121 37.384 355.681 36.296 354.625 34.92C353.569 33.512 352.977 31.944 352.849 30.216H360.961C361.057 31.144 361.489 31.896 362.257 32.472C363.025 33.048 363.969 33.336 365.089 33.336C366.113 33.336 366.897 33.144 367.441 32.76C368.017 32.344 368.305 31.816 368.305 31.176C368.305 30.408 367.905 29.848 367.105 29.496C366.305 29.112 365.009 28.696 363.217 28.248C361.297 27.8 359.697 27.336 358.417 26.856C357.137 26.344 356.033 25.56 355.105 24.504C354.177 23.416 353.713 21.96 353.713 20.136C353.713 18.6 354.129 17.208 354.961 15.96C355.825 14.68 357.073 13.672 358.705 12.936C360.369 12.2 362.337 11.832 364.609 11.832C367.969 11.832 370.609 12.664 372.529 14.328C374.481 15.992 375.601 18.2 375.889 20.952H368.305C368.177 20.024 367.761 19.288 367.057 18.744C366.385 18.2 365.489 17.928 364.369 17.928C363.409 17.928 362.673 18.12 362.161 18.504C361.649 18.856 361.393 19.352 361.393 19.992C361.393 20.76 361.793 21.336 362.593 21.72C363.425 22.104 364.705 22.488 366.433 22.872C368.417 23.384 370.033 23.896 371.281 24.408C372.529 24.888 373.617 25.688 374.545 26.808C375.505 27.896 376.001 29.368 376.033 31.224C376.033 32.792 375.585 34.2 374.689 35.448C373.825 36.664 372.561 37.624 370.897 38.328C369.265 39.032 367.361 39.384 365.185 39.384ZM395.354 9.432C393.914 9.432 392.73 9.016 391.802 8.184C390.906 7.32 390.458 6.264 390.458 5.016C390.458 3.736 390.906 2.68 391.802 1.848C392.73 0.983997 393.914 0.551997 395.354 0.551997C396.762 0.551997 397.914 0.983997 398.81 1.848C399.738 2.68 400.202 3.736 400.202 5.016C400.202 6.264 399.738 7.32 398.81 8.184C397.914 9.016 396.762 9.432 395.354 9.432ZM399.434 12.216V39H391.226V12.216H399.434ZM421.702 11.928C424.838 11.928 427.334 12.952 429.19 15C431.078 17.016 432.022 19.8 432.022 23.352V39H423.862V24.456C423.862 22.664 423.398 21.272 422.47 20.28C421.542 19.288 420.294 18.792 418.726 18.792C417.158 18.792 415.91 19.288 414.982 20.28C414.054 21.272 413.59 22.664 413.59 24.456V39H405.382V12.216H413.59V15.768C414.422 14.584 415.542 13.656 416.95 12.984C418.358 12.28 419.942 11.928 421.702 11.928ZM446.218 11.592V3.96H459.514V39H450.97V11.592H446.218ZM488.741 5.304C492.293 5.304 495.397 6.008 498.053 7.416C500.709 8.824 502.757 10.808 504.197 13.368C505.669 15.896 506.405 18.824 506.405 22.152C506.405 25.448 505.669 28.376 504.197 30.936C502.757 33.496 500.693 35.48 498.005 36.888C495.349 38.296 492.261 39 488.741 39H476.117V5.304H488.741ZM488.213 31.896C491.317 31.896 493.733 31.048 495.461 29.352C497.189 27.656 498.053 25.256 498.053 22.152C498.053 19.048 497.189 16.632 495.461 14.904C493.733 13.176 491.317 12.312 488.213 12.312H484.325V31.896H488.213ZM509.36 25.56C509.36 22.808 509.872 20.392 510.896 18.312C511.952 16.232 513.376 14.632 515.168 13.512C516.96 12.392 518.96 11.832 521.168 11.832C523.056 11.832 524.704 12.216 526.112 12.984C527.552 13.752 528.656 14.76 529.424 16.008V12.216H537.632V39H529.424V35.208C528.624 36.456 527.504 37.464 526.064 38.232C524.656 39 523.008 39.384 521.12 39.384C518.944 39.384 516.96 38.824 515.168 37.704C513.376 36.552 511.952 34.936 510.896 32.856C509.872 30.744 509.36 28.312 509.36 25.56ZM529.424 25.608C529.424 23.56 528.848 21.944 527.696 20.76C526.576 19.576 525.2 18.984 523.568 18.984C521.936 18.984 520.544 19.576 519.392 20.76C518.272 21.912 517.712 23.512 517.712 25.56C517.712 27.608 518.272 29.24 519.392 30.456C520.544 31.64 521.936 32.232 523.568 32.232C525.2 32.232 526.576 31.64 527.696 30.456C528.848 29.272 529.424 27.656 529.424 25.608ZM570.93 12.216L554.13 51.72H545.298L551.442 38.088L540.546 12.216H549.714L555.906 28.968L562.05 12.216H570.93Z" fill="#060707"/>
</svg>
