<svg width="40" height="33" viewBox="0 0 40 33" fill="none" xmlns="http://www.w3.org/2000/svg">
<path d="M26.5283 23.2467L19.9898 16.7081L13.4512 23.2467" stroke="#060707" stroke-width="3" stroke-linecap="round" stroke-linejoin="round"/>
<path d="M19.9902 16.7081L19.9902 31.4199" stroke="#060707" stroke-width="3" stroke-linecap="round" stroke-linejoin="round"/>
<path d="M33.7045 27.1533C35.2988 26.2841 36.5583 24.9087 37.2841 23.2442C38.01 21.5798 38.1609 19.7209 37.713 17.9612C37.2651 16.2014 36.2439 14.6409 34.8106 13.526C33.3773 12.4111 31.6135 11.8052 29.7977 11.804L27.738 11.804C27.2432 9.8902 26.321 8.11349 25.0408 6.60743C23.7605 5.10136 22.1555 3.90513 20.3463 3.10866C18.5372 2.31219 16.571 1.93621 14.5957 2.00899C12.6203 2.08177 10.6872 2.60141 8.94153 3.52886C7.19591 4.4563 5.68325 5.7674 4.51728 7.3636C3.3513 8.95979 2.56235 10.7995 2.20974 12.7445C1.85713 14.6895 1.95004 16.6892 2.48148 18.5931C3.01291 20.497 3.96905 22.2557 5.27801 23.7369" stroke="#060707" stroke-width="3" stroke-linecap="round" stroke-linejoin="round"/>
<path d="M26.5283 23.2467L19.9898 16.7081L13.4512 23.2467" stroke="#060707" stroke-width="3" stroke-linecap="round" stroke-linejoin="round"/>
</svg>
